{
.appVersion = "3064";
.formatVersion = 3;
DisplayStrings = (
"AÁĂẮẶẰẲẴĀÂẤẬ
ẦẨẪȀÄẠÀẢȂĀĄÅ
ǺÃǢOÓŎÔỐỘỒ
ỔỖȌÖȪȰỌÒỎ
ƠỚỢỜỞỠŐȎŌ/Omacronacute 
/Omacrongrave ǪØǾÕ/Otildeacute/Otildedieresis Ȭ
eéĕě/ecedillabreve êếệềểễȅëė
ẹèẻȇē/emacronacute/emacrongrave ęẽuúŭǥ
ûȕüụùủưứựừử
ữűȗū/umacrondieresis ųůũ/utildeacute",
"AÁĂẮẶẰẲẴĀÂẤẬ
ẦẨẪȀÄẠÀẢȂĀĄÅ
ǺÃǢOÓŎÔỐỘỒ
ỔỖȌÖȪȰỌÒỎ
ƠỚỢỜỞỠŐȎŌ/Omacronacute 
/Omacrongrave ǪØǾÕ/Otildeacute/Otildedieresis Ȭ
eéĕě/ecedillabreve êếệềểễȅëė
ẹèẻȇē/emacronacute/emacrongrave ęẽuúŭǥ
ûȕüụùủưứựừử
ữűȗū/umacrondieresis ųůũ/utildeacute",
"qqqqqqyqqqqq
AÁĂẮẶẰẲẴĀÂẤẬ
qqqqqqqqqqqq
ẦẨẪȀÄẠÀẢȂĀĄÅ
pǺÃOÓŎÔỐỘỒ
ĺqqqqqqqqqqq
HỔỖȌÖȪȰỌÒỎ
qqqqqqqqqqqq
ƠỚỢỜỞỠŐȎŌ/Omacronacute 
qqqqqqqqqq
/Omacrongrave ǪØǾÕ/Otildeacute/Otildedieresis Ȭ
qqqqqqqqqqqq
eéĕě/ecedillabreve êếệềểễȅëė
qqqqqqqqqqqq
ẹèẻȇē/emacronacute/emacrongrave ęẽuúŭǥ
qqqqqqqqqqqq
ûȕüụùủưứựừử
qqqqqqqqq
ữűȗū/umacrondieresis ųůũ/utildeacute"
);
customParameters = (
{
name = licenses;
value = "This Font Software is licensed under the SIL Open Font License, Version 1.1. This license is available with a FAQ at: http://scripts.sil.org/OFL";
},
{
name = licenseURL;
value = "http://scripts.sil.org/OFL";
},
{
name = openTypeOS2Selection;
value = (
7
);
},
{
name = fsType;
value = (
);
},
{
name = "EditView Line Height";
value = 1250;
}
);
date = "2020-01-04 16:14:24 +0000";
familyName = Lexend;
featurePrefixes = (
{
code = "languagesystem DFLT dflt;

languagesystem arab dflt;

languagesystem latn dflt;
languagesystem latn ROM;
languagesystem latn MOL;
languagesystem latn KAZ;
languagesystem latn TAT;
languagesystem latn TRK;
languagesystem latn CRT;
languagesystem latn AZE;
languagesystem latn CAT;";
name = Languagesystems;
}
);
fontMaster = (
{
customParameters = (
{
name = typoAscender;
value = 1000;
},
{
name = typoDescender;
value = -250;
},
{
name = typoLineGap;
value = 0;
},
{
name = hheaAscender;
value = 1000;
},
{
name = hheaDescender;
value = -250;
},
{
name = hheaLineGap;
value = 0;
},
{
name = winAscent;
value = 1194;
},
{

glyphs = (
{
color = (251,255,147,255);
glyphname = A;
kernLeft = A;
kernRight = A;
lastChange = "2021-02-17 09:17:51 +0000";
layers = (
{
anchors = (
{
name = bottom;
pos = (344,1);
},
{
name = ogonek;
pos = (601,11);
},
{
name = top;
pos = (344,701);
}
);
associatedMasterId = "10E6B24D-63A8-414A-9CC7-A409B0282D48";
guides = (
{
angle = 90;
name = center;
pos = (345,0);
userData = {
UFO.identifier = Onci2Ybw7n;
};
}
);
layerId = master01;
shapes = (
{
closed = 1;
nodes = (
(361,496,l),
(348,433,o),
(326,367,o),
(302,306,qs),
(190,0,l),
(-20,0,l),
(261,700,l),
(431,700,l),
(710,0,l),
(496,0,l),
(384,306,ls),
(361,368,o),
(340,433,o),
(327,496,q)
);
},
{
closed = 1;
nodes = (
(120,104,l),
(183,251,l),
(346,251,l),
(346,104,l)
);
},
{
closed = 1;
nodes = (
(346,104,l),
(346,251,l),
(508,251,l),
(565,104,l)
);
}
);
width = 690;
},
{
anchors = (
{
name = bottom;
pos = (352,0);
},
{
name = ogonek;
pos = (609,10);
},
{
name = top;
pos = (352,700);
}
);
layerId = "10E6B24D-63A8-414A-9CC7-A409B0282D48";
shapes = (
{
closed = 1;
nodes = (
(360,613,l),
(348.34,579.962,o),
(306.36,448.9,o),
(294,418,q),
(135,0,l),
(25,0,l),
(296,700,l),
(406,700,l),
(675,0,l),
(560,0,l),
(400,422,ls),
(389.654,451.314,o),
(348.903,578.672,o),
(337,612,q)
);
},
{
closed = 1;
nodes = (
(145,174,l),
(185,278,l),
(354,278,l),
(354,174,l)
);
},
{
closed = 1;
nodes = (
(354,174,l),
(354,278,l),
(503,278,l),
(549,174,l)
);
}
);
width = 700;
},
{
anchors = (
{
name = bottom;
pos = (306,0);
},
{
name = ogonek;
pos = (601,0);
},
{
name = top;
pos = (306,700);
}
);
layerId = "00D75E95-6BF0-4E41-A2AB-01FED608A441";
shapes = (
{
closed = 1;
nodes = (
(305,682,l),
(302.082,672.272,o),
(262.299,569.624,o),
(237,503,qs),
(46,0,l),
(20,0,l),
(289,700,l),
(322,700,l),
(591,0,l),
(565,0,l),
(372,504,ls),
(347.641,567.61,o),
(307.891,672.273,o),
(304,682,q)
);
},
{
closed = 1;
nodes = (
(120,230,l),
(128,253,l),
(299,253,l),
(299,230,l)
);
},
{
closed = 1;
nodes = (
(299,230,l),
(299,253,l),
(485,253,l),
(493,230,l)
);
}
);
width = 611;
}
);
note = A;
unicode = 65;
},
{
color = (151,255,122,255);
glyphname = AE;
lastChange = "2021-02-17 09:17:51 +0000";
layers = (
{
anchors = (
{
name = bottom;
pos = (497,0);
},
{
name = top;
pos = (646,700);
}
);
associatedMasterId = "10E6B24D-63A8-414A-9CC7-A409B0282D48";
guides = (
{
pos = (1238,175);
userData = {
UFO.identifier = Hjp3xvaa9R;
};
},
{
pos = (1234,272);
userData = {
UFO.identifier = bzxNCq5RcR;
};
}
);
layerId = master01;
shapes = (
{
closed = 1;
nodes = (
(363,299,l),
(590,299,l),
(572,213,l),
(572,552,l),
(591,541,l),
(221,0,l),
(-20,0,l),
(468,700,l),
(1107,700,l),
(1107,525,l),
(770,525,l),
(779,534,l),
(779,419,l),
(771,436,l),
(1062,436,l),
(1062,272,l),
(769,272,l),
(779,286,l),
(779,154,l),
(770,175,l),
(1107,175,l),
(1107,0,l),
(572,0,l),
(572,166,l),
(595,135,l),
(270,135,l)
);
}
);
userData = {
com.schriftgestaltung.Glyphs.glyph.rightMetricsKey = E;
};
width = 1154;
},
{
anchors = (
{
name = bottom;
pos = (497,0);
},
{
name = top;
pos = (646,700);
}
);
layerId = "10E6B24D-63A8-414A-9CC7-A409B0282D48";
shapes = (
{
closed = 1;
nodes = (
(228,245,l),
(483,245,l),
(465,213,l),
(465,552,l),
(484,541,l),
(114,0,l),
(5,0,l),
(493,700,l),
(894,700,l),
(894,607,l),
(557,607,l),
(566,616,l),
(566,385,l),
(558,402,l),
(849,402,l),
(849,308,l),
(556,308,l),
(566,322,l),
(566,72,l),
(557,93,l),
(894,93,l),
(894,0,l),
(465,0,l),
(465,166,l),
(488,153,l),
(174,153,l)
);
}
);
userData = {
com.schriftgestaltung.Glyphs.glyph.rightMetricsKey = E;
};
width = 969;
},
{
anchors = (
{
name = bottom;
pos = (497,0);
},
{
name = top;
pos = (505,700);
}
);
layerId = "00D75E95-6BF0-4E41-A2AB-01FED608A441";
shapes = (
{
closed = 1;
nodes = (
(178,238,l),
(502,238,l),
(486,220,l),
(486,691,l),
(495,691,l),
(28,0,l),
(0,0,l),
(476,700,l),
(861,700,l),
(861,678,l),
(499,678,l),
(508,687,l),
(508,357,l),
(498,372,l),
(804,372,l),
(804,350,l),
(499,350,l),
(508,367,l),
(508,9,l),
(497,22,l),
(861,22,l),
(861,0,l),
(486,0,l),
(486,228,l),
(502,216,l),
(164,216,l)
);
}
);
userData = {
com.schriftgestaltung.Glyphs.glyph.rightMetricsKey = E;
};
width = 926;
}
);
note = AE;
unicode = 198;
},
{
glyphname = B;
kernLeft = H;
kernRight = B;
lastChange = "2021-02-17 09:17:51 +0000";
layers = (
{
anchors = (
{
name = bottom;
pos = (349,0);
},
{
name = top;
pos = (349,700);
}
);
associatedMasterId = "10E6B24D-63A8-414A-9CC7-A409B0282D48";
guides = (
{
angle = 90;
pos = (350.5,0);
userData = {
UFO.identifier = w5syRo6VEv;
};
}
);
layerId = master01;
shapes = (
{
closed = 1;
nodes = (
(402,700,ls),
(516,700,o),
(638,608,o),
(638,531,qs),
(638,452,o),
(549,364,o),
(463,363,q),
(464,399,l),
(556,396,o),
(675,296,o),
(675,216,qs),
(675,106,o),
(522,0,o),
(412,0,q),
(80,0,l),
(80,700,l)
);
},
{
closed = 1;
nodes = (
(430,501,o),
(399,530,o),
(363,530,qs),
(248,530,l),
(280,561,l),
(280,399,l),
(249,426,l),
(365,426,ls),
(400,426,o),
(430,453,o),
(430,478,qs)
);
},
{
closed = 1;
nodes = (
(465,254,o),
(432,282,o),
(401,282,qs),
(253,282,l),
(280,314,l),
(280,144,l),
(252,170,l),
(406,170,ls),
(434,170,o),
(465,200,o),
(465,229,qs)
);
}
);
userData = {
com.schriftgestaltung.Glyphs.glyph.leftMetricsKey = H;
com.schriftgestaltung.Glyphs.glyph.rightMetricsKey = O;
};
width = 701;
},
{
anchors = (
{
name = bottom;
pos = (349,0);
},
{
name = top;
pos = (349,700);
}
);
layerId = "10E6B24D-63A8-414A-9CC7-A409B0282D48";
shapes = (
{
closed = 1;
nodes = (
(390,700,l),
(491,700,o),
(596,610,o),
(596,524,q),
(596,452,o),
(497,364,o),
(411,363,q),
(412,399,l),
(507,399,o),
(633,296,o),
(633,206,q),
(633,106,o),
(510,0,o),
(400,0,q),
(98,0,l),
(98,700,l)
);
},
{
closed = 1;
nodes = (
(488,548,o),
(428,596,o),
(372,596,q),
(196,596,l),
(206,621,l),
(206,399,l),
(197,410,l),
(384,410,l),
(429,411,o),
(488,462,o),
(488,503,q)
);
},
{
closed = 1;
nodes = (
(523,255,o),
(450,306,o),
(389,306,q),
(201,306,l),
(206,324,l),
(206,84,l),
(200,104,l),
(394,104,l),
(455,104,o),
(523,158,o),
(523,208,q)
);
}
);
userData = {
com.schriftgestaltung.Glyphs.glyph.leftMetricsKey = H;
com.schriftgestaltung.Glyphs.glyph.rightMetricsKey = O;
};
width = 681;
},
{
anchors = (
{
name = bottom;
pos = (349,0);
},
{
name = top;
pos = (349,700);
}
);
layerId = "00D75E95-6BF0-4E41-A2AB-01FED608A441";
shapes = (
{
closed = 1;
nodes = (
(378,700,l),
(461,700,o),
(560,601,o),
(560,531,q),
(560,459,o),
(451,359,o),
(365,359,q),
(368,375,l),
(481,375,o),
(597,270,o),
(597,192,q),
(597,111,o),
(492,0,o),
(371,0,q),
(110,0,l),
(110,700,l)
);
},
{
closed = 1;
nodes = (
(537,593,o),
(450,678,o),
(375,678,q),
(124,678,l),
(131,691,l),
(131,364,l),
(125,378,l),
(372,378,l),
(440,378,o),
(537,468,o),
(537,532,qs)
);
},
{
closed = 1;
nodes = (
(574,262,o),
(471,356,o),
(377,356,q),
(125,356,l),
(131,370,l),
(131,13,l),
(122,22,l),
(372,22,l),
(481,22,o),
(574,118,o),
(574,188,q)
);
}
);
userData = {
com.schriftgestaltung.Glyphs.glyph.leftMetricsKey = H;
com.schriftgestaltung.Glyphs.glyph.rightMetricsKey = O;
};
width = 648;
}
);
note = B;
unicode = 66;
},
{
color = (251,255,147,255);
glyphname = C;
kernLeft = C;
lastChange = "2021-02-17 09:17:51 +0000";
layers = (
{
anchors = (
{
name = bottom;
pos = (401,0);
},
{
name = top;
pos = (396,700);
}
);
associatedMasterId = "10E6B24D-63A8-414A-9CC7-A409B0282D48";
guides = (
{
angle = 90;
name = center;
pos = (382,277);
userData = {
UFO.identifier = FaEEHQ0PIo;
};
}
);
layerId = master01;
shapes = (
{
closed = 1;
nodes = (
(693,87,l),
(654,45,o),
(503,-10,o),
(424,-10,qs),
(255,-10,o),
(40,195,o),
(40,355,qs),
(40,515,o),
(258,720,o),
(430,720,qs),
(503,720,o),
(642,668,o),
(694,614,q),
(565,463,l),
(544,489,o),
(477,525,o),
(428,525,qs),
(359,525,o),
(262,435,o),
(262,352,qs),
(262,276,o),
(362,184,o),
(446,184,qs),
(491,184,o),
(566,222,o),
(590,249,q)
);
}
);
userData = {
com.schriftgestaltung.Glyphs.glyph.leftMetricsKey = O;
};
width = 705;
},
{
anchors = (
{
name = bottom;
pos = (377,0);
},
{
name = top;
pos = (372,700);
}
);
layerId = "10E6B24D-63A8-414A-9CC7-A409B0282D48";
shapes = (
{
closed = 1;
nodes = (
(630,86,l),
(595,45,o),
(456,-10,o),
(382,-10,qs),
(236,-10,o),
(48,191,o),
(48,350,qs),
(48,500,o),
(248,706,o),
(391,706,qs),
(467,706,o),
(606,638,o),
(643,585,q),
(571,510,l),
(528,554,o),
(438,598,o),
(391,598,qs),
(293,598,o),
(158,458,o),
(158,350,qs),
(158,235,o),
(292,99,o),
(400,99,qs),
(450,99,o),
(542,139,o),
(576,174,q)
);
}
);
userData = {
com.schriftgestaltung.Glyphs.glyph.leftMetricsKey = O;
};
width = 679;
},
{
anchors = (
{
name = bottom;
pos = (398,0);
},
{
name = top;
pos = (393,700);
}
);
guides = (
{
angle = 270;
pos = (374,528);
}
);
layerId = "00D75E95-6BF0-4E41-A2AB-01FED608A441";
shapes = (
{
closed = 1;
nodes = (
(639,81,l),
(594,38,o),
(471,-10,o),
(399,-10,q),
(248,-10,o),
(55,189,o),
(55,346,q),
(55,505,o),
(248,710,o),
(399,710,q),
(478,710,o),
(608,647,o),
(655,594,q),
(637,578,l),
(593,628,o),
(472,688,o),
(399,688,qs),
(260,688,o),
(78,494,o),
(78,346,q),
(78,200,o),
(260,12,o),
(399,12,qs),
(467,12,o),
(582,58,o),
(624,99,q)
);
}
);
userData = {
com.schriftgestaltung.Glyphs.glyph.leftMetricsKey = O;
};
width = 690;
}
);
note = C;
unicode = 67;
},
{
glyphname = D;
kernLeft = H;
kernRight = D;
lastChange = "2021-02-17 09:17:51 +0000";
layers = (
{
anchors = (
{
name = bottom;
pos = (335,0);
},
{
name = center;
pos = (147,350);
},
{
name = top;
pos = (325,700);
}
);
associatedMasterId = "10E6B24D-63A8-414A-9CC7-A409B0282D48";
guides = (
{
angle = 90;
name = center;
pos = (189,719);
userData = {
UFO.identifier = gZhsGP3Z4K;
};
}
);
layerId = master01;
shapes = (
{
closed = 1;
nodes = (
(388,700,ls),
(546,700,o),
(750,503,o),
(750,350,qs),
(750,197,o),
(546,0,o),
(388,0,q),
(80,0,l),
(80,700,l)
);
},
{
closed = 1;
nodes = (
(383,184,ls),
(448,184,o),
(532,278,o),
(532,350,qs),
(532,422,o),
(448,516,o),
(383,516,q),
(256,516,l),
(296,565,l),
(296,133,l),
(259,184,l)
);
}
);
userData = {
com.schriftgestaltung.Glyphs.glyph.leftMetricsKey = H;
com.schriftgestaltung.Glyphs.glyph.rightMetricsKey = O;
};
width = 790;
},
{
anchors = (
{
name = bottom;
pos = (335,0);
},
{
name = center;
pos = (147,350);
},
{
name = top;
pos = (325,700);
}
);
layerId = "10E6B24D-63A8-414A-9CC7-A409B0282D48";
shapes = (
{
closed = 1;
nodes = (
(372,700,ls),
(522,700,o),
(700,506,o),
(700,350,qs),
(700,193,o),
(523,0,o),
(372,0,q),
(98,0,l),
(98,700,l)
);
},
{
closed = 1;
nodes = (
(367,104,ls),
(473,104,o),
(590,235,o),
(590,350,qs),
(590,464,o),
(472,596,o),
(367,596,q),
(200,596,l),
(206,605,l),
(206,93,l),
(203,104,l)
);
}
);
userData = {
com.schriftgestaltung.Glyphs.glyph.leftMetricsKey = H;
com.schriftgestaltung.Glyphs.glyph.rightMetricsKey = O;
};
width = 748;
},
{
anchors = (
{
name = bottom;
pos = (335,0);
},
{
name = center;
pos = (147,350);
},
{
name = top;
pos = (325,700);
}
);
layerId = "00D75E95-6BF0-4E41-A2AB-01FED608A441";
shapes = (
{
closed = 1;
nodes = (
(357,700,ls),
(485,700,o),
(682,502,o),
(682,350,qs),
(682,199,o),
(485,0,o),
(357,0,q),
(110,0,l),
(110,700,l)
);
},
{
closed = 1;
nodes = (
(352,22,ls),
(473,22,o),
(659,211,o),
(659,350,qs),
(659,490,o),
(473,678,o),
(352,678,q),
(121,678,l),
(132,689,l),
(132,13,l),
(122,22,l)
);
}
);
userData = {
com.schriftgestaltung.Glyphs.glyph.leftMetricsKey = H;
com.schriftgestaltung.Glyphs.glyph.rightMetricsKey = O;
};
width = 737;
}
);
note = D;
unicode = 68;
},
{
color = (251,255,147,255);
glyphname = E;
kernLeft = H;
kernRight = E;
lastChange = "2021-02-17 09:17:51 +0000";
layers = (
{
anchors = (
{
name = bottom;
pos = (354,0);
},
{
name = ogonek;
pos = (621,10);
},
{
name = top;
pos = (349,700);
},
{
name = topleft;
pos = (46,700);
}
);
associatedMasterId = "10E6B24D-63A8-414A-9CC7-A409B0282D48";
guides = (
{
pos = (-812.216,382.96);
userData = {
UFO.identifier = Hj8jHkM1DO;
};
},
{
angle = 90;
name = center;
pos = (349,221);
userData = {
UFO.identifier = l2RaPEMUmW;
};
}
);
layerId = master01;
shapes = (
{
closed = 1;
nodes = (
(80,0,l),
(80,700,l),
(287,700,l),
(287,0,l)
);
},
{
closed = 1;
nodes = (
(183,0,l),
(183,175,l),
(621,175,l),
(621,0,l)
);
},
{
closed = 1;
nodes = (
(183,272,l),
(183,436,l),
(566,436,l),
(566,272,l)
);
},
{
closed = 1;
nodes = (
(183,525,l),
(183,700,l),
(603,700,l),
(603,525,l)
);
}
);
userData = {
com.schriftgestaltung.Glyphs.glyph.leftMetricsKey = H;
};
width = 668;
},
{
anchors = (
{
name = bottom;
pos = (322,0);
},
{
name = ogonek;
pos = (475,10);
},
{
name = top;
pos = (317,700);
},
{
name = topleft;
pos = (46,700);
}
);
layerId = "10E6B24D-63A8-414A-9CC7-A409B0282D48";
shapes = (
{
closed = 1;
nodes = (
(98,0,l),
(98,700,l),
(206,700,l),
(206,0,l)
);
},
{
closed = 1;
nodes = (
(147,0,l),
(147,104,l),
(539,104,l),
(539,0,l)
);
},
{
closed = 1;
nodes = (
(147,307,l),
(147,411,l),
(484,411,l),
(484,307,l)
);
},
{
closed = 1;
nodes = (
(147,596,l),
(147,700,l),
(539,700,l),
(539,596,l)
);
}
);
userData = {
com.schriftgestaltung.Glyphs.glyph.leftMetricsKey = H;
};
width = 614;
},
{
anchors = (
{
name = bottom;
pos = (302,0);
},
{
name = ogonek;
pos = (499,0);
},
{
name = top;
pos = (297,700);
},
{
name = topleft;
pos = (46,700);
}
);
layerId = "00D75E95-6BF0-4E41-A2AB-01FED608A441";
shapes = (
{
closed = 1;
nodes = (
(110,0,l),
(110,700,l),
(132,700,l),
(132,0,l)
);
},
{
closed = 1;
nodes = (
(124,0,l),
(124,22,l),
(495,22,l),
(495,0,l)
);
},
{
closed = 1;
nodes = (
(123,351,l),
(123,373,l),
(443,373,l),
(443,351,l)
);
},
{
closed = 1;
nodes = (
(123,678,l),
(123,700,l),
(501,700,l),
(501,678,l)
);
}
);
userData = {
com.schriftgestaltung.Glyphs.glyph.leftMetricsKey = H;
};
width = 566;
}
);
note = E;
unicode = 69;
},
{
glyphname = F;
kernLeft = H;
kernRight = F;
lastChange = "2021-02-17 09:17:51 +0000";
layers = (
{
associatedMasterId = "10E6B24D-63A8-414A-9CC7-A409B0282D48";
layerId = master01;
shapes = (
{
closed = 1;
nodes = (
(80,700,l),
(296,700,l),
(296,0,l),
(80,0,l)
);
},
{
closed = 1;
nodes = (
(183,246,l),
(183,416,l),
(546,416,l),
(546,246,l)
);
},
{
closed = 1;
nodes = (
(183,516,l),
(183,700,l),
(583,700,l),
(583,516,l)
);
}
);
userData = {
com.schriftgestaltung.Glyphs.glyph.leftMetricsKey = H;
};
width = 630;
},
{
layerId = "10E6B24D-63A8-414A-9CC7-A409B0282D48";
shapes = (
{
closed = 1;
nodes = (
(98,700,l),
(206,700,l),
(206,0,l),
(98,0,l)
);
},
{
closed = 1;
nodes = (
(146,298,l),
(146,402,l),
(507,402,l),
(507,298,l)
);
},
{
closed = 1;
nodes = (
(146,596,l),
(146,700,l),
(552,700,l),
(552,596,l)
);
}
);
userData = {
com.schriftgestaltung.Glyphs.glyph.leftMetricsKey = H;
};
width = 602;
},
{
layerId = "00D75E95-6BF0-4E41-A2AB-01FED608A441";
shapes = (
{
closed = 1;
nodes = (
(110,700,l),
(132,700,l),
(132,0,l),
(110,0,l)
);
},
{
closed = 1;
nodes = (
(122,341,l),
(122,363,l),
(444,363,l),
(444,341,l)
);
},
{
closed = 1;
nodes = (
(123,678,l),
(123,700,l),
(501,700,l),
(501,678,l)
);
}
);
userData = {
com.schriftgestaltung.Glyphs.glyph.leftMetricsKey = H;
};
width = 575;
}
);
note = F;
unicode = 70;
},
{
glyphname = G;
kernLeft = C;
kernRight = G;
lastChange = "2021-02-17 09:17:51 +0000";
layers = (
{
anchors = (
{
name = bottom;
pos = (413,0);
},
{
name = top;
pos = (400,700);
}
);
associatedMasterId = "10E6B24D-63A8-414A-9CC7-A409B0282D48";
guides = (
{
angle = 90;
name = center;
pos = (403,470);
userData = {
UFO.identifier = faXFDeaqR0;
};
}
);
layerId = master01;
shapes = (
{
closed = 1;
nodes = (
(40,514,o),
(254,720,o),
(430,720,qs),
(521,720,o),
(666,655,o),
(712,607,q),
(584,471,l),
(554,499,o),
(480,536,o),
(427,536,qs),
(356,536,o),
(262,434,o),
(262,355,qs),
(262,276,o),
(360,174,o),
(436,174,q),
(487,174,o),
(554,237,o),
(554,285,qs),
(554,314,l),
(582,266,l),
(404,266,l),
(404,418,l),
(748,418,l),
(750,401,o),
(753,313,o),
(753,299,qs),
(753,164,o),
(562,-10,o),
(414,-10,q),
(234,-10,o),
(40,196,o),
(40,355,qs)
);
}
);
userData = {
com.schriftgestaltung.Glyphs.glyph.leftMetricsKey = O;
};
width = 793;
},
{
anchors = (
{
name = bottom;
pos = (413,0);
},
{
name = top;
pos = (400,700);
}
);
layerId = "10E6B24D-63A8-414A-9CC7-A409B0282D48";
shapes = (
{
closed = 1;
nodes = (
(48,501,o),
(257,706,o),
(410,706,qs),
(490,706,o),
(633,640,o),
(672,587,q),
(602,514,l),
(557,557,o),
(460,601,o),
(410,601,qs),
(303,601,o),
(158,457,o),
(158,350,q),
(158,245,o),
(309,95,o),
(414,95,qs),
(493,95,o),
(607,183,o),
(607,246,qs),
(607,266,l),
(622,252,l),
(408,252,l),
(408,359,l),
(718,359,l),
(721,342,o),
(723,313,o),
(723,299,qs),
(723,161.196,o),
(542.152,-10,o),
(411,-10,q),
(258,-10,o),
(48,198,o),
(48,350,q)
);
}
);
userData = {
com.schriftgestaltung.Glyphs.glyph.leftMetricsKey = O;
};
width = 766;
},
{
anchors = (
{
name = bottom;
pos = (413,0);
},
{
name = top;
pos = (400,700);
}
);
layerId = "00D75E95-6BF0-4E41-A2AB-01FED608A441";
shapes = (
{
closed = 1;
nodes = (
(55,505,o),
(248,710,o),
(399,710,q),
(484,710,o),
(620,639,o),
(668,580,q),
(651,564,l),
(608,621,o),
(478,688,o),
(399,688,qs),
(260,688,o),
(78,494,o),
(78,346,q),
(78,200,o),
(261,12,o),
(400,12,q),
(544,12,o),
(699,184,o),
(699,322,q),
(699,341,l),
(705,336,l),
(409,336,l),
(409,358,l),
(722,358,l),
(722,352,o),
(722,345,o),
(722,339,q),
(722,168,o),
(549,-10,o),
(400,-10,q),
(249,-10,o),
(55,189,o),
(55,346,q)
);
}
);
userData = {
com.schriftgestaltung.Glyphs.glyph.leftMetricsKey = O;
};
width = 767;
}
);
note = G;
unicode = 71;
},
{
glyphname = H;
kernLeft = H;
kernRight = H;
lastChange = "2021-02-17 09:17:51 +0000";
layers = (
{
anchors = (
{
name = bottom;
pos = (397,0);
},
{
name = center;
pos = (397,350);
},
{
name = top;
pos = (397,700);
},
{
name = topleft;
pos = (36,700);
}
);
associatedMasterId = "10E6B24D-63A8-414A-9CC7-A409B0282D48";
layerId = master01;
shapes = (
{
closed = 1;
nodes = (
(296,700,l),
(296,0,l),
(80,0,l),
(80,700,l)
);
},
{
closed = 1;
nodes = (
(713,700,l),
(713,0,l),
(497,0,l),
(497,700,l)
);
},
{
closed = 1;
nodes = (
(162,443,l),
(619,443,l),
(619,255,l),
(161,255,l)
);
}
);
width = 793;
},
{
anchors = (
{
name = bottom;
pos = (376,0);
},
{
name = center;
pos = (376,350);
},
{
name = top;
pos = (376,700);
},
{
name = topleft;
pos = (36,700);
}
);
layerId = "10E6B24D-63A8-414A-9CC7-A409B0282D48";
shapes = (
{
closed = 1;
nodes = (
(206,700,l),
(206,0,l),
(98,0,l),
(98,700,l)
);
},
{
closed = 1;
nodes = (
(663,700,l),
(663,0,l),
(555,0,l),
(555,700,l)
);
},
{
closed = 1;
nodes = (
(145,401,l),
(603,401,l),
(603,297,l),
(145,297,l)
);
}
);
width = 761;
},
{
anchors = (
{
name = bottom;
pos = (371,0);
},
{
name = center;
pos = (371,350);
},
{
name = top;
pos = (371,700);
},
{
name = topleft;
pos = (36,700);
}
);
layerId = "00D75E95-6BF0-4E41-A2AB-01FED608A441";
shapes = (
{
closed = 1;
nodes = (
(132,700,l),
(132,0,l),
(110,0,l),
(110,700,l)
);
},
{
closed = 1;
nodes = (
(621,700,l),
(621,0,l),
(599,0,l),
(599,700,l)
);
},
{
closed = 1;
nodes = (
(121,360,l),
(610,360,l),
(610,338,l),
(121,338,l)
);
}
);
width = 732;
}
);
note = H;
unicode = 72;
},
{
color = (214,255,108,255);
glyphname = Hbar;
lastChange = "2021-02-17 09:17:51 +0000";
layers = (
{
anchors = (
{
name = bottom;
pos = (424,0);
},
{
name = center;
pos = (424,350);
},
{
name = top;
pos = (424,700);
},
{
name = topleft;
pos = (84,700);
}
);
associatedMasterId = "10E6B24D-63A8-414A-9CC7-A409B0282D48";
layerId = master01;
shapes = (
{
closed = 1;
nodes = (
(17,488,l),
(17,652,l),
(80,652,l),
(189,642,l),
(583,642,l),
(713,652,l),
(780,652,l),
(780,488,l),
(713,488,l),
(595,498,l),
(179,498,l),
(80,488,l)
);
},
{
closed = 1;
nodes = (
(296,700,l),
(296,0,l),
(80,0,l),
(80,700,l)
);
},
{
closed = 1;
nodes = (
(713,700,l),
(713,0,l),
(497,0,l),
(497,700,l)
);
},
{
closed = 1;
nodes = (
(162,443,l),
(619,443,l),
(619,255,l),
(161,255,l)
);
}
);
width = 793;
},
{
anchors = (
{
name = bottom;
pos = (424,0);
},
{
name = center;
pos = (424,350);
},
{
name = top;
pos = (424,700);
},
{
name = topleft;
pos = (84,700);
}
);
layerId = "10E6B24D-63A8-414A-9CC7-A409B0282D48";
shapes = (
{
closed = 1;
nodes = (
(57,468,l),
(57,572,l),
(173,572,l),
(219,562,l),
(613,562,l),
(649,572,l),
(800,572,l),
(800,468,l),
(656,468,l),
(625,478,l),
(209,478,l),
(163,468,l)
);
},
{
closed = 1;
nodes = (
(254,700,l),
(254,0,l),
(146,0,l),
(146,700,l)
);
},
{
closed = 1;
nodes = (
(711,700,l),
(711,0,l),
(603,0,l),
(603,700,l)
);
},
{
closed = 1;
nodes = (
(193,401,l),
(651,401,l),
(651,297,l),
(193,297,l)
);
}
);
width = 857;
},
{
anchors = (
{
name = bottom;
pos = (424,0);
},
{
name = center;
pos = (424,350);
},
{
name = top;
pos = (424,700);
},
{
name = topleft;
pos = (84,700);
}
);
layerId = "00D75E95-6BF0-4E41-A2AB-01FED608A441";
shapes = (
{
closed = 1;
nodes = (
(24,541,l),
(24,562,l),
(110,562,l),
(127,562,l),
(606,562,l),
(621,562,l),
(706,562,l),
(706,541,l),
(621,541,l),
(606,541,l),
(127,541,l),
(110,541,l)
);
},
{
closed = 1;
nodes = (
(132,700,l),
(132,0,l),
(110,0,l),
(110,700,l)
);
},
{
closed = 1;
nodes = (
(621,700,l),
(621,0,l),
(599,0,l),
(599,700,l)
);
},
{
closed = 1;
nodes = (
(121,360,l),
(610,360,l),
(610,338,l),
(121,338,l)
);
}
);
width = 731;
}
);
unicode = 294;
},
{
glyphname = I;
lastChange = "2021-02-17 09:17:51 +0000";
layers = (
{
anchors = (
{
name = bottom;
pos = (301,0);
},
{
name = ogonek;
pos = (531,10);
},
{
name = top;
pos = (301,700);
},
{
name = topleft;
pos = (123,700);
}
);
associatedMasterId = "10E6B24D-63A8-414A-9CC7-A409B0282D48";
guides = (
{
angle = 90;
name = center;
pos = (301,0);
userData = {
UFO.identifier = SSB6VD0GaS;
};
}
);
layerId = master01;
shapes = (
{
closed = 1;
nodes = (
(414,0,l),
(198,0,l),
(198,700,l),
(225,700,o),
(387,700,o),
(414,700,q)
);
},
{
closed = 1;
nodes = (
(537,525,l),
(75,525,l),
(75,700,l),
(537,700,l)
);
},
{
closed = 1;
nodes = (
(537,0,l),
(75,0,l),
(75,175,l),
(537,175,l)
);
}
);
width = 612;
},
{
anchors = (
{
name = bottom;
pos = (238,0);
},
{
name = ogonek;
pos = (428,10);
},
{
name = top;
pos = (238,700);
},
{
name = topleft;
pos = (123,700);
}
);
layerId = "10E6B24D-63A8-414A-9CC7-A409B0282D48";
shapes = (
{
closed = 1;
nodes = (
(293,0,l),
(185,0,l),
(185,700,l),
(212,700,o),
(266,700,o),
(293,700,q)
);
},
{
closed = 1;
nodes = (
(406,600,l),
(72,600,l),
(72,700,l),
(406,700,l)
);
},
{
closed = 1;
nodes = (
(406,0,l),
(72,0,l),
(72,100,l),
(406,100,l)
);
}
);
width = 478;
},
{
anchors = (
{
name = bottom;
pos = (193,0);
},
{
name = ogonek;
pos = (340,0);
},
{
name = top;
pos = (193,700);
},
{
name = topleft;
pos = (91,700);
}
);
layerId = "00D75E95-6BF0-4E41-A2AB-01FED608A441";
shapes = (
{
closed = 1;
nodes = (
(204,0,l),
(182,0,l),
(182,700,l),
(210,700,o),
(176,700,o),
(204,700,q)
);
},
{
closed = 1;
nodes = (
(336,678,l),
(50,678,l),
(50,700,l),
(336,700,l)
);
},
{
closed = 1;
nodes = (
(336,0,l),
(50,0,l),
(50,22,l),
(336,22,l)
);
}
);
width = 386;
}
);
note = I;
unicode = 73;
},
{
glyphname = J;
kernLeft = J;
kernRight = J;
lastChange = "2021-02-17 09:17:51 +0000";
layers = (
{
anchors = (
{
name = bottom;
pos = (238,0);
},
{
name = top;
pos = (385,700);
}
);
associatedMasterId = "10E6B24D-63A8-414A-9CC7-A409B0282D48";
guides = (
{
angle = 90;
name = center;
pos = (385,805);
userData = {
UFO.identifier = fuSSXIBZhO;
};
}
);
layerId = master01;
shapes = (
{
closed = 1;
nodes = (
(360,-10,o),
(265,-10,q),
(180,-10,o),
(64,55,o),
(31,115,q),
(150,238,l),
(167,212,o),
(209,179,o),
(233,179,q),
(257,179,o),
(286,212,o),
(286,240,qs),
(286,700,l),
(494,700,l),
(494,213,ls),
(494,106,o)
);
},
{
closed = 1;
nodes = (
(602,516,l),
(157,516,l),
(157,700,l),
(602,700,l)
);
}
);
width = 682;
},
{
anchors = (
{
name = bottom;
pos = (310,0);
},
{
name = top;
pos = (457,700);
}
);
layerId = "10E6B24D-63A8-414A-9CC7-A409B0282D48";
shapes = (
{
closed = 1;
nodes = (
(357,-10,o),
(256,-10,q),
(188,-10,o),
(79,60,o),
(50,117,q),
(118,188,l),
(161,129,o),
(219,95,o),
(256,95,qs),
(310,95,o),
(376,167,o),
(376,223,q),
(376,700,l),
(484,700,l),
(484,213,l),
(484,118,o)
);
},
{
closed = 1;
nodes = (
(592,600,l),
(248,600,l),
(248,700,l),
(592,700,l)
);
}
);
width = 642;
},
{
anchors = (
{
name = bottom;
pos = (223,0);
},
{
name = top;
pos = (370,700);
}
);
layerId = "00D75E95-6BF0-4E41-A2AB-01FED608A441";
shapes = (
{
closed = 1;
nodes = (
(140,-10,o),
(44,60,o),
(20,120,q),
(36,135,l),
(64,72,o),
(151,12,o),
(211,12,q),
(286,12,o),
(381,107,o),
(381,213,q),
(381,700,l),
(403,700,l),
(403,213,l),
(403,97,o),
(294,-10,o),
(209,-10,q)
);
},
{
closed = 1;
nodes = (
(509,678,l),
(252,678,l),
(252,700,l),
(509,700,l)
);
}
);
width = 559;
}
);
note = J;
unicode = 74;
},
{
glyphname = K;
kernLeft = H;
kernRight = K;
lastChange = "2021-02-17 09:17:51 +0000";
layers = (
{
anchors = (
{
name = bottom;
pos = (393,0);
},
{
name = top;
pos = (405,700);
}
);
associatedMasterId = "10E6B24D-63A8-414A-9CC7-A409B0282D48";
layerId = master01;
shapes = (
{
closed = 1;
nodes = (
(80,700,l),
(296,700,l),
(296,0,l),
(80,0,l)
);
},
{
closed = 1;
nodes = (
(157,359,l),
(490,700,l),
(735,700,l),
(230,199,l)
);
},
{
closed = 1;
nodes = (
(265,331,l),
(405,452,l),
(764,0,l),
(519,0,l)
);
}
);
userData = {
com.schriftgestaltung.Glyphs.glyph.leftMetricsKey = H;
};
width = 744;
},
{
anchors = (
{
name = bottom;
pos = (336,0);
},
{
name = top;
pos = (348,700);
}
);
layerId = "10E6B24D-63A8-414A-9CC7-A409B0282D48";
shapes = (
{
closed = 1;
nodes = (
(98,700,l),
(206,700,l),
(206,0,l),
(98,0,l)
);
},
{
closed = 1;
nodes = (
(182,333,l),
(549,700,l),
(691,700,l),
(188,212,l)
);
},
{
closed = 1;
nodes = (
(294,358,l),
(374,427,l),
(697,0,l),
(562,0,l)
);
}
);
userData = {
com.schriftgestaltung.Glyphs.glyph.leftMetricsKey = H;
};
width = 732;
},
{
anchors = (
{
name = bottom;
pos = (361,0);
},
{
name = top;
pos = (373,700);
}
);
layerId = "00D75E95-6BF0-4E41-A2AB-01FED608A441";
shapes = (
{
closed = 1;
nodes = (
(110,700,l),
(132,700,l),
(132,0,l),
(110,0,l)
);
},
{
closed = 1;
nodes = (
(120,265,l),
(566,700,l),
(598,700,l),
(120,234,l)
);
},
{
closed = 1;
nodes = (
(282,404,l),
(299,420,l),
(616,0,l),
(587,0,l)
);
}
);
userData = {
com.schriftgestaltung.Glyphs.glyph.leftMetricsKey = H;
};
width = 636;
}
);
note = K;
unicode = 75;
},
{
glyphname = L;
kernLeft = H;
kernRight = L;
lastChange = "2021-02-17 09:17:51 +0000";
layers = (
{
anchors = (
{
name = bottom;
pos = (354,0);
},
{
name = center;
pos = (527,379);
},
{
name = top;
pos = (246,700);
},
{
name = topright;
pos = (618,700);
}
);
associatedMasterId = "10E6B24D-63A8-414A-9CC7-A409B0282D48";
layerId = master01;
shapes = (
{
closed = 1;
nodes = (
(596,184,l),
(596,0,l),
(80,0,l),
(80,700,l),
(296,700,l),
(296,78,l),
(190,184,l)
);
}
);
userData = {
com.schriftgestaltung.Glyphs.glyph.leftMetricsKey = H;
};
width = 616;
},
{
anchors = (
{
name = bottom;
pos = (298,0);
},
{
name = center;
pos = (291,350);
},
{
name = top;
pos = (141,700);
},
{
name = topright;
pos = (547,700);
}
);
layerId = "10E6B24D-63A8-414A-9CC7-A409B0282D48";
shapes = (
{
closed = 1;
nodes = (
(534,104,l),
(534,0,l),
(98,0,l),
(98,700,l),
(206,700,l),
(206,78,l),
(178,104,l)
);
}
);
userData = {
com.schriftgestaltung.Glyphs.glyph.leftMetricsKey = H;
};
width = 599;
},
{
anchors = (
{
name = bottom;
pos = (324,0);
},
{
name = center;
pos = (380,350);
},
{
name = top;
pos = (141,700);
},
{
name = topright;
pos = (484,700);
}
);
layerId = "00D75E95-6BF0-4E41-A2AB-01FED608A441";
shapes = (
{
closed = 1;
nodes = (
(483,22,l),
(483,0,l),
(110,0,l),
(110,700,l),
(132,700,l),
(132,13,l),
(122,22,l)
);
}
);
userData = {
com.schriftgestaltung.Glyphs.glyph.leftMetricsKey = H;
};
width = 533;
}
);
note = L;
unicode = 76;
},
{
color = (79,255,0,255);
glyphname = Lslash;
kernLeft = L;
kernRight = L;
lastChange = "2021-02-17 09:17:51 +0000";
layers = (
{
anchors = (
{
name = bottom;
pos = (337,0);
},
{
name = center;
pos = (330,350);
},
{
name = top;
pos = (180,700);
},
{
name = topright;
pos = (586,700);
}
);
associatedMasterId = "10E6B24D-63A8-414A-9CC7-A409B0282D48";
layerId = master01;
shapes = (
{
closed = 1;
nodes = (
(596,184,l),
(596,0,l),
(80,0,l),
(80,700,l),
(296,700,l),
(296,78,l),
(190,184,l)
);
},
{
closed = 1;
nodes = (
(-44,387,l),
(363,564,l),
(425,401,l),
(18,224,l)
);
}
);
userData = {
com.schriftgestaltung.Glyphs.glyph.rightMetricsKey = L;
};
width = 616;
},
{
anchors = (
{
name = bottom;
pos = (337,0);
},
{
name = center;
pos = (330,350);
},
{
name = top;
pos = (180,700);
},
{
name = topright;
pos = (586,700);
}
);
layerId = "10E6B24D-63A8-414A-9CC7-A409B0282D48";
shapes = (
{
closed = 1;
nodes = (
(573,104,l),
(573,0,l),
(137,0,l),
(137,700,l),
(245,700,l),
(245,78,l),
(217,104,l)
);
},
{
closed = 1;
nodes = (
(40,328,l),
(331,459,l),
(363,382,l),
(69,256,l)
);
}
);
userData = {
com.schriftgestaltung.Glyphs.glyph.rightMetricsKey = L;
};
width = 638;
},
{
anchors = (
{
name = bottom;
pos = (337,0);
},
{
name = center;
pos = (330,350);
},
{
name = top;
pos = (180,700);
},
{
name = topright;
pos = (586,700);
}
);
layerId = "00D75E95-6BF0-4E41-A2AB-01FED608A441";
shapes = (
{
closed = 1;
nodes = (
(465,22,l),
(465,0,l),
(94,0,l),
(94,700,l),
(116,700,l),
(116,11,l),
(103,22,l)
);
},
{
closed = 1;
nodes = (
(-9,333,l),
(256,454,l),
(264,433,l),
(-1,312,l)
);
}
);
userData = {
com.schriftgestaltung.Glyphs.glyph.rightMetricsKey = L;
};
width = 485;
}
);
unicode = 321;
},
{
glyphname = M;
kernLeft = H;
kernRight = H;
lastChange = "2021-02-17 09:17:51 +0000";
layers = (
{
anchors = (
{
name = bottom;
pos = (446,0);
},
{
name = top;
pos = (446,700);
}
);
associatedMasterId = "10E6B24D-63A8-414A-9CC7-A409B0282D48";
layerId = master01;
shapes = (
{
closed = 1;
nodes = (
(266,700,l),
(521,285,l),
(370,286,l),
(628,700,l),
(808,700,l),
(808,0,l),
(600,0,l),
(600,167,ls),
(600,257,o),
(609,401,o),
(620,472,q),
(644,409,l),
(475,147,l),
(409,147,l),
(243,409,l),
(268,472,l),
(279,405,o),
(288,264,o),
(288,167,q),
(288,0,l),
(80,0,l),
(80,700,l)
);
}
);
userData = {
com.schriftgestaltung.Glyphs.glyph.leftMetricsKey = H;
com.schriftgestaltung.Glyphs.glyph.rightMetricsKey = H;
};
width = 878;
},
{
anchors = (
{
name = bottom;
pos = (433,0);
},
{
name = top;
pos = (433,700);
}
);
layerId = "10E6B24D-63A8-414A-9CC7-A409B0282D48";
shapes = (
{
closed = 1;
nodes = (
(204,700,l),
(459,285,l),
(408,286,l),
(666,700,l),
(766,700,l),
(766,0,l),
(658,0,l),
(658,287,ls),
(658,377,o),
(667,521,o),
(678,592,q),
(692,555,l),
(463,201,l),
(397,201,l),
(175,551,l),
(186,592,l),
(197,525,o),
(206,384,o),
(206,287,q),
(206,0,l),
(98,0,l),
(98,700,l)
);
}
);
userData = {
com.schriftgestaltung.Glyphs.glyph.leftMetricsKey = H;
com.schriftgestaltung.Glyphs.glyph.rightMetricsKey = H;
};
width = 864;
},
{
anchors = (
{
name = bottom;
pos = (419,0);
},
{
name = top;
pos = (419,700);
}
);
layerId = "00D75E95-6BF0-4E41-A2AB-01FED608A441";
shapes = (
{
closed = 1;
nodes = (
(127,700,l),
(421,232,l),
(418,232,l),
(711,700,l),
(728,700,l),
(728,0,l),
(706,0,l),
(706,383,ls),
(706,472,o),
(706,614,o),
(709,684,q),
(725,679,l),
(427,204,l),
(412,204,l),
(119,672,l),
(129,684,l),
(132,618,o),
(132,472,o),
(132,383,q),
(132,0,l),
(110,0,l),
(110,700,l)
);
}
);
userData = {
com.schriftgestaltung.Glyphs.glyph.leftMetricsKey = H;
com.schriftgestaltung.Glyphs.glyph.rightMetricsKey = H;
};
width = 828;
}
);
note = M;
unicode = 77;
},
{
glyphname = N;
kernLeft = H;
kernRight = H;
lastChange = "2021-02-17 09:17:51 +0000";
layers = (
{
anchors = (
{
name = bottom;
pos = (402,0);
},
{
name = top;
pos = (402,700);
}
);
associatedMasterId = "10E6B24D-63A8-414A-9CC7-A409B0282D48";
layerId = master01;
shapes = (
{
closed = 1;
nodes = (
(519,700,l),
(727,700,l),
(727,0,l),
(532,0,l),
(177,490,l),
(258,466,l),
(270,374,o),
(278,283,o),
(278,191,qs),
(278,0,l),
(70,0,l),
(70,700,l),
(263,700,l),
(585,255,l),
(539,269,l),
(527,369,o),
(518,470,o),
(519,570,qs)
);
}
);
userData = {
com.schriftgestaltung.Glyphs.glyph.leftMetricsKey = H;
com.schriftgestaltung.Glyphs.glyph.rightMetricsKey = H;
};
width = 797;
},
{
anchors = (
{
name = bottom;
pos = (393,0);
},
{
name = top;
pos = (393,700);
}
);
layerId = "10E6B24D-63A8-414A-9CC7-A409B0282D48";
shapes = (
{
closed = 1;
nodes = (
(587,700,l),
(695,700,l),
(695,0,l),
(596,0,l),
(175,552,l),
(186,566,l),
(191.569,501.96,o),
(206,336.253,o),
(206,291,q),
(206,0,l),
(98,0,l),
(98,700,l),
(195,700,l),
(623,127,l),
(607,118,l),
(597,180,o),
(587,360,o),
(587,470,q)
);
}
);
userData = {
com.schriftgestaltung.Glyphs.glyph.leftMetricsKey = H;
com.schriftgestaltung.Glyphs.glyph.rightMetricsKey = H;
};
width = 793;
},
{
anchors = (
{
name = bottom;
pos = (381,0);
},
{
name = top;
pos = (381,700);
}
);
layerId = "00D75E95-6BF0-4E41-A2AB-01FED608A441";
shapes = (
{
closed = 1;
nodes = (
(598,700,l),
(620,700,l),
(620,0,l),
(600,0,l),
(115,686,l),
(130,686,l),
(131,661,o),
(133,525,o),
(132,470,qs),
(132,0,l),
(110,0,l),
(110,700,l),
(132,700,l),
(605,31,l),
(601,31,l),
(601,75,o),
(599,177,o),
(598,241,q)
);
}
);
userData = {
com.schriftgestaltung.Glyphs.glyph.leftMetricsKey = H;
com.schriftgestaltung.Glyphs.glyph.rightMetricsKey = H;
};
width = 730;
}
);
note = N;
unicode = 78;
},
{
color = (151,255,122,255);
glyphname = Nhookleft;
kernLeft = H;
kernRight = H;
lastChange = "2021-02-17 09:17:51 +0000";
layers = (
{
associatedMasterId = "10E6B24D-63A8-414A-9CC7-A409B0282D48";
layerId = master01;
shapes = (
{
closed = 1;
nodes = (
(283,23,ls),
(283,-104,o),
(156,-207,o),
(28,-207,q),
(-60,-48,l),
(8,-48,o),
(75,11,o),
(75,71,q),
(75,700,l),
(268,700,l),
(590,255,l),
(544,269,l),
(532,369,o),
(523,470,o),
(524,570,q),
(524,700,l),
(732,700,l),
(732,0,l),
(537,0,l),
(182,490,l),
(263,466,l),
(273,389,o),
(283,312,o),
(283,236,q),
(283,206,o),
(283,175,o),
(283,145,q)
);
}
);
userData = {
com.schriftgestaltung.Glyphs.glyph.rightMetricsKey = N;
};
width = 802;
},
{
layerId = "10E6B24D-63A8-414A-9CC7-A409B0282D48";
shapes = (
{
closed = 1;
nodes = (
(190,-24,ls),
(190,-102,o),
(88,-197,o),
(5,-197,q),
(-34,-118,l),
(24,-118,o),
(82,-58,o),
(82,1,q),
(82,700,l),
(179,700,l),
(607,127,l),
(591,118,l),
(581,180,o),
(571,360,o),
(571,470,q),
(571,700,l),
(679,700,l),
(679,0,l),
(580,0,l),
(159,552,l),
(170,566,l),
(172,543,o),
(181,451,o),
(183,428,qs),
(187,387,o),
(190,320,o),
(190,291,q)
);
}
);
userData = {
com.schriftgestaltung.Glyphs.glyph.rightMetricsKey = N;
};
width = 777;
},
{
layerId = "00D75E95-6BF0-4E41-A2AB-01FED608A441";
shapes = (
{
closed = 1;
nodes = (
(132,-60,ls),
(132,-125,o),
(66,-194,o),
(6,-194,q),
(-2,-173,l),
(60,-173,o),
(110,-108,o),
(110,-56,q),
(110,700,l),
(132,700,l),
(605,31,l),
(601,31,l),
(601,75,o),
(599,177,o),
(598,241,q),
(598,700,l),
(620,700,l),
(620,0,l),
(600,0,l),
(115,686,l),
(130,686,l),
(131,672,o),
(132,611,o),
(132,575,qs),
(132,549,o),
(132,494,o),
(132,470,qs)
);
}
);
userData = {
com.schriftgestaltung.Glyphs.glyph.rightMetricsKey = N;
};
width = 730;
}
);
unicode = 413;
},
{
color = (151,255,122,255);
glyphname = Eng;
kernLeft = H;
kernRight = H;
lastChange = "2021-02-17 09:17:51 +0000";
layers = (
{
associatedMasterId = "10E6B24D-63A8-414A-9CC7-A409B0282D48";
background = {
shapes = (
{
closed = 1;
nodes = (
(586,700,o),
(587,700,c),
(587,470,l),
(587,360,o),
(591,219,o),
(607,118,c),
(623,127,l),
(195,700,l),
(98,700,l),
(98,0,l),
(206,0,l),
(206,291,l),
(206,383,o),
(194,474,o),
(186,566,c),
(175,552,l),
(596,0,l),
(695,0,l),
(695,700,l),
(692,700,o)
);
}
);
};
guides = (
{
pos = (76,-207);
userData = {
UFO.identifier = iv759XWzdQ;
};
}
);
layerId = master01;
shapes = (
{
closed = 1;
nodes = (
(535,-3,l),
(253,384,l),
(268,390,l),
(272,349,o),
(276,295,o),
(277,270,qs),
(278,252,o),
(278,215,o),
(278,191,q),
(278,0,l),
(70,0,l),
(70,700,l),
(263,700,l),
(550,304,l),
(536,298,l),
(524,394,o),
(518,487,o),
(519,570,q),
(519,700,l),
(727,700,l),
(727,68,l),
(727,0,ls),
(727,-114,o),
(594,-207,o),
(472,-207,q),
(384,-48,l),
(427,-48,o),
(527,-26,o),
(527,0,qs),
(527,49,l)
);
}
);
userData = {
com.schriftgestaltung.Glyphs.glyph.leftMetricsKey = N;
com.schriftgestaltung.Glyphs.glyph.rightMetricsKey = N;
};
width = 797;
},
{
background = {
shapes = (
{
closed = 1;
nodes = (
(586,700,o),
(587,700,c),
(587,470,l),
(587,360,o),
(591,219,o),
(607,118,c),
(623,127,l),
(195,700,l),
(98,700,l),
(98,0,l),
(206,0,l),
(206,291,l),
(206,383,o),
(194,474,o),
(186,566,c),
(175,552,l),
(596,0,l),
(695,0,l),
(695,700,l),
(692,700,o)
);
}
);
};
layerId = "10E6B24D-63A8-414A-9CC7-A409B0282D48";
shapes = (
{
closed = 1;
nodes = (
(596,0,l),
(175,552,l),
(186,566,l),
(188,543,o),
(197,451,o),
(199,428,qs),
(203,387,o),
(206,320,o),
(206,291,q),
(206,0,l),
(98,0,l),
(98,700,l),
(195,700,l),
(623,127,l),
(607,118,l),
(597,180,o),
(587,360,o),
(587,470,q),
(587,700,l),
(695,700,l),
(695,58,l),
(695,-24,ls),
(695,-102,o),
(593,-197,o),
(510,-197,q),
(471,-118,l),
(529,-118,o),
(587,-58,o),
(587,1,q),
(587,76,l)
);
}
);
userData = {
com.schriftgestaltung.Glyphs.glyph.leftMetricsKey = N;
com.schriftgestaltung.Glyphs.glyph.rightMetricsKey = N;
};
width = 793;
},
{
layerId = "00D75E95-6BF0-4E41-A2AB-01FED608A441";
shapes = (
{
closed = 1;
nodes = (
(600,0,l),
(115,686,l),
(130,686,l),
(131,673,o),
(132,618,o),
(132,585,qs),
(132,556,o),
(132,496,o),
(132,470,qs),
(132,0,l),
(110,0,l),
(110,700,l),
(132,700,l),
(605,31,l),
(601,31,l),
(601,75,o),
(599,177,o),
(598,241,q),
(598,700,l),
(620,700,l),
(620,0,l),
(620,-60,ls),
(620,-125,o),
(554,-194,o),
(494,-194,q),
(486,-173,l),
(548,-173,o),
(598,-108,o),
(598,-56,q),
(598,19,l)
);
}
);
userData = {
com.schriftgestaltung.Glyphs.glyph.leftMetricsKey = N;
com.schriftgestaltung.Glyphs.glyph.rightMetricsKey = N;
};
width = 730;
}
);
note = Eng;
unicode = 330;
},
{
glyphname = O;
kernLeft = C;
kernRight = D;
lastChange = "2021-02-17 09:17:51 +0000";
layers = (
{
anchors = (
{
name = bottom;
pos = (417,-1);
},
{
name = center;
pos = (386,350);
},
{
name = ogonek;
pos = (559,10);
},
{
name = top;
pos = (417,699);
},
{
name = topleft;
pos = (25,700);
},
{
name = topright;
pos = (500,668);
}
);
associatedMasterId = "10E6B24D-63A8-414A-9CC7-A409B0282D48";
guides = (
{
angle = 90;
pos = (417,0);
userData = {
UFO.identifier = cPHzLMecHV;
};
}
);
layerId = master01;
shapes = (
{
closed = 1;
nodes = (
(582,720,o),
(794,514,o),
(794,355,q),
(794,196,o),
(582,-10,o),
(417,-10,q),
(252,-10,o),
(40,196,o),
(40,355,q),
(40,514,o),
(252,720,o),
(417,720,q)
);
},
{
closed = 1;
nodes = (
(485,190,o),
(574,283,o),
(574,355,qs),
(574,427,o),
(485,520,o),
(417,520,qs),
(349,520,o),
(260,427,o),
(260,355,qs),
(260,283,o),
(349,190,o),
(417,190,qs)
);
}
);
width = 834;
},
{
anchors = (
{
name = bottom;
pos = (386,0);
},
{
name = center;
pos = (386,350);
},
{
name = ogonek;
pos = (690,10);
},
{
name = top;
pos = (386,700);
},
{
name = topleft;
pos = (25,700);
},
{
name = topright;
pos = (387,706);
}
);
layerId = "10E6B24D-63A8-414A-9CC7-A409B0282D48";
shapes = (
{
closed = 1;
nodes = (
(539,710,o),
(734,504,o),
(734,350,q),
(734,196,o),
(539,-10,o),
(391,-10,q),
(243,-10,o),
(48,195,o),
(48,350,q),
(48,505,o),
(243,710,o),
(391,710,q)
);
},
{
closed = 1;
nodes = (
(492,95,o),
(624,240,o),
(624,350,q),
(624,460,o),
(492,605,o),
(391,605,qs),
(289,605,o),
(158,461,o),
(158,350,q),
(158,239,o),
(289,95,o),
(391,95,qs)
);
}
);
width = 782;
},
{
anchors = (
{
name = bottom;
pos = (399,0);
},
{
name = center;
pos = (391,350);
},
{
name = ogonek;
pos = (545,10);
},
{
name = top;
pos = (399,700);
},
{
name = topleft;
pos = (25,700);
},
{
name = topright;
pos = (479,679);
}
);
layerId = "00D75E95-6BF0-4E41-A2AB-01FED608A441";
shapes = (
{
closed = 1;
nodes = (
(550,710,o),
(743,508,o),
(743,349,q),
(743,191,o),
(550,-10,o),
(399,-10,q),
(248,-10,o),
(55,191,o),
(55,349,q),
(55,507,o),
(248,710,o),
(399,710,q)
);
},
{
closed = 1;
nodes = (
(539,12,o),
(720,202,o),
(720,349,q),
(720,496,o),
(539,688,o),
(399,688,qs),
(260,688,o),
(78,496,o),
(78,349,q),
(78,202,o),
(260,12,o),
(399,12,qs)
);
}
);
width = 798;
}
);
note = O;
unicode = 79;
},
{
color = (79,255,0,255);
glyphname = Oslash;
kernLeft = O;
kernRight = O;
lastChange = "2021-02-17 09:17:51 +0000";
layers = (
{
anchors = (
{
name = bottom;
pos = (368,0);
},
{
name = center;
pos = (387,350);
},
{
name = ogonek;
pos = (691,10);
},
{
name = top;
pos = (368,700);
},
{
name = topleft;
pos = (26,700);
},
{
name = topright;
pos = (388,706);
}
);
associatedMasterId = "10E6B24D-63A8-414A-9CC7-A409B0282D48";
layerId = master01;
shapes = (
{
closed = 1;
nodes = (
(88,20,l),
(677,741,l),
(745,694,l),
(151,-33,l)
);
},
{
closed = 1;
nodes = (
(582,720,o),
(794,514,o),
(794,355,q),
(794,196,o),
(582,-10,o),
(417,-10,q),
(252,-10,o),
(40,196,o),
(40,355,q),
(40,514,o),
(252,720,o),
(417,720,q)
);
},
{
closed = 1;
nodes = (
(485,190,o),
(574,283,o),
(574,355,qs),
(574,427,o),
(485,520,o),
(417,520,qs),
(349,520,o),
(260,427,o),
(260,355,qs),
(260,283,o),
(349,190,o),
(417,190,qs)
);
}
);
width = 834;
},
{
anchors = (
{
name = bottom;
pos = (368,0);
},
{
name = center;
pos = (387,350);
},
{
name = ogonek;
pos = (691,10);
},
{
name = top;
pos = (368,700);
},
{
name = topleft;
pos = (26,700);
},
{
name = topright;
pos = (388,706);
}
);
layerId = "10E6B24D-63A8-414A-9CC7-A409B0282D48";
shapes = (
{
closed = 1;
nodes = (
(60,20,l),
(649,741,l),
(717,694,l),
(123,-33,l)
);
},
{
closed = 1;
nodes = (
(540,710,o),
(735,504,o),
(735,350,q),
(735,196,o),
(540,-10,o),
(392,-10,q),
(244,-10,o),
(49,195,o),
(49,350,q),
(49,505,o),
(244,710,o),
(392,710,q)
);
},
{
closed = 1;
nodes = (
(493,95,o),
(625,240,o),
(625,350,q),
(625,460,o),
(493,605,o),
(392,605,qs),
(290,605,o),
(159,461,o),
(159,350,q),
(159,239,o),
(290,95,o),
(392,95,qs)
);
}
);
width = 770;
},
{
anchors = (
{
name = bottom;
pos = (368,0);
},
{
name = center;
pos = (387,350);
},
{
name = ogonek;
pos = (691,10);
},
{
name = top;
pos = (368,700);
},
{
name = topleft;
pos = (26,700);
},
{
name = topright;
pos = (388,706);
}
);
guides = (
{
angle = 270;
pos = (399,0);
}
);
layerId = "00D75E95-6BF0-4E41-A2AB-01FED608A441";
shapes = (
{
closed = 1;
nodes = (
(95,-4,l),
(684,718,l),
(703,704,l),
(114,-18,l)
);
},
{
closed = 1;
nodes = (
(550,710,o),
(743,508,o),
(743,349,q),
(743,191,o),
(550,-10,o),
(399,-10,q),
(248,-10,o),
(55,191,o),
(55,349,q),
(55,507,o),
(248,710,o),
(399,710,q)
);
},
{
closed = 1;
nodes = (
(539,12,o),
(720,202,o),
(720,349,q),
(720,496,o),
(539,688,o),
(399,688,qs),
(260,688,o),
(78,496,o),
(78,349,q),
(78,202,o),
(260,12,o),
(399,12,qs)
);
}
);
width = 798;
}
);
unicode = 216;
},
{
color = (151,255,122,255);
glyphname = OE;
kernLeft = O;
kernRight = E;
lastChange = "2021-02-17 09:17:51 +0000";
layers = (
{
anchors = (
{
name = bottom;
pos = (492,0);
},
{
name = top;
pos = (492,700);
}
);
associatedMasterId = "10E6B24D-63A8-414A-9CC7-A409B0282D48";
guides = (
{
angle = 90;
pos = (289,345);
userData = {
UFO.identifier = bo6CYx75G3;
};
}
);
layerId = master01;
shapes = (
{
closed = 1;
nodes = (
(40,506,o),
(233,700,o),
(395,700,q),
(1070,700,l),
(1070,525,l),
(728,525,l),
(737,543,l),
(737,432,l),
(728,441,l),
(1015,441,l),
(1015,277,l),
(731,277,l),
(737,286,l),
(737,168,l),
(730,175,l),
(1070,175,l),
(1070,0,l),
(375,0,ls),
(221,0,o),
(40,193,o),
(40,350,qs)
);
},
{
closed = 1;
nodes = (
(530,137,l),
(530,560,l),
(550,516,l),
(407,516,ls),
(336,516,o),
(258,427,o),
(258,350,qs),
(258,272,o),
(336,184,o),
(407,184,q),
(550,184,l)
);
}
);
userData = {
com.schriftgestaltung.Glyphs.glyph.leftMetricsKey = O;
com.schriftgestaltung.Glyphs.glyph.rightMetricsKey = E;
};
width = 1117;
},
{
anchors = (
{
name = bottom;
pos = (492,0);
},
{
name = top;
pos = (492,700);
}
);
layerId = "10E6B24D-63A8-414A-9CC7-A409B0282D48";
shapes = (
{
closed = 1;
nodes = (
(48,506,o),
(237,700,o),
(395,700,q),
(952,700,l),
(952,596,l),
(610,596,l),
(619,614,l),
(619,402,l),
(610,411,l),
(897,411,l),
(897,307,l),
(613,307,l),
(619,316,l),
(619,97,l),
(612,104,l),
(952,104,l),
(952,0,l),
(375,0,ls),
(225,0,o),
(48,193,o),
(48,350,qs)
);
},
{
closed = 1;
nodes = (
(511,57,l),
(511,641,l),
(552,596,l),
(398,596,ls),
(284,596,o),
(158,464,o),
(158,350,qs),
(158,235,o),
(273,104,o),
(378,104,qs),
(552,104,l)
);
}
);
userData = {
com.schriftgestaltung.Glyphs.glyph.leftMetricsKey = O;
com.schriftgestaltung.Glyphs.glyph.rightMetricsKey = E;
};
width = 1027;
},
{
anchors = (
{
name = bottom;
pos = (492,0);
},
{
name = top;
pos = (492,700);
}
);
layerId = "00D75E95-6BF0-4E41-A2AB-01FED608A441";
shapes = (
{
closed = 1;
nodes = (
(55,502,o),
(247,700,o),
(371,700,qs),
(937,700,l),
(937,678,l),
(560,678,l),
(568,688,l),
(568,355,l),
(556,373,l),
(879,373,l),
(879,351,l),
(555,351,l),
(568,366,l),
(568,13,l),
(561,22,l),
(931,22,l),
(931,0,l),
(380,0,ls),
(253,0,o),
(55,199,o),
(55,350,qs)
);
},
{
closed = 1;
nodes = (
(546,13,l),
(546,688,l),
(555,678,l),
(377,678,ls),
(262,678,o),
(78,490,o),
(78,350,qs),
(78,211,o),
(267,22,o),
(386,22,qs),
(554,22,l)
);
}
);
userData = {
com.schriftgestaltung.Glyphs.glyph.leftMetricsKey = O;
com.schriftgestaltung.Glyphs.glyph.rightMetricsKey = E;
};
width = 1002;
}
);
note = OE;
unicode = 338;
},
{
glyphname = P;
kernLeft = H;
kernRight = P;
lastChange = "2021-02-17 09:17:51 +0000";
layers = (
{
anchors = (
{
name = bottom;
pos = (321,0);
},
{
name = top;
pos = (321,700);
}
);
associatedMasterId = "10E6B24D-63A8-414A-9CC7-A409B0282D48";
layerId = master01;
shapes = (
{
closed = 1;
nodes = (
(385,700,ls),
(493,700,o),
(633,565,o),
(633,460,qs),
(633,350,o),
(493,208,o),
(385,208,q),
(250,208,l),
(286,242,l),
(286,0,l),
(70,0,l),
(70,700,l)
);
},
{
closed = 1;
nodes = (
(345,392,ls),
(374,392,o),
(411,425,o),
(411,456,qs),
(411,487,o),
(374,516,o),
(345,516,qs),
(249,516,l),
(282,551,l),
(282,358,l),
(249,392,l)
);
}
);
userData = {
com.schriftgestaltung.Glyphs.glyph.leftMetricsKey = H;
};
width = 673;
},
{
anchors = (
{
name = bottom;
pos = (321,0);
},
{
name = top;
pos = (321,700);
}
);
layerId = "10E6B24D-63A8-414A-9CC7-A409B0282D48";
shapes = (
{
closed = 1;
nodes = (
(383,700,ls),
(468,700,o),
(589,575,o),
(589,485,qs),
(589,395,o),
(468,268,o),
(383,268,q),
(198,268,l),
(206,282,l),
(206,0,l),
(98,0,l),
(98,700,l)
);
},
{
closed = 1;
nodes = (
(381,372,ls),
(421,372,o),
(479,439,o),
(479,485,qs),
(479,531,o),
(421,596,o),
(381,596,q),
(197,596,l),
(206,611,l),
(206,358,l),
(197,372,l)
);
}
);
userData = {
com.schriftgestaltung.Glyphs.glyph.leftMetricsKey = H;
};
width = 634;
},
{
anchors = (
{
name = bottom;
pos = (321,0);
},
{
name = top;
pos = (321,700);
}
);
layerId = "00D75E95-6BF0-4E41-A2AB-01FED608A441";
shapes = (
{
closed = 1;
nodes = (
(361,700,ls),
(444,700,o),
(545,593,o),
(545,507,qs),
(545,411,o),
(444,291,o),
(361,291,q),
(118,291,l),
(132,300,l),
(132,0,l),
(110,0,l),
(110,700,l)
);
},
{
closed = 1;
nodes = (
(367,313,ls),
(437,313,o),
(522,421,o),
(522,507,qs),
(522,582,o),
(437,678,o),
(367,678,q),
(119,678,l),
(132,690,l),
(132,305,l),
(117,313,l)
);
}
);
userData = {
com.schriftgestaltung.Glyphs.glyph.leftMetricsKey = H;
};
width = 600;
}
);
note = P;
unicode = 80;
},
{
color = (151,255,122,255);
glyphname = Thorn;
kernLeft = H;
kernRight = P;
lastChange = "2021-02-17 09:17:51 +0000";
layers = (
{
anchors = (
{
name = bottom;
pos = (295,0);
},
{
name = top;
pos = (295,700);
}
);
associatedMasterId = "10E6B24D-63A8-414A-9CC7-A409B0282D48";
layerId = master01;
shapes = (
{
closed = 1;
nodes = (
(286,700,l),
(286,0,l),
(70,0,l),
(70,700,l)
);
},
{
closed = 1;
nodes = (
(199,292,l),
(345,292,ls),
(374,292,o),
(411,325,o),
(411,356,qs),
(411,387,o),
(374,416,o),
(345,416,qs),
(199,416,l),
(199,600,l),
(385,600,ls),
(493,600,o),
(633,465,o),
(633,360,qs),
(633,250,o),
(493,108,o),
(385,108,q),
(200,108,l)
);
}
);
userData = {
com.schriftgestaltung.Glyphs.glyph.leftMetricsKey = H;
com.schriftgestaltung.Glyphs.glyph.rightMetricsKey = P;
};
width = 673;
},
{
anchors = (
{
name = bottom;
pos = (295,0);
},
{
name = top;
pos = (295,700);
}
);
layerId = "10E6B24D-63A8-414A-9CC7-A409B0282D48";
shapes = (
{
closed = 1;
nodes = (
(206,700,l),
(206,0,l),
(98,0,l),
(98,700,l)
);
},
{
closed = 1;
nodes = (
(197,245,l),
(381,245,ls),
(421,245,o),
(479,312,o),
(479,358,qs),
(479,404,o),
(421,469,o),
(381,469,q),
(147,469,l),
(118,573,l),
(383,573,ls),
(468,573,o),
(589,448,o),
(589,358,qs),
(589,268,o),
(468,141,o),
(383,141,q),
(198,141,l)
);
}
);
userData = {
com.schriftgestaltung.Glyphs.glyph.leftMetricsKey = H;
com.schriftgestaltung.Glyphs.glyph.rightMetricsKey = P;
};
width = 634;
},
{
anchors = (
{
name = bottom;
pos = (295,0);
},
{
name = top;
pos = (295,700);
}
);
layerId = "00D75E95-6BF0-4E41-A2AB-01FED608A441";
shapes = (
{
closed = 1;
nodes = (
(132,700,l),
(132,0,l),
(110,0,l),
(110,700,l)
);
},
{
closed = 1;
nodes = (
(122,193,l),
(327,193,ls),
(404,193,o),
(489,294,o),
(489,358,q),
(489,430,o),
(407,521,o),
(327,521,q),
(122,521,l),
(122,543,l),
(329,543,l),
(409,543,o),
(511,442,o),
(511,358,qs),
(511,280,o),
(408,171,o),
(328,171,q),
(122,171,l)
);
}
);
userData = {
com.schriftgestaltung.Glyphs.glyph.leftMetricsKey = H;
com.schriftgestaltung.Glyphs.glyph.rightMetricsKey = P;
};
width = 566;
}
);
note = Thorn;
unicode = 222;
},
{
glyphname = Q;
kernLeft = C;
kernRight = D;
lastChange = "2021-02-17 09:17:51 +0000";
layers = (
{
anchors = (
{
name = bottom;
pos = (387,0);
},
{
name = top;
pos = (387,700);
}
);
associatedMasterId = "10E6B24D-63A8-414A-9CC7-A409B0282D48";
layerId = master01;
shapes = (
{
closed = 1;
nodes = (
(582,720,o),
(794,514,o),
(794,355,q),
(794,196,o),
(582,-3,o),
(417,-3,q),
(252,-3,o),
(40,196,o),
(40,355,q),
(40,514,o),
(252,720,o),
(417,720,q)
);
},
{
closed = 1;
nodes = (
(486,184,o),
(575,283,o),
(575,358,q),
(575,430,o),
(486,522,o),
(417,522,qs),
(348,522,o),
(259,430,o),
(259,358,q),
(259,283,o),
(348,184,o),
(417,184,qs)
);
},
{
closed = 1;
nodes = (
(765,1,l),
(617,-110,l),
(347,264,l),
(498,372,l)
);
}
);
userData = {
com.schriftgestaltung.Glyphs.glyph.leftMetricsKey = O;
com.schriftgestaltung.Glyphs.glyph.rightMetricsKey = O;
};
width = 834;
},
{
anchors = (
{
name = bottom;
pos = (387,0);
},
{
name = top;
pos = (387,700);
}
);
layerId = "10E6B24D-63A8-414A-9CC7-A409B0282D48";
shapes = (
{
closed = 1;
nodes = (
(539,710,o),
(734,504,o),
(734,350,q),
(734,196,o),
(539,-10,o),
(391,-10,q),
(243,-10,o),
(48,195,o),
(48,350,q),
(48,505,o),
(243,710,o),
(391,710,q)
);
},
{
closed = 1;
nodes = (
(492,95,o),
(624,240,o),
(624,350,q),
(624,460,o),
(492,605,o),
(391,605,qs),
(289,605,o),
(158,461,o),
(158,350,q),
(158,239,o),
(289,95,o),
(391,95,qs)
);
},
{
closed = 1;
nodes = (
(699,-48,l),
(613,-110,l),
(348,237,l),
(437,296,l)
);
}
);
userData = {
com.schriftgestaltung.Glyphs.glyph.leftMetricsKey = O;
com.schriftgestaltung.Glyphs.glyph.rightMetricsKey = O;
};
width = 782;
},
{
anchors = (
{
name = bottom;
pos = (387,0);
},
{
name = top;
pos = (387,700);
}
);
layerId = "00D75E95-6BF0-4E41-A2AB-01FED608A441";
shapes = (
{
closed = 1;
nodes = (
(550,710,o),
(743,508,o),
(743,349,q),
(743,191,o),
(550,-10,o),
(399,-10,q),
(248,-10,o),
(55,191,o),
(55,349,q),
(55,507,o),
(248,710,o),
(399,710,q)
);
},
{
closed = 1;
nodes = (
(539,12,o),
(720,202,o),
(720,349,q),
(720,496,o),
(539,688,o),
(399,688,qs),
(260,688,o),
(78,496,o),
(78,349,q),
(78,202,o),
(260,12,o),
(399,12,qs)
);
},
{
closed = 1;
nodes = (
(669,-65,l),
(652,-78,l),
(398,260,l),
(416,272,l)
);
}
);
userData = {
com.schriftgestaltung.Glyphs.glyph.leftMetricsKey = O;
com.schriftgestaltung.Glyphs.glyph.rightMetricsKey = O;
};
width = 798;
}
);
note = Q;
unicode = 81;
},
{
glyphname = R;
kernLeft = H;
kernRight = R;
lastChange = "2021-02-17 09:17:51 +0000";
layers = (
{
anchors = (
{
name = bottom;
pos = (346,0);
},
{
name = top;
pos = (306,700);
}
);
associatedMasterId = "10E6B24D-63A8-414A-9CC7-A409B0282D48";
layerId = master01;
shapes = (
{
closed = 1;
nodes = (
(649,368,o),
(508,233,o),
(398,233,q),
(195,233,l),
(195,383,l),
(364,383,ls),
(401,383,o),
(439,424,o),
(439,460,qs),
(439,493,o),
(400,530,o),
(360,530,qs),
(198,530,l),
(272,630,l),
(272,0,l),
(70,0,l),
(70,700,l),
(398,700,l),
(508,700,o),
(649,574,o),
(649,477,qs)
);
},
{
closed = 1;
nodes = (
(480,341,l),
(678,0,l),
(437,0,l),
(259,316,l)
);
}
);
userData = {
com.schriftgestaltung.Glyphs.glyph.leftMetricsKey = H;
};
width = 697;
},
{
anchors = (
{
name = bottom;
pos = (365,0);
},
{
name = top;
pos = (325,700);
}
);
layerId = "10E6B24D-63A8-414A-9CC7-A409B0282D48";
shapes = (
{
closed = 1;
nodes = (
(617,391,o),
(487,263,o),
(396,263,q),
(193,263,l),
(193,367,l),
(406,367,l),
(450,367,o),
(507,431,o),
(507,478,q),
(507,530,o),
(434,596,o),
(378,596,q),
(196,596,l),
(206,630,l),
(206,0,l),
(98,0,l),
(98,700,l),
(396,700,l),
(486,700,o),
(617,572,o),
(617,477,q)
);
},
{
closed = 1;
nodes = (
(447,341,l),
(645,-1,l),
(514,0,l),
(336,316,l)
);
}
);
userData = {
com.schriftgestaltung.Glyphs.glyph.leftMetricsKey = H;
};
width = 695;
},
{
anchors = (
{
name = bottom;
pos = (338,0);
},
{
name = top;
pos = (298,700);
}
);
layerId = "00D75E95-6BF0-4E41-A2AB-01FED608A441";
shapes = (
{
closed = 1;
nodes = (
(545,411,o),
(444,291,o),
(361,291,q),
(121,291,l),
(121,313,l),
(367,313,ls),
(437,313,o),
(522,421,o),
(522,507,qs),
(522,582,o),
(437,678,o),
(367,678,q),
(119,678,l),
(132,690,l),
(132,0,l),
(110,0,l),
(110,700,l),
(361,700,ls),
(444,700,o),
(545,593,o),
(545,507,qs)
);
},
{
closed = 1;
nodes = (
(391,305,l),
(569,0,l),
(543,0,l),
(368,298,l)
);
}
);
userData = {
com.schriftgestaltung.Glyphs.glyph.leftMetricsKey = H;
};
width = 609;
}
);
note = R;
unicode = 82;
},
{
glyphname = S;
kernLeft = S;
kernRight = S;
lastChange = "2021-02-17 09:17:51 +0000";
layers = (
{
anchors = (
{
name = bottom;
pos = (321,0);
},
{
name = top;
pos = (321,700);
}
);
associatedMasterId = "10E6B24D-63A8-414A-9CC7-A409B0282D48";
background = {
anchors = (
{
name = bottom;
pos = (328,0);
},
{
name = top;
pos = (328,700);
}
);
shapes = (
{
closed = 1;
nodes = (
(140,254,l),
(181,195,o),
(282,145,o),
(323,145,qs),
(353,145,o),
(392,170,o),
(392,194,qs),
(392,220,o),
(349,252,o),
(300,261,qs),
(176,285,o),
(64,402,o),
(64,500,qs),
(64,596,o),
(220,720,o),
(340,720,qs),
(429,720,o),
(561,659,o),
(595,602,q),
(478,487,l),
(447,531,o),
(376,578,o),
(340,578,qs),
(313,578,o),
(278,550,o),
(278,524,qs),
(278,501,o),
(316,472,o),
(352,465,qs),
(486,441,o),
(606,319,o),
(606,232,qs),
(606,108,o),
(445,-10,o),
(321,-10,qs),
(232,-10,o),
(85,64,o),
(37,133,q)
);
}
);
};
guides = (
{
angle = 90;
name = center;
pos = (320.5,0);
userData = {
UFO.identifier = WHpN6R0SV4;
};
}
);
layerId = master01;
shapes = (
{
closed = 1;
nodes = (
(123,272,l),
(173,208,o),
(282,167,o),
(330,167,q),
(359,167,o),
(395,182.857,o),
(395,204,q),
(395,229.188,o),
(336.896,251.025,o),
(274,266,qs),
(153,294,o),
(35,402,o),
(35,493,qs),
(35,596,o),
(208,720,o),
(316,720,qs),
(434,720,o),
(560,655,o),
(599,601,q),
(473,480,l),
(440.285,511.692,o),
(364.543,541,o),
(327,541,q),
(292.81,541,o),
(254,525,o),
(254,506,qs),
(254,490,o),
(296,467,o),
(359,455,qs),
(469,434,o),
(612,333,o),
(612,224,qs),
(612,109,o),
(445,-10,o),
(325,-10,qs),
(206,-10,o),
(52,67,o),
(-2,132,q)
);
}
);
width = 641;
},
{
anchors = (
{
name = bottom;
pos = (321,0);
},
{
name = top;
pos = (321,700);
}
);
layerId = "10E6B24D-63A8-414A-9CC7-A409B0282D48";
shapes = (
{
closed = 1;
nodes = (
(124,211,l),
(173,141,o),
(263,87,o),
(325,87,qs),
(382,87,o),
(461,139,o),
(461,180,qs),
(461,226,o),
(383,285,o),
(299,301,qs),
(191,322,o),
(85,428,o),
(85,514,q),
(85,599,o),
(224,710,o),
(326,710,q),
(407,710,o),
(528,647,o),
(563,587,q),
(487,512,l),
(457,561,o),
(374,613,o),
(323,613,q),
(265,613,o),
(193,560,o),
(193,517,q),
(193,474,o),
(258,421,o),
(337,405,qs),
(447,382,o),
(569,280,o),
(569,208,qs),
(569,108,o),
(432,-10,o),
(314,-10,qs),
(228,-10,o),
(97,58,o),
(50,126,q)
);
}
);
width = 624;
},
{
anchors = (
{
name = bottom;
pos = (293,0);
},
{
name = top;
pos = (293,700);
}
);
layerId = "00D75E95-6BF0-4E41-A2AB-01FED608A441";
shapes = (
{
closed = 1;
nodes = (
(61,131,l),
(99,72,o),
(221,12,o),
(303,12,qs),
(387,12,o),
(504,102,o),
(504,172,qs),
(504,244,o),
(370,312,o),
(264,342,qs),
(169.798,368.056,o),
(65,450.961,o),
(65,526,q),
(65,604.857,o),
(196,710,o),
(292,710,q),
(373,710,o),
(477,658,o),
(511,611,q),
(494,596,l),
(461,640,o),
(366,688,o),
(292,688,q),
(206,688,o),
(88,597,o),
(88,526,q),
(88,458,o),
(188,385,o),
(272,363,q),
(391,333,o),
(527,251,o),
(527,172,q),
(527,94,o),
(398,-10,o),
(303,-10,qs),
(214,-10,o),
(83,55,o),
(43,115,q)
);
}
);
width = 567;
}
);
note = S;
unicode = 83;
},
{
color = (151,255,122,255);
glyphname = Germandbls;
kernRight = S;
lastChange = "2021-02-17 09:17:51 +0000";
layers = (
{
associatedMasterId = "10E6B24D-63A8-414A-9CC7-A409B0282D48";
layerId = master01;
shapes = (
{
closed = 1;
nodes = (
(658,515,o),
(577,471,o),
(577,453,q),
(577,434,o),
(620,400,o),
(659,380,qs),
(693,363,o),
(742,331,o),
(759,314,qs),
(780,292,o),
(799,238,o),
(799,199,q),
(799,112,o),
(638,-10,o),
(526,-10,q),
(455,-10,o),
(338,35,o),
(307,75,q),
(416,205,l),
(443,181,o),
(492,157,o),
(518,157,q),
(539,157,o),
(564,183,o),
(564,203,qs),
(564,217,o),
(549,240,o),
(527,254,qs),
(518,260,o),
(487,276,o),
(461,291,qs),
(403,324,o),
(360,385,o),
(360,430,q),
(360,494,o),
(495,584,o),
(566,584,q),
(623,545,l),
(593,556,o),
(500,572,o),
(459,572,q),
(375,573,o),
(277,450,o),
(276,343,q),
(276,0,l),
(60,0,l),
(60,350,ls),
(60,519,o),
(275,726,o),
(451,726,qs),
(520,726,o),
(651,706,o),
(708,682,q),
(708,529,l)
);
}
);
userData = {
com.schriftgestaltung.Glyphs.glyph.leftMetricsKey = H;
com.schriftgestaltung.Glyphs.glyph.rightMetricsKey = S;
};
width = 829;
},
{
layerId = "10E6B24D-63A8-414A-9CC7-A409B0282D48";
shapes = (
{
closed = 1;
nodes = (
(547,594,o),
(445,529,o),
(445,486,qs),
(445,456,o),
(495,405,o),
(545,384,qs),
(598,362,o),
(646,332,o),
(663,313,qs),
(685,289,o),
(707,225,o),
(707,184,qs),
(707,105,o),
(578,-10,o),
(490,-10,qs),
(432,-10,o),
(325,36,o),
(295,75,q),
(362,155,l),
(387,125,o),
(457,87,o),
(489,87,qs),
(541,87,o),
(602,132,o),
(602,171,qs),
(602,195,o),
(579,232,o),
(555,248,qs),
(549,252,o),
(506,274,o),
(469,291,qs),
(396,326,o),
(338,404,o),
(338,460,qs),
(338,538,o),
(450,635,o),
(541,643,q),
(591,605,l),
(559,617,o),
(460,632,o),
(417,632,q),
(322,634,o),
(209,478,o),
(208,343,q),
(206,1,l),
(98,1,l),
(99,350,ls),
(100,519,o),
(268,726,o),
(407,726,qs),
(469,726,o),
(585,704,o),
(636,682,q),
(641,609,l)
);
}
);
userData = {
com.schriftgestaltung.Glyphs.glyph.leftMetricsKey = H;
com.schriftgestaltung.Glyphs.glyph.rightMetricsKey = S;
};
width = 762;
},
{
layerId = "00D75E95-6BF0-4E41-A2AB-01FED608A441";
shapes = (
{
closed = 1;
nodes = (
(502,596,o),
(390,532,o),
(390,486,q),
(390,453,o),
(438,408,o),
(489,384,qs),
(512,373,o),
(561,349,o),
(577,340,qs),
(632,309,o),
(663,230,o),
(663,188,q),
(663,90,o),
(539,-10,o),
(436,-10,qs),
(378,-10,o),
(272,38,o),
(241,78,q),
(258,93,l),
(294,52,o),
(388,12,o),
(437,12,q),
(530,12,o),
(640,103,o),
(640,183,q),
(640,235,o),
(599,305,o),
(557,326,qs),
(533,338,o),
(480,364,o),
(450,378,qs),
(405,400,o),
(368,450,o),
(368,485,q),
(368,544,o),
(491,613,o),
(586,625,q),
(586,620,l),
(552.916,645.522,o),
(451,688,o),
(381,688,q),
(246.344,688,o),
(129,553,o),
(129,391,q),
(129,0,l),
(106,0,l),
(106,402,l),
(106,557,o),
(232.42,710,o),
(382,710,q),
(455,710,o),
(561.867,667.366,o),
(600,634,q),
(602,609,l)
);
}
);
userData = {
com.schriftgestaltung.Glyphs.glyph.leftMetricsKey = H;
com.schriftgestaltung.Glyphs.glyph.rightMetricsKey = S;
};
width = 725;
}
);
unicode = 7838;
},
{
color = (151,255,122,255);
glyphname = Schwa;
kernLeft = O;
kernRight = O;
lastChange = "2021-02-17 09:17:51 +0000";
layers = (
{
associatedMasterId = "10E6B24D-63A8-414A-9CC7-A409B0282D48";
layerId = master01;
shapes = (
{
closed = 1;
nodes = (
(724,201,o),
(523,-10,o),
(382,-10,qs),
(246,-10,o),
(47,174,o),
(40,313,q),
(40,427,l),
(678,427,l),
(687,261,l),
(274,261,l),
(291,225,o),
(351,190,o),
(382,190,qs),
(435,190,o),
(504,268,o),
(504,351,qs),
(504,424,o),
(424,510,o),
(359,510,q),
(303,510,o),
(226,483,o),
(178,450,q),
(101,621,l),
(173,668,o),
(290,710,o),
(379,710,q),
(521,710,o),
(724,499,o),
(724,350,qs)
);
}
);
userData = {
com.schriftgestaltung.Glyphs.glyph.leftMetricsKey = O;
com.schriftgestaltung.Glyphs.glyph.rightMetricsKey = O;
};
width = 764;
},
{
layerId = "10E6B24D-63A8-414A-9CC7-A409B0282D48";
shapes = (
{
closed = 1;
nodes = (
(732,201,o),
(531,-10,o),
(390,-10,qs),
(254,-10,o),
(55,174,o),
(48,313,q),
(48,393,l),
(686,393,l),
(695,296,l),
(152,296,l),
(167,206,o),
(303,87,o),
(390,87,qs),
(494,87,o),
(629,233,o),
(629,351,qs),
(629,472,o),
(496,613,o),
(387,613,qs),
(324,613,o),
(226,575,o),
(184,536,q),
(116,606,l),
(171,660,o),
(300,710,o),
(387,710,qs),
(529,710,o),
(732,499,o),
(732,350,qs)
);
}
);
userData = {
com.schriftgestaltung.Glyphs.glyph.leftMetricsKey = O;
com.schriftgestaltung.Glyphs.glyph.rightMetricsKey = O;
};
width = 780;
},
{
layerId = "00D75E95-6BF0-4E41-A2AB-01FED608A441";
shapes = (
{
closed = 1;
nodes = (
(740,189,o),
(542,-10,o),
(395,-10,q),
(245,-10,o),
(52,199,o),
(55,353,q),
(55,365,l),
(728,365,l),
(728,343,l),
(77,343,l),
(77,206,o),
(251,12,o),
(396,12,q),
(533,12,o),
(717,202,o),
(717,348,q),
(717,494,o),
(518,688,o),
(370,688,q),
(305,688,o),
(186,634,o),
(143,593,q),
(128,609,l),
(172,653,o),
(304,710,o),
(372,710,q),
(529,710,o),
(740,501,o),
(740,344,q)
);
}
);
userData = {
com.schriftgestaltung.Glyphs.glyph.leftMetricsKey = O;
com.schriftgestaltung.Glyphs.glyph.rightMetricsKey = O;
};
width = 795;
}
);
unicode = 399;
},
{
glyphname = T;
kernLeft = T;
kernRight = T;
lastChange = "2021-02-17 09:17:51 +0000";
layers = (
{
anchors = (
{
name = bottom;
pos = (355,1);
},
{
name = center;
pos = (364,351);
},
{
name = top;
pos = (355,701);
}
);
associatedMasterId = "10E6B24D-63A8-414A-9CC7-A409B0282D48";
guides = (
{
angle = 90;
name = center;
pos = (357,0);
userData = {
UFO.identifier = f2whSTnMXH;
};
}
);
layerId = master01;
shapes = (
{
closed = 1;
nodes = (
(246,0,l),
(246,651,l),
(462,651,l),
(462,0,l)
);
},
{
closed = 1;
nodes = (
(30,516,l),
(30,700,l),
(684,700,l),
(684,516,l)
);
}
);
width = 714;
},
{
anchors = (
{
name = bottom;
pos = (288,0);
},
{
name = center;
pos = (288,350);
},
{
name = top;
pos = (288,700);
}
);
layerId = "10E6B24D-63A8-414A-9CC7-A409B0282D48";
shapes = (
{
closed = 1;
nodes = (
(231,0,l),
(231,651,l),
(339,651,l),
(339,0,l)
);
},
{
closed = 1;
nodes = (
(35,596,l),
(35,700,l),
(541,700,l),
(541,596,l)
);
}
);
width = 576;
},
{
anchors = (
{
name = bottom;
pos = (244,0);
},
{
name = center;
pos = (243,350);
},
{
name = top;
pos = (243,700);
}
);
layerId = "00D75E95-6BF0-4E41-A2AB-01FED608A441";
shapes = (
{
closed = 1;
nodes = (
(233,0,l),
(233,688,l),
(255,688,l),
(255,0,l)
);
},
{
closed = 1;
nodes = (
(20,678,l),
(20,700,l),
(468,700,l),
(468,678,l)
);
}
);
width = 488;
}
);
note = T;
unicode = 84;
},
{
glyphname = U;
kernLeft = U;
kernRight = U;
lastChange = "2021-02-17 09:17:51 +0000";
layers = (
{
anchors = (
{
name = bottom;
pos = (399,0);
},
{
name = ogonek;
pos = (507,10);
},
{
name = top;
pos = (399,700);
},
{
name = topright;
pos = (592,668);
}
);
associatedMasterId = "10E6B24D-63A8-414A-9CC7-A409B0282D48";
layerId = master01;
shapes = (
{
closed = 1;
nodes = (
(704,700,l),
(704,269,l),
(704,149,o),
(528,-6,o),
(392,-6,q),
(256,-6,o),
(80,149,o),
(80,269,q),
(80,700,l),
(298,700,l),
(298,278,l),
(298,234,o),
(351,178,o),
(392,178,qs),
(435,178,o),
(491,234,o),
(491,278,q),
(491,700,l)
);
}
);
width = 784;
},
{
anchors = (
{
name = bottom;
pos = (370,0);
},
{
name = ogonek;
pos = (653,10);
},
{
name = top;
pos = (370,700);
},
{
name = topright;
pos = (512,708);
}
);
layerId = "10E6B24D-63A8-414A-9CC7-A409B0282D48";
shapes = (
{
closed = 1;
nodes = (
(652,701,l),
(652,269,l),
(652,150,o),
(492,-6,o),
(370,-6,q),
(248,-6,o),
(88,150,o),
(88,269,q),
(88,701,l),
(196,701,l),
(196,278,l),
(196,202,o),
(299,98,o),
(370,98,q),
(445,98,o),
(549,202,o),
(549,278,q),
(549,701,l)
);
}
);
width = 740;
},
{
anchors = (
{
name = bottom;
pos = (368,0);
},
{
name = ogonek;
pos = (490,10);
},
{
name = top;
pos = (368,700);
},
{
name = topright;
pos = (588,684);
}
);
layerId = "00D75E95-6BF0-4E41-A2AB-01FED608A441";
shapes = (
{
closed = 1;
nodes = (
(634,700,l),
(634,269,l),
(634,149,o),
(484,-6,o),
(368,-6,q),
(255,-6,o),
(111,149,o),
(110,269,q),
(110,700,l),
(132,700,l),
(132,278,l),
(132,163,o),
(263,16,o),
(368,16,q),
(476,16,o),
(612,163,o),
(612,278,q),
(612,700,l)
);
}
);
width = 744;
}
);
note = U;
unicode = 85;
},
{
glyphname = V;
kernLeft = V;
kernRight = V;
lastChange = "2021-02-17 09:17:51 +0000";
layers = (
{
anchors = (
{
name = bottom;
pos = (358,0);
},
{
name = top;
pos = (358,700);
}
);
associatedMasterId = "10E6B24D-63A8-414A-9CC7-A409B0282D48";
layerId = master01;
shapes = (
{
closed = 1;
nodes = (
(-10,700,l),
(206,700,l),
(318,394,ls),
(341,332,o),
(361,267,o),
(375,204,q),
(340,204,l),
(355,267,o),
(376,332,o),
(399,394,qs),
(511,700,l),
(720,700,l),
(439,0,l),
(269,0,l)
);
}
);
width = 710;
},
{
anchors = (
{
name = bottom;
pos = (357,0);
},
{
name = top;
pos = (357,700);
}
);
layerId = "10E6B24D-63A8-414A-9CC7-A409B0282D48";
shapes = (
{
closed = 1;
nodes = (
(24,700,l),
(147,700,l),
(314,275,l),
(338,213,o),
(366,134,o),
(377,99,q),
(351,98,l),
(361,134,o),
(388,216,o),
(410,275,q),
(565,700,l),
(691,700,l),
(409,0,l),
(304,0,l)
);
}
);
width = 715;
},
{
anchors = (
{
name = bottom;
pos = (301,1);
},
{
name = top;
pos = (301,701);
}
);
guides = (
{
pos = (790,35);
}
);
layerId = "00D75E95-6BF0-4E41-A2AB-01FED608A441";
shapes = (
{
closed = 1;
nodes = (
(20,700,l),
(46,700,l),
(235,201,ls),
(260.742,133.035,o),
(303.819,18.453,o),
(308,8,q),
(295,8,l),
(298.147,18.488,o),
(342.554,129.297,o),
(370,202,qs),
(558,700,l),
(584,700,l),
(315,0,l),
(288,0,l)
);
}
);
width = 604;
}
);
note = V;
unicode = 86;
},
{
glyphname = W;
kernLeft = W;
kernRight = W;
lastChange = "2021-02-17 09:17:51 +0000";
layers = (
{
anchors = (
{
name = bottom;
pos = (490,0);
},
{
name = top;
pos = (490,700);
}
);
associatedMasterId = "10E6B24D-63A8-414A-9CC7-A409B0282D48";
guides = (
{
angle = 90;
pos = (495,0);
userData = {
UFO.identifier = v3hklyuW50;
};
}
);
layerId = master01;
shapes = (
{
closed = 1;
nodes = (
(-10,700,l),
(206,700,l),
(288,384,ls),
(304,322,o),
(316,222,o),
(316,194,q),
(300,194,l),
(300,232,o),
(308,323,o),
(329,384,qs),
(416,631,l),
(581,631,l),
(668,384,ls),
(689,324,o),
(705,233,o),
(705,194,q),
(690,194,l),
(690,223,o),
(693,322,o),
(709,384,qs),
(791,700,l),
(1000,700,l),
(799,0,l),
(629,0,l),
(477,377,l),
(504,377,l),
(369,0,l),
(189,0,l)
);
}
);
userData = {
com.schriftgestaltung.Glyphs.glyph.leftMetricsKey = V;
com.schriftgestaltung.Glyphs.glyph.rightMetricsKey = V;
};
width = 990;
},
{
anchors = (
{
name = bottom;
pos = (497,0);
},
{
name = top;
pos = (497,700);
}
);
layerId = "10E6B24D-63A8-414A-9CC7-A409B0282D48";
shapes = (
{
closed = 1;
nodes = (
(24,700,l),
(139,700,l),
(274,262,ls),
(284.629,230.113,o),
(303.408,129.666,o),
(308,109,q),
(279,110,l),
(285.973,133.243,o),
(312.714,231.408,o),
(325,263,q),
(451,579,l),
(548,579,l),
(670,263,ls),
(679,241,o),
(693,199,o),
(714,119,q),
(688,112,l),
(704,197,o),
(716,241,o),
(723,265,q),
(856,700,l),
(972,700,l),
(749,0,l),
(674,0,l),
(489,438,l),
(498,434,l),
(320,0,l),
(247,0,l)
);
}
);
userData = {
com.schriftgestaltung.Glyphs.glyph.leftMetricsKey = V;
com.schriftgestaltung.Glyphs.glyph.rightMetricsKey = V;
};
width = 996;
},
{
anchors = (
{
name = bottom;
pos = (424,0);
},
{
name = top;
pos = (424,700);
}
);
layerId = "00D75E95-6BF0-4E41-A2AB-01FED608A441";
shapes = (
{
closed = 1;
nodes = (
(20,700,l),
(44,700,l),
(186,193,ls),
(207,117,o),
(213,91,o),
(236,15,q),
(224,15,l),
(253.731,88.337,o),
(283.84,167.125,o),
(297,202,qs),
(417,520,l),
(432,520,l),
(551,202,ls),
(564.006,167.244,o),
(596,88,o),
(625,15,q),
(612,15,l),
(635,91,o),
(642,117,o),
(663,193,qs),
(805,700,l),
(829,700,l),
(633,0,l),
(607,0,l),
(415,499,l),
(434,499,l),
(242,0,l),
(216,0,l)
);
}
);
userData = {
com.schriftgestaltung.Glyphs.glyph.leftMetricsKey = V;
com.schriftgestaltung.Glyphs.glyph.rightMetricsKey = V;
};
width = 849;
}
);
note = W;
unicode = 87;
},
{
glyphname = X;
kernLeft = X;
kernRight = X;
lastChange = "2021-02-17 09:17:51 +0000";
layers = (
{
anchors = (
{
name = bottom;
pos = (359,1);
},
{
name = top;
pos = (359,701);
}
);
associatedMasterId = "10E6B24D-63A8-414A-9CC7-A409B0282D48";
layerId = master01;
shapes = (
{
closed = 1;
nodes = (
(729,700,l),
(472,325,l),
(284,401,l),
(480,700,l)
);
},
{
closed = 1;
nodes = (
(244,700,l),
(456,390,l),
(739,0,l),
(480,0,l),
(263,314,l),
(-15,700,l)
);
},
{
closed = 1;
nodes = (
(-20,0,l),
(247,381,l),
(436,302,l),
(229,0,l)
);
}
);
width = 719;
},
{
anchors = (
{
name = bottom;
pos = (341,0);
},
{
name = top;
pos = (341,700);
}
);
layerId = "10E6B24D-63A8-414A-9CC7-A409B0282D48";
shapes = (
{
closed = 1;
nodes = (
(651,700,l),
(394,325,l),
(328,401,l),
(524,700,l)
);
},
{
closed = 1;
nodes = (
(166,700,l),
(378,390,l),
(661,0,l),
(524,0,l),
(307,314,l),
(29,700,l)
);
},
{
closed = 1;
nodes = (
(24,0,l),
(291,381,l),
(358,302,l),
(151,0,l)
);
}
);
width = 685;
},
{
anchors = (
{
name = bottom;
pos = (289,0);
},
{
name = top;
pos = (289,700);
}
);
layerId = "00D75E95-6BF0-4E41-A2AB-01FED608A441";
shapes = (
{
closed = 1;
nodes = (
(552,700,l),
(299,352,l),
(282,365,l),
(524,700,l)
);
},
{
closed = 1;
nodes = (
(56,700,l),
(295,366,l),
(562,0,l),
(533,0,l),
(281,348,l),
(27,700,l)
);
},
{
closed = 1;
nodes = (
(22,0,l),
(281,363,l),
(297,350,l),
(50,0,l)
);
}
);
width = 584;
}
);
note = X;
unicode = 88;
},
{
glyphname = Y;
kernLeft = Y;
kernRight = Y;
lastChange = "2021-02-17 09:17:51 +0000";
layers = (
{
anchors = (
{
name = bottom;
pos = (368,-1);
},
{
name = top;
pos = (364,700);
},
{
name = topleft;
pos = (60,700);
}
);
associatedMasterId = "10E6B24D-63A8-414A-9CC7-A409B0282D48";
guides = (
{
angle = 90;
pos = (355,0);
userData = {
UFO.identifier = ASvTATGY8q;
};
}
);
layerId = master01;
shapes = (
{
closed = 1;
nodes = (
(730,700,l),
(459,289,l),
(474,357,l),
(474,0,l),
(256,0,l),
(256,349,l),
(263,300,l),
(-20,700,l),
(220,700,l),
(436,390,l),
(301,393,l),
(496,700,l)
);
}
);
width = 710;
},
{
anchors = (
{
name = bottom;
pos = (335,-1);
},
{
name = top;
pos = (331,700);
},
{
name = topleft;
pos = (60,700);
}
);
layerId = "10E6B24D-63A8-414A-9CC7-A409B0282D48";
shapes = (
{
closed = 1;
nodes = (
(650,700,l),
(379,289,l),
(394,357,l),
(394,0,l),
(286,0,l),
(286,349,l),
(293,300,l),
(10,700,l),
(140,700,l),
(356,390,l),
(331,393,l),
(526,700,l)
);
}
);
width = 660;
},
{
anchors = (
{
name = bottom;
pos = (300,-1);
},
{
name = top;
pos = (296,700);
},
{
name = topleft;
pos = (60,700);
}
);
layerId = "00D75E95-6BF0-4E41-A2AB-01FED608A441";
shapes = (
{
closed = 1;
nodes = (
(572,700,l),
(302,300,l),
(311,339,l),
(311,0,l),
(289,0,l),
(289,339,l),
(297,300,l),
(20,700,l),
(46,700,l),
(305,327,l),
(294,327,l),
(546,700,l)
);
}
);
width = 592;
}
);
note = Y;
unicode = 89;
},
{
glyphname = Z;
kernLeft = Z;
kernRight = Z;
lastChange = "2021-02-17 09:17:51 +0000";
layers = (
{
anchors = (
{
name = bottom;
pos = (366,0);
},
{
name = top;
pos = (366,700);
}
);
associatedMasterId = "10E6B24D-63A8-414A-9CC7-A409B0282D48";
guides = (
{
angle = 90;
pos = (350.5,0);
userData = {
UFO.identifier = ZSocnXlcut;
};
}
);
layerId = master01;
shapes = (
{
closed = 1;
nodes = (
(630,700,l),
(630,562,l),
(273,87,l),
(180,182,l),
(641,182,l),
(641,0,l),
(60,0,l),
(60,139,l),
(419,613,l),
(511,506,l),
(86,506,l),
(86,700,l)
);
}
);
width = 701;
},
{
anchors = (
{
name = bottom;
pos = (330,0);
},
{
name = top;
pos = (330,700);
}
);
layerId = "10E6B24D-63A8-414A-9CC7-A409B0282D48";
shapes = (
{
closed = 1;
nodes = (
(593,700,l),
(593,622,l),
(196,87,l),
(180,104,l),
(604,104,l),
(604,0,l),
(60,0,l),
(60,79,l),
(459,613,l),
(474,596,l),
(86,596,l),
(86,700,l)
);
}
);
width = 659;
},
{
anchors = (
{
name = bottom;
pos = (328,0);
},
{
name = top;
pos = (328,700);
}
);
layerId = "00D75E95-6BF0-4E41-A2AB-01FED608A441";
shapes = (
{
closed = 1;
nodes = (
(563,700,l),
(563,677.499,l),
(78,10,l),
(75,22,l),
(574,22,l),
(574,0,l),
(60,0,l),
(60,23.501,l),
(545,692,l),
(557,678,l),
(86,678,l),
(86,700,l)
);
}
);
width = 634;
}
);
note = Z;
unicode = 90;
},
{
glyphname = I.ss01;
lastChange = "2021-02-17 09:17:51 +0000";
layers = (
{
anchors = (
{
name = bottom;
pos = (193,0);
},
{
name = ogonek;
pos = (224,10);
},
{
name = top;
pos = (193,700);
},
{
name = topleft;
pos = (100,700);
}
);
associatedMasterId = "10E6B24D-63A8-414A-9CC7-A409B0282D48";
layerId = master01;
shapes = (
{
closed = 1;
nodes = (
(296,0,l),
(80,0,l),
(80,700,l),
(134,700,o),
(242,700,o),
(296,700,q)
);
}
);
width = 376;
},
{
anchors = (
{
name = bottom;
pos = (153,0);
},
{
name = ogonek;
pos = (343,10);
},
{
name = top;
pos = (153,700);
},
{
name = topleft;
pos = (100,700);
}
);
layerId = "10E6B24D-63A8-414A-9CC7-A409B0282D48";
shapes = (
{
closed = 1;
nodes = (
(208,0,l),
(100,0,l),
(100,700,l),
(127,700,o),
(181,700,o),
(208,700,q)
);
}
);
width = 308;
},
{
anchors = (
{
name = bottom;
pos = (153,0);
},
{
name = ogonek;
pos = (176,0);
},
{
name = top;
pos = (153,700);
},
{
name = topleft;
pos = (100,700);
}
);
layerId = "00D75E95-6BF0-4E41-A2AB-01FED608A441";
shapes = (
{
closed = 1;
nodes = (
(164.501,0,l),
(143.499,0,l),
(143.499,700,l),
(149.5,700,o),
(158.5,700,o),
(164.501,700,q)
);
}
);
width = 308;
}
);
note = I;
},
{
glyphname = J.ss01;
kernLeft = J;
kernRight = J;
lastChange = "2021-02-17 09:17:51 +0000";
layers = (
{
anchors = (
{
name = bottom;
pos = (310,0);
},
{
name = top;
pos = (426,700);
}
);
associatedMasterId = "10E6B24D-63A8-414A-9CC7-A409B0282D48";
layerId = master01;
shapes = (
{
closed = 1;
nodes = (
(360,-10,o),
(251,-10,qs),
(161,-10,o),
(46,53,o),
(20,101,q),
(145,227,l),
(161,203,o),
(201,174,o),
(227,174,qs),
(251,174,o),
(286,206,o),
(286,236,qs),
(286,700,l),
(494,700,l),
(494,213,ls),
(494,106,o)
);
}
);
userData = {
com.schriftgestaltung.Glyphs.glyph.rightMetricsKey = H;
};
width = 574;
},
{
anchors = (
{
name = bottom;
pos = (310,0);
},
{
name = top;
pos = (426,700);
}
);
layerId = "10E6B24D-63A8-414A-9CC7-A409B0282D48";
shapes = (
{
closed = 1;
nodes = (
(357,-10,o),
(256,-10,q),
(188,-10,o),
(79,60,o),
(50,117,q),
(118,188,l),
(161,129,o),
(219,95,o),
(256,95,qs),
(310,95,o),
(376,167,o),
(376,223,q),
(376,700,l),
(484,700,l),
(484,213,l),
(484,118,o)
);
}
);
userData = {
com.schriftgestaltung.Glyphs.glyph.rightMetricsKey = H;
};
width = 582;
},
{
anchors = (
{
name = bottom;
pos = (310,0);
},
{
name = top;
pos = (426,700);
}
);
layerId = "00D75E95-6BF0-4E41-A2AB-01FED608A441";
shapes = (
{
closed = 1;
nodes = (
(140,-10,o),
(44,60,o),
(20,120,q),
(36,135,l),
(64,72,o),
(151,12,o),
(211,12,q),
(286,12,o),
(381,107,o),
(381,213,q),
(381,700,l),
(403,700,l),
(403,213,l),
(403,97,o),
(294,-10,o),
(209,-10,q)
);
}
);
userData = {
com.schriftgestaltung.Glyphs.glyph.rightMetricsKey = H;
};
width = 559;
}
);
note = J;
},
{
glyphname = a;
kernLeft = c;
kernRight = a;
lastChange = "2021-02-17 09:17:51 +0000";
layers = (
{
anchors = (
{
name = bottom;
pos = (311,-20);
},
{
name = ogonek;
pos = (580,13);
},
{
name = top;
pos = (307,530);
}
);
associatedMasterId = "10E6B24D-63A8-414A-9CC7-A409B0282D48";
guides = (
{
angle = 90;
name = center;
pos = (339,652);
userData = {
UFO.identifier = w6FTMUqGjU;
};
}
);
layerId = master01;
shapes = (
{
closed = 1;
nodes = (
(609,535,l),
(609,0,l),
(405,0,l),
(405,131,l),
(450,127,l),
(429,69,o),
(333,-9,o),
(261,-9,q),
(161,-9,o),
(30,147,o),
(30,268,q),
(30,391,o),
(159,546,o),
(263,546,q),
(336,546,o),
(428,470,o),
(451,416,q),
(410,417,l),
(410,535,l)
);
},
{
closed = 1;
nodes = (
(229,214,o),
(276,156,o),
(319,156,q),
(363,156,o),
(410,214,o),
(410,268,q),
(410,322,o),
(363,381,o),
(319,381,q),
(276,381,o),
(229,322,o),
(229,268,q)
);
}
);
width = 679;
},
{
anchors = (
{
name = bottom;
pos = (311,-20);
},
{
name = ogonek;
pos = (560,3);
},
{
name = top;
pos = (307,530);
}
);
layerId = "10E6B24D-63A8-414A-9CC7-A409B0282D48";
shapes = (
{
closed = 1;
nodes = (
(561,525,l),
(561,0,l),
(457,0,l),
(457,125,l),
(481,132,l),
(469,78,o),
(350,-10,o),
(274,-10,q),
(176,-10,o),
(38,147,o),
(38,264,q),
(38,383,o),
(180,536,o),
(283,536,q),
(364,536,o),
(471,445,o),
(480,381,q),
(457,389,l),
(457,525,l)
);
},
{
closed = 1;
nodes = (
(143,186,o),
(232,85,o),
(301,85,q),
(371,85,o),
(461,186,o),
(461,264,q),
(461,341,o),
(371,441,o),
(301,441,q),
(232,441,o),
(143,341,o),
(143,264,q)
);
}
);
width = 633;
},
{
anchors = (
{
name = bottom;
pos = (311,-20);
},
{
name = ogonek;
pos = (557,13);
},
{
name = top;
pos = (307,530);
}
);
layerId = "00D75E95-6BF0-4E41-A2AB-01FED608A441";
shapes = (
{
closed = 1;
nodes = (
(532,525,l),
(532,0,l),
(510,0,l),
(510,172,l),
(519,175,l),
(501,94,o),
(377,-10,o),
(294,-10,q),
(184,-10,o),
(40,141,o),
(40,258,q),
(40,376,o),
(187,530,o),
(290,530,q),
(374,530,o),
(502,430,o),
(516,350,q),
(510,353,l),
(512,525,l)
);
},
{
closed = 1;
nodes = (
(63,152,o),
(191,12,o),
(294,12,q),
(386,12,o),
(511,150,o),
(511,260,q),
(511,368,o),
(386,508,o),
(292,508,q),
(191,508,o),
(63,367,o),
(63,258,q)
);
}
);
width = 602;
}
);
note = a;
unicode = 97;
},
{
color = (151,255,122,255);
glyphname = ae;
kernLeft = ae;
kernRight = ae;
lastChange = "2021-02-17 09:17:51 +0000";
layers = (
{
anchors = (
{
name = bottom;
pos = (410,0);
},
{
name = top;
pos = (452,515);
}
);
associatedMasterId = "10E6B24D-63A8-414A-9CC7-A409B0282D48";
layerId = master01;
shapes = (
{
closed = 1;
nodes = (
(398,546,o),
(514,454,o),
(514,352,q),
(514,242,l),
(338,242,l),
(338,315,l),
(338,355,o),
(302.533,382,o),
(262,382,q),
(226.353,382,o),
(181.267,358.414,o),
(161,327,q),
(46,440,l),
(80.25,485.33,o),
(214.313,546,o),
(300,546,q)
);
},
{
closed = 1;
nodes = (
(518,230,o),
(592.036,164,o),
(665,164,q),
(698,164,o),
(746,178,o),
(772,196,q),
(855,65,l),
(799,22,o),
(696,-10,o),
(642,-10,q),
(502,-10,o),
(343,147,o),
(343,268,q),
(343,389,o),
(496,546,o),
(614,546,q),
(730,546,o),
(870,389,o),
(870,268,q),
(869,217,l),
(281,217,ls),
(254,217,o),
(225,191.286,o),
(225,169,q),
(225,151.606,o),
(250,128,o),
(270,128,q),
(299,128,o),
(346,154,o),
(360,180,q),
(419,87,l),
(390,40,o),
(270,-10,o),
(206,-10,q),
(127.865,-10,o),
(23,77,o),
(23,149,q),
(23,228,o),
(144.521,309,o),
(264,309,q),
(694,309,l),
(689,301,l),
(689,319,l),
(689,348,o),
(651,383,o),
(618,383,q),
(569.111,383,o),
(518,330,o),
(518,284,q)
);
}
);
userData = {
com.schriftgestaltung.Glyphs.glyph.leftMetricsKey = a;
com.schriftgestaltung.Glyphs.glyph.rightMetricsKey = e;
};
width = 899;
},
{
anchors = (
{
name = bottom;
pos = (410,0);
},
{
name = top;
pos = (452,515);
}
);
layerId = "10E6B24D-63A8-414A-9CC7-A409B0282D48";
shapes = (
{
closed = 1;
nodes = (
(202,536,o),
(264,536,q),
(357,536,o),
(466,459,o),
(466,388,q),
(466,263,l),
(373,257,l),
(373,356,l),
(373,393,o),
(306,441,o),
(262,441,q),
(218,441,o),
(147,405,o),
(118,368,q),
(51,435,l),
(94,484,o)
);
},
{
closed = 1;
nodes = (
(466,185,o),
(574,84,o),
(654,84,qs),
(693,84,o),
(760,110,o),
(799,144,q),
(849,69,l),
(813,34,o),
(699,-10,o),
(644,-10,qs),
(523,-10,o),
(373,138,o),
(373,257,q),
(373,379,o),
(516,536,o),
(621,536,qs),
(723,535,o),
(859,391,o),
(859,281,q),
(858,237,l),
(261,237,ls),
(200,237,o),
(135,192,o),
(135,151,q),
(135,118,o),
(183,78,o),
(220,78,q),
(274,78,o),
(365,133,o),
(386,174,q),
(430,107,l),
(395,55,o),
(280,-10,o),
(216,-10,q),
(140,-10,o),
(38,77,o),
(38,149,q),
(38,233,o),
(158,320,o),
(274,319,q),
(769,319,l),
(754,302,l),
(754,326,l),
(749,375,o),
(672,441,o),
(621,441,q),
(546,441,o),
(466,351,o),
(466,264,q)
);
}
);
userData = {
com.schriftgestaltung.Glyphs.glyph.leftMetricsKey = a;
com.schriftgestaltung.Glyphs.glyph.rightMetricsKey = e;
};
width = 899;
},
{
anchors = (
{
name = bottom;
pos = (410,0);
},
{
name = top;
pos = (452,515);
}
);
layerId = "00D75E95-6BF0-4E41-A2AB-01FED608A441";
shapes = (
{
closed = 1;
nodes = (
(362,530,o),
(464,443,o),
(464,364,q),
(464,276,l),
(442,276,l),
(442,367,l),
(442,431,o),
(353,508,o),
(271,508,q),
(214,508,o),
(115,458,o),
(79,412,q),
(63,428,l),
(104,478,o),
(209,530,o),
(272,530,q)
);
},
{
closed = 1;
nodes = (
(465,153,o),
(596,12,o),
(699,12,q),
(751,12,o),
(839,50,o),
(874,83,q),
(886,65,l),
(849,31,o),
(756,-10,o),
(699,-10,q),
(585,-10,o),
(442,144,o),
(442,263,q),
(442,373,o),
(579,529,o),
(687,529,q),
(786,529,o),
(912,401,o),
(912,291,q),
(910,265,l),
(240,265,ls),
(155,265,o),
(62,205,o),
(62,149,q),
(62,88,o),
(155,12,o),
(219,12,q),
(297,12,o),
(425,96,o),
(459,165,q),
(472,146,l),
(436,76,o),
(302,-10,o),
(218,-10,q),
(142,-10,o),
(40,77,o),
(40,149,q),
(40,215,o),
(144,287,o),
(246,287,q),
(900,287,l),
(890,272,l),
(890,295,l),
(890,390,o),
(773,507,o),
(690,507,q),
(588,507,o),
(465,370,o),
(464,263,qs)
);
}
);
userData = {
com.schriftgestaltung.Glyphs.glyph.leftMetricsKey = a;
com.schriftgestaltung.Glyphs.glyph.rightMetricsKey = e;
};
width = 932;
}
);
note = ae;
unicode = 230;
},
{
glyphname = b;
kernLeft = b;
kernRight = b;
lastChange = "2021-02-17 09:17:51 +0000";
layers = (
{
anchors = (
{
name = bottom;
pos = (316,0);
},
{
name = top;
pos = (316,510);
}
);
associatedMasterId = "10E6B24D-63A8-414A-9CC7-A409B0282D48";
layerId = master01;
shapes = (
{
closed = 1;
nodes = (
(517.638,546,o),
(649,388,o),
(649,267,q),
(649,144,o),
(520,-11,o),
(421,-11,q),
(347,-11,o),
(238,57,o),
(228,109,q),
(269,118,l),
(253,0,l),
(70,0,l),
(70,740,l),
(274,740,l),
(274,404,l),
(229,418,l),
(242,473,o),
(348,546,o),
(416,546,q)
);
},
{
closed = 1;
nodes = (
(450,321,o),
(403,380,o),
(360,380,q),
(316,380,o),
(269,321,o),
(269,267,q),
(269,213,o),
(316,154,o),
(360,154,q),
(403,154,o),
(450,213,o),
(450,267,q)
);
}
);
userData = {
com.schriftgestaltung.Glyphs.glyph.leftMetricsKey = n;
com.schriftgestaltung.Glyphs.glyph.rightMetricsKey = o;
};
width = 679;
},
{
anchors = (
{
name = bottom;
pos = (316,0);
},
{
name = top;
pos = (316,510);
}
);
layerId = "10E6B24D-63A8-414A-9CC7-A409B0282D48";
shapes = (
{
closed = 1;
nodes = (
(281,536,o),
(345,536,q),
(451,536,o),
(590,383,o),
(590,264,q),
(590,146,o),
(452,-10,o),
(348,-10,q),
(279,-10,o),
(160,71,o),
(149,117,q),
(175,131,l),
(175,3,l),
(72,3,l),
(72,740,l),
(175,740,l),
(175,405,l),
(159,414,l),
(168,459,o)
);
},
{
closed = 1;
nodes = (
(491,341,o),
(401,442,o),
(331,442,q),
(261,442,o),
(170,341,o),
(170,264,q),
(170,186,o),
(261,84,o),
(331,84,q),
(400,84,o),
(491,186,o),
(491,264,q)
);
}
);
userData = {
com.schriftgestaltung.Glyphs.glyph.leftMetricsKey = n;
com.schriftgestaltung.Glyphs.glyph.rightMetricsKey = o;
};
width = 630;
},
{
anchors = (
{
name = bottom;
pos = (316,0);
},
{
name = top;
pos = (316,510);
}
);
layerId = "00D75E95-6BF0-4E41-A2AB-01FED608A441";
shapes = (
{
closed = 1;
nodes = (
(420,530,o),
(564,379,o),
(564,262,q),
(564,144,o),
(417,-10,o),
(314,-10,q),
(234,-10,o),
(102,93,o),
(88,170,q),
(94,167,l),
(92,0,l),
(72,0,l),
(72,740,l),
(94,740,l),
(94,348,l),
(85,345,l),
(105,426,o),
(229,530,o),
(310,530,q)
);
},
{
closed = 1;
nodes = (
(542,368,o),
(414,508,o),
(311,508,q),
(219,508,o),
(94,370,o),
(94,260,q),
(94,152,o),
(219,12,o),
(313,12,q),
(414,12,o),
(542,153,o),
(542,262,q)
);
}
);
userData = {
com.schriftgestaltung.Glyphs.glyph.leftMetricsKey = n;
com.schriftgestaltung.Glyphs.glyph.rightMetricsKey = o;
};
width = 604;
}
);
note = b;
unicode = 98;
},
{
glyphname = c;
kernLeft = c;
kernRight = c;
lastChange = "2021-02-17 09:17:51 +0000";
layers = (
{
anchors = (
{
name = bottom;
pos = (282,0);
},
{
name = top;
pos = (299,530);
}
);
associatedMasterId = "10E6B24D-63A8-414A-9CC7-A409B0282D48";
guides = (
{
angle = 90;
pos = (281.5,0);
userData = {
UFO.identifier = 6b89jOSx9H;
};
}
);
layerId = master01;
shapes = (
{
closed = 1;
nodes = (
(284,373,o),
(230,315,o),
(230,269,qs),
(230,224,o),
(282,164,o),
(329,164,q),
(366,164,o),
(416,187,o),
(433,206,q),
(542,75,l),
(505,34,o),
(383,-10,o),
(311,-10,q),
(189,-10,o),
(30,147,o),
(30,268,q),
(30,389,o),
(189,546,o),
(311,546,q),
(383,546,o),
(505,502,o),
(543,460,q),
(433,330,l),
(416,348,o),
(366,373,o),
(329,373,q)
);
}
);
userData = {
com.schriftgestaltung.Glyphs.glyph.leftMetricsKey = o;
};
width = 553;
},
{
anchors = (
{
name = bottom;
pos = (259,0);
},
{
name = top;
pos = (299,530);
}
);
layerId = "10E6B24D-63A8-414A-9CC7-A409B0282D48";
shapes = (
{
closed = 1;
nodes = (
(233,443,o),
(138,340,o),
(138,263,qs),
(138,187,o),
(237,83,o),
(306,83,q),
(346,83,o),
(421,124,o),
(453,163,q),
(510,93,l),
(478,48,o),
(359,-10,o),
(295,-10,q),
(186,-10,o),
(40,147,o),
(40,263,qs),
(40,379,o),
(186,536,o),
(295,536,q),
(365,536,o),
(480,479,o),
(510,430,q),
(453,360,l),
(429,395,o),
(344,443,o),
(305,443,qs)
);
}
);
userData = {
com.schriftgestaltung.Glyphs.glyph.leftMetricsKey = o;
};
width = 535;
},
{
anchors = (
{
name = bottom;
pos = (272,0);
},
{
name = top;
pos = (312,530);
}
);
layerId = "00D75E95-6BF0-4E41-A2AB-01FED608A441";
shapes = (
{
closed = 1;
nodes = (
(200,508,o),
(63.004,370.438,o),
(62,263,qs),
(63,153,o),
(199.87,12,o),
(306,12,q),
(361.611,12,o),
(454.842,54.818,o),
(488,93,q),
(504,77,l),
(467.835,36.817,o),
(368,-10,o),
(306,-10,q),
(189,-10,o),
(40,144,o),
(40,263,q),
(40,380.44,o),
(189,530,o),
(306,530,q),
(369,530,o),
(470.614,483.441,o),
(506,443,q),
(490,426,l),
(456.61,464.45,o),
(363,508,o),
(306,508,q)
);
}
);
userData = {
com.schriftgestaltung.Glyphs.glyph.leftMetricsKey = o;
};
width = 526;
}
);
note = c;
unicode = 99;
},
{
glyphname = d;
kernLeft = c;
kernRight = d;
lastChange = "2021-02-17 09:17:51 +0000";
layers = (
{
anchors = (
{
name = bottom;
pos = (321,-20);
},
{
name = center;
pos = (486,614);
},
{
name = top;
pos = (321,530);
},
{
name = topright;
pos = (705,700);
}
);
associatedMasterId = "10E6B24D-63A8-414A-9CC7-A409B0282D48";
layerId = master01;
shapes = (
{
closed = 1;
nodes = (
(609,740,l),
(609,0,l),
(426,0,l),
(410,118,l),
(451,109,l),
(441,57,o),
(332,-11,o),
(258,-11,q),
(159,-11,o),
(30,144,o),
(30,267,q),
(30,388,o),
(161,546,o),
(263,546,q),
(331,546,o),
(437,473,o),
(450,418,q),
(405,404,l),
(405,740,l)
);
},
{
closed = 1;
nodes = (
(229,213,o),
(276,154,o),
(319,154,q),
(363,154,o),
(410,213,o),
(410,267,q),
(410,321,o),
(363,380,o),
(319,380,q),
(276,380,o),
(229,321,o),
(229,267,q)
);
}
);
width = 669;
},
{
anchors = (
{
name = bottom;
pos = (321,-20);
},
{
name = center;
pos = (486,614);
},
{
name = top;
pos = (321,530);
},
{
name = topright;
pos = (608,510);
}
);
layerId = "10E6B24D-63A8-414A-9CC7-A409B0282D48";
shapes = (
{
closed = 1;
nodes = (
(564,740,l),
(564,0,l),
(461,0,l),
(461,125,l),
(481,125,l),
(481,78,o),
(364,-10,o),
(291,-10,q),
(183,-10,o),
(40,145,o),
(40,263,q),
(40,381,o),
(182,536,o),
(288,536,q),
(367,536,o),
(491,443,o),
(491,391,q),
(461,389,l),
(461,740,l)
);
},
{
closed = 1;
nodes = (
(145,183,o),
(235,79,o),
(305,79,q),
(375,79,o),
(465,183,o),
(465,263,q),
(465,343,o),
(375,447,o),
(305,447,q),
(235,447,o),
(145,343,o),
(145,263,q)
);
}
);
width = 634;
},
{
anchors = (
{
name = bottom;
pos = (321,-20);
},
{
name = center;
pos = (486,614);
},
{
name = top;
pos = (321,530);
},
{
name = topright;
pos = (608,700);
}
);
layerId = "00D75E95-6BF0-4E41-A2AB-01FED608A441";
shapes = (
{
closed = 1;
nodes = (
(532,740,l),
(532,0,l),
(510,0,l),
(510,172,l),
(519,175,l),
(499,94,o),
(375,-10,o),
(294,-10,q),
(184,-10,o),
(40,141,o),
(40,258,q),
(40,376,o),
(187,530,o),
(290,530,q),
(370,530,o),
(502,427,o),
(516,350,q),
(510,353,l),
(510,740,l)
);
},
{
closed = 1;
nodes = (
(62,152,o),
(190,12,o),
(293,12,q),
(385,12,o),
(510,150,o),
(510,260,q),
(510,368,o),
(385,508,o),
(291,508,q),
(190,508,o),
(62,367,o),
(62,258,q)
);
}
);
width = 604;
}
);
note = d;
unicode = 100;
},
{
color = (151,255,122,255);
glyphname = eth;
kernLeft = c;
lastChange = "2021-02-17 09:17:51 +0000";
layers = (
{
associatedMasterId = "10E6B24D-63A8-414A-9CC7-A409B0282D48";
layerId = master01;
shapes = (
{
closed = 1;
nodes = (
(584,159.552,o),
(431.91,-7,o),
(305,-7,q),
(180.903,-7,o),
(30,143,o),
(30,252,q),
(30,356,o),
(190,508,o),
(295,508,q),
(370,508,o),
(474,422,o),
(488,348,q),
(358,379,l),
(353,483,o),
(270,602,o),
(169,632,q),
(221,750,l),
(386.847,710.037,o),
(584,475.017,o),
(584,293,q)
);
},
{
closed = 1;
nodes = (
(217,218,o),
(269,159,o),
(307,159,q),
(345,159,o),
(397,218,o),
(397,262,q),
(397,304,o),
(345,362,o),
(307,362,q),
(269,362,o),
(217,305,o),
(217,262,q)
);
},
{
closed = 1;
nodes = (
(146,509,l),
(133,574,l),
(303,618,l),
(362,650,l),
(508,683,l),
(526,617,l),
(413,591,l),
(368,562,l)
);
}
);
userData = {
com.schriftgestaltung.Glyphs.glyph.leftMetricsKey = o;
com.schriftgestaltung.Glyphs.glyph.rightMetricsKey = o;
};
width = 614;
},
{
layerId = "10E6B24D-63A8-414A-9CC7-A409B0282D48";
shapes = (
{
closed = 1;
nodes = (
(534,153,o),
(395,-7,o),
(287,-7,q),
(184,-7,o),
(40,149,o),
(40,262,q),
(40,370,o),
(182,528,o),
(275,528,q),
(350,528,o),
(452,431,o),
(468,348,q),
(418,379,l),
(412,495,o),
(298,623,o),
(169,662,q),
(211,740,l),
(359,704,o),
(534,464,o),
(534,281,q)
);
},
{
closed = 1;
nodes = (
(137,189,o),
(224,89,o),
(287,89,q),
(350,89,o),
(437,189,o),
(437,262,q),
(437,333,o),
(350,432,o),
(287,432,q),
(224,432,o),
(137,334,o),
(137,262,q)
);
},
{
closed = 1;
nodes = (
(156,528,l),
(143,593,l),
(288,630,l),
(343,650,l),
(489,683,l),
(507,617,l),
(394,591,l),
(353,574,l)
);
}
);
userData = {
com.schriftgestaltung.Glyphs.glyph.leftMetricsKey = o;
com.schriftgestaltung.Glyphs.glyph.rightMetricsKey = o;
};
width = 574;
},
{
layerId = "00D75E95-6BF0-4E41-A2AB-01FED608A441";
shapes = (
{
closed = 1;
nodes = (
(536,143,o),
(396,-10,o),
(288,-10,q),
(178,-10,o),
(40,142,o),
(40,263,q),
(40,382,o),
(182,527,o),
(292,527,q),
(375,527,o),
(504,423,o),
(511,369,q),
(501,371,l),
(501,492,o),
(320,697,o),
(201,718,q),
(211,739,l),
(361,707,o),
(536,465,o),
(536,259,q)
);
},
{
closed = 1;
nodes = (
(63,153,o),
(189,12,o),
(288,12,q),
(387,12,o),
(513,153,o),
(513,263,qs),
(513,370,o),
(387,505,o),
(288,505,q),
(189,505,o),
(63,370,o),
(63,263,qs)
);
},
{
closed = 1;
nodes = (
(164,574,l),
(160,596,l),
(362,650,l),
(375,653,l),
(487,684,l),
(493,663,l),
(395,636,l),
(380,632,l)
);
}
);
userData = {
com.schriftgestaltung.Glyphs.glyph.leftMetricsKey = o;
com.schriftgestaltung.Glyphs.glyph.rightMetricsKey = o;
};
width = 574;
}
);
note = eth;
unicode = 240;
},
{
glyphname = e;
kernLeft = c;
kernRight = e;
lastChange = "2021-02-17 09:17:51 +0000";
layers = (
{
anchors = (
{
name = bottom;
pos = (292,-20);
},
{
name = ogonek;
pos = (425,10);
},
{
name = top;
pos = (293,530);
}
);
associatedMasterId = "10E6B24D-63A8-414A-9CC7-A409B0282D48";
guides = (
{
angle = 90;
name = center;
pos = (301,276);
userData = {
UFO.identifier = lowKfMc0wM;
};
}
);
layerId = master01;
shapes = (
{
closed = 1;
nodes = (
(542,65,l),
(486,22,o),
(383,-10,o),
(329,-10,q),
(189,-10,o),
(30,147,o),
(30,268,q),
(30,389,o),
(183,546,o),
(301,546,q),
(419,546,o),
(562,389,o),
(562,268,q),
(561,226,l),
(142,226,l),
(119,321,l),
(400,321,l),
(381,301,l),
(381,319,l),
(381,348,o),
(340,383,o),
(305,383,q),
(261,383,o),
(215,330,o),
(215,284,q),
(215,230,o),
(284.039,164,o),
(352,164,q),
(382,164,o),
(425,179,o),
(449,196,q)
);
}
);
width = 586;
},
{
anchors = (
{
name = bottom;
pos = (292,-20);
},
{
name = ogonek;
pos = (521,10);
},
{
name = top;
pos = (293,530);
}
);
layerId = "10E6B24D-63A8-414A-9CC7-A409B0282D48";
shapes = (
{
closed = 1;
nodes = (
(524,71,l),
(487.376,35.393,o),
(372.537,-10,o),
(317,-10,q),
(195,-10,o),
(40,140,o),
(40,257,q),
(40,381,o),
(191,536,o),
(308,537,q),
(410,536,o),
(546,392,o),
(546,282,q),
(545,238,l),
(116,238,l),
(93,320,l),
(456,320,l),
(441,303,l),
(441,327,l),
(436,376,o),
(359,442,o),
(308,442,q),
(227,442,o),
(142,351,o),
(142,264,q),
(142,182,o),
(244,84,o),
(327,84,q),
(366,84,o),
(433,110,o),
(472,144,q)
);
}
);
width = 586;
},
{
anchors = (
{
name = bottom;
pos = (292,0);
},
{
name = ogonek;
pos = (398,10);
},
{
name = top;
pos = (293,530);
}
);
layerId = "00D75E95-6BF0-4E41-A2AB-01FED608A441";
shapes = (
{
closed = 1;
nodes = (
(484,65,l),
(447,31,o),
(354,-10,o),
(297,-10,q),
(183,-10,o),
(40,144,o),
(40,263,q),
(40,380.44,o),
(177,530,o),
(285,530,q),
(384,530,o),
(510,401.462,o),
(510,291,q),
(509,265,l),
(52,265,l),
(52,287,l),
(498,287,l),
(486,270,l),
(488,295,l),
(488,390.448,o),
(371,508,o),
(288,508,q),
(186,508,o),
(63,370,o),
(62,263,qs),
(63,153,o),
(194,12,o),
(297,12,q),
(349,12,o),
(437,50,o),
(472,83,q)
);
}
);
width = 545;
}
);
note = e;
unicode = 101;
},
{
glyphname = f;
kernLeft = f;
kernRight = f;
lastChange = "2021-02-17 09:17:51 +0000";
layers = (
{
anchors = (
{
name = bottom;
pos = (197,0);
},
{
name = top;
pos = (197,510);
}
);
associatedMasterId = "10E6B24D-63A8-414A-9CC7-A409B0282D48";
guides = (
{
pos = (370,365);
userData = {
UFO.identifier = PskbrvrhL5;
};
}
);
layerId = master01;
shapes = (
{
closed = 1;
nodes = (
(387,356,l),
(13,356,l),
(13,516,l),
(387,516,l)
);
},
{
closed = 1;
nodes = (
(373,559,l),
(360,562,o),
(340,565,o),
(333,565,q),
(309,565,o),
(289,539,o),
(289,513,q),
(289,0,l),
(263,0,o),
(112,0,o),
(86,0,q),
(86,537,l),
(86,622,o),
(194,745,o),
(284,745,q),
(325,745,o),
(395,723,o),
(426,704,q)
);
}
);
width = 393;
},
{
anchors = (
{
name = bottom;
pos = (197,0);
},
{
name = top;
pos = (197,510);
}
);
layerId = "10E6B24D-63A8-414A-9CC7-A409B0282D48";
shapes = (
{
closed = 1;
nodes = (
(357,421,l),
(45,421,l),
(45,516,l),
(357,516,l)
);
},
{
closed = 1;
nodes = (
(355,616,l),
(342,628,o),
(311,643,o),
(297,643,qs),
(265,643,o),
(233,613,o),
(233,584,q),
(233,0,ls),
(207,0,o),
(155,0,o),
(129,0,q),
(129,584,ls),
(129,652,o),
(216,739,o),
(285,739,qs),
(317,739,o),
(373,715,o),
(390,695,q)
);
}
);
width = 393;
},
{
anchors = (
{
name = bottom;
pos = (197,0);
},
{
name = top;
pos = (197,510);
}
);
layerId = "00D75E95-6BF0-4E41-A2AB-01FED608A441";
shapes = (
{
closed = 1;
nodes = (
(314,503,l),
(30,503,l),
(30,525,l),
(314,525,l)
);
},
{
closed = 1;
nodes = (
(326,693,l),
(308.462,713.461,o),
(269,728,o),
(243,728,q),
(207,728,o),
(162,684,o),
(162,625,q),
(162,0,ls),
(162,0,o),
(146,0,o),
(140,0,q),
(140,626,l),
(140,692,o),
(198,750,o),
(245,750,q),
(281,750,o),
(326,727,o),
(340,708,q)
);
}
);
width = 340;
}
);
note = f;
unicode = 102;
},
{
glyphname = g;
kernLeft = g;
kernRight = g;
lastChange = "2021-02-17 09:17:51 +0000";
layers = (
{
anchors = (
{
name = bottom;
pos = (327,0);
},
{
name = top;
pos = (327,535);
}
);
associatedMasterId = "10E6B24D-63A8-414A-9CC7-A409B0282D48";
layerId = master01;
shapes = (
{
closed = 1;
nodes = (
(130,-22,l),
(163,-43,o),
(238,-66,o),
(283,-66,q),
(353,-66,o),
(415,-8.637,o),
(415,55,q),
(415,135,l),
(460,131,l),
(448,80,o),
(341,15,o),
(273,15,q),
(167,15,o),
(30,155,o),
(30,272,q),
(30,393,o),
(165,546,o),
(268,546,q),
(342,546,o),
(451,478,o),
(461,426,q),
(420,417,l),
(431,535,l),
(619,535,l),
(619,52,l),
(619,-83,o),
(459,-230,o),
(319,-230,q),
(247,-230,o),
(106,-190,o),
(61,-158,q)
);
},
{
closed = 1;
nodes = (
(420,323,o),
(370,381,o),
(324,381,q),
(278,381,o),
(229,323,o),
(229,270,q),
(229,217,o),
(278,160,o),
(324,160,q),
(370,160,o),
(420,217,o),
(420,270,q)
);
}
);
userData = {
com.schriftgestaltung.Glyphs.glyph.leftMetricsKey = o;
};
width = 684;
},
{
anchors = (
{
name = bottom;
pos = (327,0);
},
{
name = top;
pos = (327,535);
}
);
layerId = "10E6B24D-63A8-414A-9CC7-A409B0282D48";
shapes = (
{
closed = 1;
nodes = (
(144,-87,l),
(174,-110,o),
(263,-138,o),
(307,-138,q),
(389,-138,o),
(474,-58,o),
(474,20,q),
(474,121,l),
(485,114,l),
(478,68,o),
(365,-10,o),
(300,-10,q),
(188,-10,o),
(40,145,o),
(40,263,q),
(40,381,o),
(187,536,o),
(297,536,q),
(371,536,o),
(489,451,o),
(496,410,q),
(474,402,l),
(474,525,l),
(577,525,l),
(577,32,l),
(577,-93,o),
(433,-230,o),
(307,-230,q),
(251,-230,o),
(140,-195,o),
(106,-167,q)
);
},
{
closed = 1;
nodes = (
(478,341,o),
(384,442,o),
(311,442,q),
(239,442,o),
(145,340,o),
(145,263,q),
(145,186,o),
(239,85,o),
(311,85,q),
(385,85,o),
(478,185,o),
(478,263,q)
);
}
);
userData = {
com.schriftgestaltung.Glyphs.glyph.leftMetricsKey = o;
};
width = 649;
},
{
anchors = (
{
name = bottom;
pos = (302,0);
},
{
name = top;
pos = (302,535);
}
);
layerId = "00D75E95-6BF0-4E41-A2AB-01FED608A441";
shapes = (
{
closed = 1;
nodes = (
(124,-146,l),
(155,-179,o),
(240,-218,o),
(293,-218,q),
(379,-218,o),
(510,-85,o),
(510,30,qs),
(510,172,l),
(519,175,l),
(499,94,o),
(375,-10,o),
(294,-10,q),
(184,-10,o),
(40,141,o),
(40,258,q),
(40,376,o),
(187,530,o),
(290,530,q),
(370,530,o),
(502,427,o),
(516,350,q),
(510,353,l),
(512,525,l),
(532,525,l),
(532,21,l),
(532,-101,o),
(392,-240,o),
(294,-240,q),
(240,-240,o),
(145,-202,o),
(113,-166,q)
);
},
{
closed = 1;
nodes = (
(510,368,o),
(385,508,o),
(291,508,q),
(190,508,o),
(62,367,o),
(62,258,q),
(62,152,o),
(191,12,o),
(293,12,q),
(385,12,o),
(510,150,o),
(510,260,q)
);
}
);
userData = {
com.schriftgestaltung.Glyphs.glyph.leftMetricsKey = o;
};
width = 603;
}
);
note = g;
unicode = 103;
},
{
glyphname = h;
kernLeft = b;
kernRight = h;
lastChange = "2021-02-17 09:17:51 +0000";
layers = (
{
anchors = (
{
name = bottom;
pos = (337,0);
},
{
name = center;
pos = (167,593);
},
{
name = top;
pos = (166,729);
}
);
associatedMasterId = "10E6B24D-63A8-414A-9CC7-A409B0282D48";
layerId = master01;
shapes = (
{
closed = 1;
nodes = (
(350,546,o),
(418,546,qs),
(508,546,o),
(605,434,o),
(605,330,q),
(605,0,l),
(402,0,l),
(402,313,l),
(402,346,o),
(370,381,o),
(341,381,q),
(311,381,o),
(273,345,o),
(273,318,q),
(273,0,l),
(247,0,o),
(96,0,o),
(70,0,q),
(70,740,l),
(268,740,l),
(268,427,l),
(225,415,l),
(241,472,o)
);
}
);
userData = {
com.schriftgestaltung.Glyphs.glyph.leftMetricsKey = n;
com.schriftgestaltung.Glyphs.glyph.rightMetricsKey = n;
};
width = 665;
},
{
anchors = (
{
name = bottom;
pos = (292,0);
},
{
name = center;
pos = (122,593);
},
{
name = top;
pos = (121,729);
}
);
layerId = "10E6B24D-63A8-414A-9CC7-A409B0282D48";
shapes = (
{
closed = 1;
nodes = (
(284,536,o),
(347,536,q),
(437,536,o),
(527,429,o),
(527,320,q),
(527,0,l),
(424,0,l),
(424,313,l),
(424,381,o),
(369,445,o),
(313,442,q),
(254,442,o),
(175,370,o),
(175,318,q),
(175,0,l),
(149,0,o),
(98,0,o),
(72,0,q),
(72,740,l),
(175,740,l),
(175,417,l),
(157,405,l),
(172,457,o)
);
}
);
userData = {
com.schriftgestaltung.Glyphs.glyph.leftMetricsKey = n;
com.schriftgestaltung.Glyphs.glyph.rightMetricsKey = n;
};
width = 595;
},
{
anchors = (
{
name = bottom;
pos = (269,0);
},
{
name = center;
pos = (76,593);
},
{
name = top;
pos = (75,729);
}
);
layerId = "00D75E95-6BF0-4E41-A2AB-01FED608A441";
shapes = (
{
closed = 1;
nodes = (
(371,530,o),
(468,434,o),
(468,328,q),
(468,0,l),
(446,0,l),
(446,328,l),
(446,423,o),
(360,508,o),
(281,508,q),
(196,508,o),
(87,407,o),
(87,376,q),
(87,0,l),
(79,0,o),
(72,0,o),
(65,0,q),
(65,740,l),
(87,740,l),
(87,404,l),
(78,402,l),
(95,454,o),
(211,530,o),
(283,530,q)
);
}
);
userData = {
com.schriftgestaltung.Glyphs.glyph.leftMetricsKey = n;
com.schriftgestaltung.Glyphs.glyph.rightMetricsKey = n;
};
width = 531;
}
);
note = h;
unicode = 104;
},
{
color = (151,255,122,255);
glyphname = idotless;
kernLeft = i;
kernRight = i;
lastChange = "2021-02-17 09:17:51 +0000";
layers = (
{
anchors = (
{
name = bottom;
pos = (163,0);
},
{
name = ogonek;
pos = (247,10);
},
{
name = top;
pos = (163,525);
}
);
associatedMasterId = "10E6B24D-63A8-414A-9CC7-A409B0282D48";
layerId = master01;
shapes = (
{
closed = 1;
nodes = (
(263,0,l),
(60,0,l),
(60,535,l),
(263,535,l)
);
}
);
width = 323;
},
{
anchors = (
{
name = bottom;
pos = (124,0);
},
{
name = ogonek;
pos = (208,10);
},
{
name = top;
pos = (124,525);
}
);
layerId = "10E6B24D-63A8-414A-9CC7-A409B0282D48";
shapes = (
{
closed = 1;
nodes = (
(175,0,l),
(72,0,l),
(72,525,l),
(175,525,l)
);
}
);
width = 243;
},
{
anchors = (
{
name = bottom;
pos = (82,0);
},
{
name = ogonek;
pos = (98,10);
},
{
name = top;
pos = (82,525);
}
);
layerId = "00D75E95-6BF0-4E41-A2AB-01FED608A441";
shapes = (
{
closed = 1;
nodes = (
(92,0,l),
(70,0,l),
(70,525,l),
(92,525,l)
);
}
);
width = 162;
}
);
note = dotlessi;
unicode = 305;
},
{
glyphname = jdotless;
kernLeft = j;
kernRight = j;
lastChange = "2021-02-17 09:17:51 +0000";
layers = (
{
anchors = (
{
name = bottom;
pos = (151,0);
},
{
name = top;
pos = (138,531);
}
);
associatedMasterId = "10E6B24D-63A8-414A-9CC7-A409B0282D48";
guides = (
{
angle = 90;
name = center;
pos = (138,449);
userData = {
UFO.identifier = pMpzP2y6JC;
};
}
);
layerId = master01;
shapes = (
{
closed = 1;
nodes = (
(242,23,ls),
(242,-110.626,o),
(118,-219,o),
(-7,-219,q),
(-84,-62,l),
(-8,-62,o),
(39,-11.172,o),
(39,71,q),
(39,535,l),
(242,535,l)
);
}
);
width = 263;
},
{
anchors = (
{
name = bottom;
pos = (151,0);
},
{
name = top;
pos = (138,531);
}
);
layerId = "10E6B24D-63A8-414A-9CC7-A409B0282D48";
shapes = (
{
closed = 1;
nodes = (
(188,-24,ls),
(188,-101,o),
(88,-197,o),
(8,-197,q),
(-31,-118,l),
(27,-118,o),
(85,-58,o),
(85,1,q),
(85,525,l),
(188,525,l)
);
}
);
width = 263;
},
{
anchors = (
{
name = bottom;
pos = (151,0);
},
{
name = top;
pos = (138,531);
}
);
guides = (
{
angle = 270;
name = center;
pos = (138,541);
}
);
layerId = "00D75E95-6BF0-4E41-A2AB-01FED608A441";
shapes = (
{
closed = 1;
nodes = (
(150,-60,ls),
(150,-125,o),
(84,-194,o),
(24,-194,q),
(16,-173,l),
(78,-173,o),
(128,-107.559,o),
(128,-56,q),
(128,525,l),
(150,525,l)
);
}
);
width = 226;
}
);
note = dotlessj;
unicode = 567;
},
{
glyphname = k;
kernLeft = b;
kernRight = k;
lastChange = "2021-02-17 09:17:51 +0000";
layers = (
{
anchors = (
{
name = bottom;
pos = (354,0);
},
{
name = top;
pos = (354,510);
}
);
associatedMasterId = "10E6B24D-63A8-414A-9CC7-A409B0282D48";
layerId = master01;
shapes = (
{
closed = 1;
nodes = (
(70,0,l),
(70,740,l),
(273,740,l),
(273,0,l)
);
},
{
closed = 1;
nodes = (
(680,535,l),
(269,150,l),
(169,276,l),
(416,535,l)
);
},
{
closed = 1;
nodes = (
(434,0,l),
(256,251,l),
(398,353,l),
(666,0,l)
);
}
);
userData = {
com.schriftgestaltung.Glyphs.glyph.leftMetricsKey = l;
};
width = 669;
},
{
anchors = (
{
name = bottom;
pos = (279,0);
},
{
name = top;
pos = (279,510);
}
);
layerId = "10E6B24D-63A8-414A-9CC7-A409B0282D48";
shapes = (
{
closed = 1;
nodes = (
(74,0,l),
(74,740,l),
(177,740,l),
(177,0,l)
);
},
{
closed = 1;
nodes = (
(553,525,l),
(168,164,l),
(163,276,l),
(414,525,l)
);
},
{
closed = 1;
nodes = (
(428,0,l),
(230,231,l),
(303,298,l),
(560,0,l)
);
}
);
userData = {
com.schriftgestaltung.Glyphs.glyph.leftMetricsKey = l;
};
width = 570;
},
{
anchors = (
{
name = bottom;
pos = (263,0);
},
{
name = top;
pos = (263,510);
}
);
layerId = "00D75E95-6BF0-4E41-A2AB-01FED608A441";
shapes = (
{
closed = 1;
nodes = (
(77,0,l),
(77,740,l),
(99,740,l),
(99,0,l)
);
},
{
closed = 1;
nodes = (
(440,525,l),
(91,179,l),
(91,211,l),
(408,525,l)
);
},
{
closed = 1;
nodes = (
(443,0,l),
(190,291,l),
(207,307,l),
(474,0,l)
);
}
);
userData = {
com.schriftgestaltung.Glyphs.glyph.leftMetricsKey = l;
};
width = 483;
}
);
note = k;
unicode = 107;
},
{
color = (151,255,122,255);
glyphname = kgreenlandic;
kernLeft = b;
kernRight = k;
lastChange = "2021-02-17 09:17:51 +0000";
layers = (
{
anchors = (
{
name = bottom;
pos = (295,0);
},
{
name = top;
pos = (295,510);
}
);
associatedMasterId = "10E6B24D-63A8-414A-9CC7-A409B0282D48";
layerId = master01;
shapes = (
{
closed = 1;
nodes = (
(70,0,l),
(70,535,l),
(273,535,l),
(273,0,l)
);
},
{
closed = 1;
nodes = (
(680,535,l),
(389,241,l),
(269,120,l),
(169,246,l),
(416,535,l)
);
},
{
closed = 1;
nodes = (
(434,0,l),
(266,251,l),
(408,353,l),
(666,0,l)
);
}
);
userData = {
com.schriftgestaltung.Glyphs.glyph.leftMetricsKey = l;
com.schriftgestaltung.Glyphs.glyph.rightMetricsKey = v;
};
width = 669;
},
{
anchors = (
{
name = bottom;
pos = (295,0);
},
{
name = top;
pos = (295,510);
}
);
layerId = "10E6B24D-63A8-414A-9CC7-A409B0282D48";
shapes = (
{
closed = 1;
nodes = (
(74,0,l),
(74,525,l),
(171,525,l),
(171,0,l)
);
},
{
closed = 1;
nodes = (
(529,525,l),
(276,269,l),
(162,154,l),
(157,256,l),
(408,525,l)
);
},
{
closed = 1;
nodes = (
(411,0,l),
(218,272,l),
(287,319,l),
(534,-1,l)
);
}
);
userData = {
com.schriftgestaltung.Glyphs.glyph.leftMetricsKey = l;
com.schriftgestaltung.Glyphs.glyph.rightMetricsKey = v;
};
width = 556;
},
{
anchors = (
{
name = bottom;
pos = (295,0);
},
{
name = top;
pos = (295,510);
}
);
layerId = "00D75E95-6BF0-4E41-A2AB-01FED608A441";
shapes = (
{
closed = 1;
nodes = (
(77,0,l),
(77,525,l),
(99,525,l),
(99,0,l)
);
},
{
closed = 1;
nodes = (
(440,525,l),
(205,292,l),
(91,179,l),
(91,211,l),
(408,525,l)
);
},
{
closed = 1;
nodes = (
(443,0,l),
(190,291,l),
(207,307,l),
(474,0,l)
);
}
);
userData = {
com.schriftgestaltung.Glyphs.glyph.leftMetricsKey = l;
com.schriftgestaltung.Glyphs.glyph.rightMetricsKey = v;
};
width = 483;
}
);
unicode = 312;
},
{
glyphname = l;
kernLeft = b;
kernRight = l;
lastChange = "2021-02-17 09:17:51 +0000";
layers = (
{
anchors = (
{
name = bottom;
pos = (170,0);
},
{
name = center;
pos = (170,289);
},
{
name = top;
pos = (171,740);
},
{
name = topright;
pos = (378,701);
}
);
associatedMasterId = "10E6B24D-63A8-414A-9CC7-A409B0282D48";
layerId = master01;
shapes = (
{
closed = 1;
nodes = (
(70,0,l),
(70,740,l),
(273,740,l),
(273,0,l)
);
}
);
width = 343;
},
{
anchors = (
{
name = bottom;
pos = (122,0);
},
{
name = center;
pos = (122,289);
},
{
name = top;
pos = (123,740);
},
{
name = topright;
pos = (229,580);
}
);
layerId = "10E6B24D-63A8-414A-9CC7-A409B0282D48";
shapes = (
{
closed = 1;
nodes = (
(74,0,l),
(74,740,l),
(177,740,l),
(177,0,l)
);
}
);
width = 251;
},
{
anchors = (
{
name = bottom;
pos = (83,0);
},
{
name = center;
pos = (204,289);
},
{
name = top;
pos = (84,740);
},
{
name = topright;
pos = (201,700);
}
);
layerId = "00D75E95-6BF0-4E41-A2AB-01FED608A441";
shapes = (
{
closed = 1;
nodes = (
(72,0,l),
(72,740,l),
(94,740,l),
(94,0,l)
);
}
);
width = 166;
}
);
note = l;
unicode = 108;
},
{
color = (79,255,0,255);
glyphname = lslash;
lastChange = "2021-02-17 09:17:51 +0000";
layers = (
{
anchors = (
{
name = bottom;
pos = (120,0);
},
{
name = center;
pos = (120,289);
},
{
name = top;
pos = (121,740);
},
{
name = topright;
pos = (227,580);
}
);
associatedMasterId = "10E6B24D-63A8-414A-9CC7-A409B0282D48";
layerId = master01;
shapes = (
{
closed = 1;
nodes = (
(134,0,l),
(134,740,l),
(337,740,l),
(337,0,l)
);
},
{
closed = 1;
nodes = (
(0,387,l),
(407,564,l),
(469,401,l),
(62,224,l)
);
}
);
width = 469;
},
{
anchors = (
{
name = bottom;
pos = (120,0);
},
{
name = center;
pos = (120,289);
},
{
name = top;
pos = (121,740);
},
{
name = topright;
pos = (227,580);
}
);
layerId = "10E6B24D-63A8-414A-9CC7-A409B0282D48";
shapes = (
{
closed = 1;
nodes = (
(72,0,l),
(72,740,l),
(175,740,l),
(175,0,l)
);
},
{
closed = 1;
nodes = (
(-3,369,l),
(220,468,l),
(256,394,l),
(31,292,l)
);
}
);
width = 253;
},
{
anchors = (
{
name = bottom;
pos = (120,0);
},
{
name = center;
pos = (120,289);
},
{
name = top;
pos = (121,740);
},
{
name = topright;
pos = (227,580);
}
);
layerId = "00D75E95-6BF0-4E41-A2AB-01FED608A441";
shapes = (
{
closed = 1;
nodes = (
(135,0,l),
(135,740,l),
(157,740,l),
(157,0,l)
);
},
{
closed = 1;
nodes = (
(10,304,l),
(274,425,l),
(282,404,l),
(18,283,l)
);
}
);
width = 292;
}
);
unicode = 322;
},
{
glyphname = m;
kernLeft = m;
kernRight = h;
lastChange = "2021-02-17 09:17:51 +0000";
layers = (
{
anchors = (
{
name = bottom;
pos = (500,0);
},
{
name = top;
pos = (500,510);
}
);
associatedMasterId = "10E6B24D-63A8-414A-9CC7-A409B0282D48";
guides = (
{
angle = 90;
pos = (496.5,0);
userData = {
UFO.identifier = zljmiCTRSN;
};
}
);
layerId = master01;
shapes = (
{
closed = 1;
nodes = (
(461,546,o),
(535,501,o),
(572,434,q),
(541,435,l),
(551,449,l),
(593,506,o),
(686,546,o),
(740,546,q),
(833,546,o),
(933,434,o),
(933,330,q),
(933,0,l),
(730,0,l),
(730,313,l),
(730,346,o),
(698,381,o),
(670,381,q),
(640,381,o),
(603,345,o),
(603,318,q),
(603,0,l),
(400,0,l),
(400,313,l),
(400,346,o),
(368,381,o),
(340,381,q),
(310,381,o),
(273,345,o),
(273,318,q),
(273,0,l),
(70,0,l),
(70,535,l),
(258,535,l),
(266,451,l),
(243,459,l),
(290,510,o),
(365,546,o),
(408,546,q)
);
}
);
width = 993;
},
{
anchors = (
{
name = bottom;
pos = (466,0);
},
{
name = top;
pos = (466,510);
}
);
layerId = "10E6B24D-63A8-414A-9CC7-A409B0282D48";
shapes = (
{
closed = 1;
nodes = (
(277,534,o),
(339,534,q),
(407,534,o),
(491,466,o),
(506,399,q),
(490,403,l),
(497,420,l),
(519,466,o),
(625,534,o),
(680,534,q),
(768,534,o),
(855,425,o),
(855,315,q),
(855,0,l),
(751,0,l),
(751,309,l),
(751,376,o),
(700,439,o),
(646,439,q),
(589,439,o),
(513,367,o),
(513,314,q),
(513,0,l),
(409,0,l),
(409,311,l),
(409,373,o),
(356,439,o),
(306,439,q),
(250,439,o),
(174,368,o),
(174,316,q),
(174,0,l),
(70,0,l),
(70,525,l),
(174,525,l),
(174,413,l),
(155,401,l),
(170,453,o)
);
}
);
width = 921;
},
{
anchors = (
{
name = bottom;
pos = (443,0);
},
{
name = top;
pos = (443,510);
}
);
layerId = "00D75E95-6BF0-4E41-A2AB-01FED608A441";
shapes = (
{
closed = 1;
nodes = (
(340,530,o),
(431,470,o),
(447,395,q),
(435,389,l),
(441,406,l),
(467,467,o),
(574,530,o),
(636,530,q),
(721,530,o),
(814,434,o),
(814,328,q),
(814,0,l),
(792,0,l),
(792,328,l),
(792,423,o),
(710,508,o),
(634,508,q),
(556,508,o),
(454,412,o),
(454,364,q),
(454,0,l),
(432,0,l),
(432,328,l),
(432,423,o),
(350,508,o),
(274,508,q),
(192,508,o),
(87,407,o),
(87,376,q),
(87,0,l),
(65,0,l),
(65,525,l),
(85,525,l),
(88,393,l),
(73,396,l),
(110,468,o),
(214,530,o),
(276,530,q)
);
}
);
width = 877;
}
);
note = m;
unicode = 109;
},
{
glyphname = n;
kernLeft = m;
kernRight = h;
lastChange = "2021-02-17 09:17:51 +0000";
layers = (
{
anchors = (
{
name = bottom;
pos = (303,0);
},
{
name = top;
pos = (303,510);
}
);
associatedMasterId = "10E6B24D-63A8-414A-9CC7-A409B0282D48";
guides = (
{
angle = 90;
pos = (332.5,0);
userData = {
UFO.identifier = vfx0h97LvN;
};
}
);
layerId = master01;
shapes = (
{
closed = 1;
nodes = (
(350,546,o),
(418,546,qs),
(508,546,o),
(605,434,o),
(605,330,q),
(605,0,l),
(402,0,l),
(402,313,l),
(402,346,o),
(370,381,o),
(341,381,q),
(311,381,o),
(273,345,o),
(273,318,q),
(273,0,l),
(247,0,o),
(96,0,o),
(70,0,q),
(70,535,l),
(258,535,l),
(268,427,l),
(225,415,l),
(241,472,o)
);
}
);
width = 665;
},
{
anchors = (
{
name = bottom;
pos = (303,0);
},
{
name = top;
pos = (303,510);
}
);
layerId = "10E6B24D-63A8-414A-9CC7-A409B0282D48";
shapes = (
{
closed = 1;
nodes = (
(284,536,o),
(347,536,q),
(437,536,o),
(527,429,o),
(527,320,q),
(527,0,l),
(424,0,l),
(424,313,l),
(424,381,o),
(369,445,o),
(313,442,q),
(254,442,o),
(175,370,o),
(175,318,q),
(175,0,l),
(149,0,o),
(98,0,o),
(72,0,q),
(72,525,l),
(175,525,l),
(175,417,l),
(157,405,l),
(172,457,o)
);
}
);
width = 595;
},
{
anchors = (
{
name = bottom;
pos = (285,0);
},
{
name = top;
pos = (285,510);
}
);
layerId = "00D75E95-6BF0-4E41-A2AB-01FED608A441";
shapes = (
{
closed = 1;
nodes = (
(376,530,o),
(473,434,o),
(473,328,q),
(473,0,l),
(451,0,l),
(451,328,l),
(451,423,o),
(365,508,o),
(286,508,q),
(201,508,o),
(92,407,o),
(92,376,q),
(92,0,l),
(84,0,o),
(77,0,o),
(70,0,q),
(70,525,l),
(90,525,l),
(92,404,l),
(83,401,l),
(98.888,452.635,o),
(215,530,o),
(288,530,q)
);
}
);
width = 541;
}
);
note = n;
unicode = 110;
},
{
glyphname = nhookleft;
kernRight = h;
lastChange = "2021-02-17 09:17:51 +0000";
layers = (
{
anchors = (
{
name = bottom;
pos = (318,0);
},
{
name = top;
pos = (318,510);
}
);
associatedMasterId = "10E6B24D-63A8-414A-9CC7-A409B0282D48";
guides = (
{
pos = (79,-207);
userData = {
UFO.identifier = yTACeOvMxk;
};
}
);
layerId = master01;
shapes = (
{
closed = 1;
nodes = (
(359,546,o),
(427,546,qs),
(517,546,o),
(614,434,o),
(614,330,q),
(614,0,l),
(411,0,l),
(411,313,l),
(411,346,o),
(379,381,o),
(350,381,q),
(320,381,o),
(282,345,o),
(282,318,q),
(282,22,l),
(256,22,o),
(105,23,o),
(79,23,q),
(79,535,l),
(267,535,l),
(277,427,l),
(234,415,l),
(250,472,o)
);
},
{
closed = 1;
nodes = (
(282,61,l),
(282,35,ls),
(282,-94,o),
(158,-219,o),
(33,-219,q),
(-44,-62,l),
(32,-62,o),
(79,-21,o),
(79,45,q),
(79,61,l)
);
}
);
userData = {
com.schriftgestaltung.Glyphs.glyph.leftMetricsKey = j;
com.schriftgestaltung.Glyphs.glyph.rightMetricsKey = n;
};
width = 674;
},
{
anchors = (
{
name = bottom;
pos = (318,0);
},
{
name = top;
pos = (318,510);
}
);
layerId = "10E6B24D-63A8-414A-9CC7-A409B0282D48";
shapes = (
{
closed = 1;
nodes = (
(299,536,o),
(362,536,q),
(452,536,o),
(542,429,o),
(542,320,q),
(542,0,l),
(439,0,l),
(439,313,l),
(439,381,o),
(384,445,o),
(328,442,q),
(269,442,o),
(190,370,o),
(190,318,q),
(190,0,l),
(164,0,o),
(113,0,o),
(87,0,q),
(87,525,l),
(190,525,l),
(190,417,l),
(172,405,l),
(187,457,o)
);
},
{
closed = 1;
nodes = (
(190,25,l),
(190,-24,ls),
(190,-101,o),
(90,-197,o),
(10,-197,q),
(-29,-118,l),
(29,-118,o),
(87,-58,o),
(87,1,q),
(87,15,l)
);
}
);
userData = {
com.schriftgestaltung.Glyphs.glyph.leftMetricsKey = j;
com.schriftgestaltung.Glyphs.glyph.rightMetricsKey = n;
};
width = 610;
},
{
anchors = (
{
name = bottom;
pos = (318,0);
},
{
name = top;
pos = (318,510);
}
);
layerId = "00D75E95-6BF0-4E41-A2AB-01FED608A441";
shapes = (
{
closed = 1;
nodes = (
(376,530,o),
(473,434,o),
(473,328,q),
(473,0,l),
(451,0,l),
(451,328,l),
(451,423,o),
(365,508,o),
(286,508,q),
(201,508,o),
(92,407,o),
(92,376,q),
(92,0,l),
(84,0,o),
(77,0,o),
(70,0,q),
(70,525,l),
(90,525,l),
(92,404,l),
(83,401,l),
(99,453,o),
(215,530,o),
(288,530,q)
);
},
{
closed = 1;
nodes = (
(92,10,l),
(92,-60,ls),
(92,-125,o),
(26,-194,o),
(-34,-194,q),
(-42,-173,l),
(20,-173,o),
(70,-108,o),
(70,-56,q),
(70,5,l)
);
}
);
userData = {
com.schriftgestaltung.Glyphs.glyph.leftMetricsKey = j;
com.schriftgestaltung.Glyphs.glyph.rightMetricsKey = n;
};
width = 541;
}
);
unicode = 626;
},
{
color = (151,255,122,255);
glyphname = eng;
kernLeft = m;
kernRight = h;
lastChange = "2021-02-17 09:17:51 +0000";
layers = (
{
anchors = (
{
name = bottom;
pos = (286,0);
},
{
name = top;
pos = (295,510);
}
);
associatedMasterId = "10E6B24D-63A8-414A-9CC7-A409B0282D48";
layerId = master01;
shapes = (
{
closed = 1;
nodes = (
(508,546,o),
(605,434,o),
(605,330,q),
(605,0,ls),
(605,-109,o),
(478,-207,o),
(350,-207,q),
(274,-48,l),
(342,-48,o),
(400,7,o),
(402,62,q),
(402,313,l),
(402,346,o),
(370,381,o),
(341,381,q),
(311,381,o),
(273,345,o),
(273,318,q),
(273,0,l),
(70,0,l),
(70,535,l),
(258,535,l),
(263,481,l),
(291,511,o),
(372,546,o),
(418,546,qs)
);
}
);
userData = {
com.schriftgestaltung.Glyphs.glyph.leftMetricsKey = n;
com.schriftgestaltung.Glyphs.glyph.rightMetricsKey = n;
};
width = 666;
},
{
anchors = (
{
name = bottom;
pos = (286,0);
},
{
name = top;
pos = (295,510);
}
);
layerId = "10E6B24D-63A8-414A-9CC7-A409B0282D48";
shapes = (
{
closed = 1;
nodes = (
(437,536,o),
(527,429,o),
(527,320,q),
(527,-24,ls),
(527,-101,o),
(427,-197,o),
(347,-197,q),
(308,-118,l),
(365,-118,o),
(423,-58,o),
(424,0,q),
(424,313,l),
(424,381,o),
(369,445,o),
(313,442,q),
(254,442,o),
(175,370,o),
(175,318,q),
(175,0,l),
(72,0,l),
(72,525,l),
(175,525,l),
(175,443,l),
(201,482,o),
(296,536,o),
(347,536,q)
);
}
);
userData = {
com.schriftgestaltung.Glyphs.glyph.leftMetricsKey = n;
com.schriftgestaltung.Glyphs.glyph.rightMetricsKey = n;
};
width = 595;
},
{
anchors = (
{
name = bottom;
pos = (286,0);
},
{
name = top;
pos = (295,510);
}
);
layerId = "00D75E95-6BF0-4E41-A2AB-01FED608A441";
shapes = (
{
closed = 1;
nodes = (
(376,530,o),
(473,434,o),
(473,328,q),
(473,-60,ls),
(473,-125,o),
(407,-194,o),
(347,-194,q),
(339,-173,l),
(401,-173,o),
(451,-108,o),
(451,-56,q),
(451,328,l),
(451,423,o),
(365,508,o),
(286,508,q),
(201,508,o),
(92,407,o),
(92,376,q),
(92,0,l),
(70,0,l),
(70,525,l),
(90,525,l),
(92,420,l),
(129,478,o),
(229,530,o),
(288,530,q)
);
}
);
userData = {
com.schriftgestaltung.Glyphs.glyph.leftMetricsKey = n;
com.schriftgestaltung.Glyphs.glyph.rightMetricsKey = n;
};
width = 541;
}
);
note = eng;
unicode = 331;
},
{
glyphname = o;
kernLeft = c;
kernRight = b;
lastChange = "2021-02-17 09:17:51 +0000";
layers = (
{
anchors = (
{
name = bottom;
pos = (330,0);
},
{
name = center;
pos = (330,256);
},
{
name = ogonek;
pos = (433,10);
},
{
name = top;
pos = (330,513);
},
{
name = topright;
pos = (372,463);
}
);
associatedMasterId = "10E6B24D-63A8-414A-9CC7-A409B0282D48";
guides = (
{
angle = 90;
pos = (330,0);
userData = {
UFO.identifier = 8fFeePzA7K;
};
}
);
layerId = master01;
shapes = (
{
closed = 1;
nodes = (
(461,546,o),
(630,389,o),
(630,268,q),
(630,147,o),
(461,-10,o),
(331,-10,q),
(200,-10,o),
(30,147,o),
(30,268,q),
(30,389,o),
(200,546,o),
(331,546,q)
);
},
{
closed = 1;
nodes = (
(372,160,o),
(425,221,o),
(425,268,qs),
(425,316,o),
(372,377,o),
(331,377,q),
(289,377,o),
(235,316,o),
(235,268,qs),
(235,221,o),
(289,160,o),
(331,160,q)
);
}
);
width = 660;
},
{
anchors = (
{
name = bottom;
pos = (305,0);
},
{
name = center;
pos = (305,256);
},
{
name = ogonek;
pos = (547,10);
},
{
name = top;
pos = (305,513);
},
{
name = topright;
pos = (319,531);
}
);
layerId = "10E6B24D-63A8-414A-9CC7-A409B0282D48";
shapes = (
{
closed = 1;
nodes = (
(422,536,o),
(575,381,o),
(575,263,q),
(575,145,o),
(422,-10,o),
(308,-10,q),
(193,-10,o),
(40,145,o),
(40,263,q),
(40,381,o),
(193,536,o),
(308,536,q)
);
},
{
closed = 1;
nodes = (
(379,84,o),
(471,186,o),
(470,263,q),
(471,341,o),
(379,442,o),
(308,442,q),
(237,442,o),
(144,340,o),
(145,263,q),
(144,186,o),
(237,84,o),
(308,84,q)
);
}
);
width = 615;
},
{
anchors = (
{
name = bottom;
pos = (304,1);
},
{
name = center;
pos = (304,257);
},
{
name = ogonek;
pos = (431,11);
},
{
name = top;
pos = (309,513);
},
{
name = topright;
pos = (422,505);
}
);
layerId = "00D75E95-6BF0-4E41-A2AB-01FED608A441";
shapes = (
{
closed = 1;
nodes = (
(427,530,o),
(575,380,o),
(575,263,q),
(575,144,o),
(427,-10,o),
(308,-10,q),
(190,-10,o),
(40,144,o),
(40,263,q),
(40,380,o),
(190,530,o),
(308,530,q)
);
},
{
closed = 1;
nodes = (
(414,12,o),
(553,153,o),
(553,263,qs),
(553,369,o),
(414,508,o),
(308,508,q),
(201,508,o),
(62,369,o),
(62,263,qs),
(62,153,o),
(201,12,o),
(308,12,q)
);
}
);
width = 615;
}
);
note = o;
unicode = 111;
},
{
color = (79,255,0,255);
glyphname = oslash;
kernLeft = o;
kernRight = b;
lastChange = "2021-02-17 09:17:51 +0000";
layers = (
{
anchors = (
{
name = bottom;
pos = (305,0);
},
{
name = center;
pos = (305,256);
},
{
name = ogonek;
pos = (547,10);
},
{
name = top;
pos = (305,530);
},
{
name = topright;
pos = (319,531);
}
);
associatedMasterId = "10E6B24D-63A8-414A-9CC7-A409B0282D48";
layerId = master01;
shapes = (
{
closed = 1;
nodes = (
(64,13,l),
(533,571,l),
(600,522,l),
(130,-35,l)
);
},
{
closed = 1;
nodes = (
(461,546,o),
(630,389,o),
(630,268,q),
(630,147,o),
(461,-10,o),
(331,-10,q),
(200,-10,o),
(30,147,o),
(30,268,q),
(30,389,o),
(200,546,o),
(331,546,q)
);
},
{
closed = 1;
nodes = (
(372,160,o),
(425,221,o),
(425,268,qs),
(425,316,o),
(372,377,o),
(331,377,q),
(289,377,o),
(235,316,o),
(235,268,qs),
(235,221,o),
(289,160,o),
(331,160,q)
);
}
);
userData = {
com.schriftgestaltung.Glyphs.glyph.leftMetricsKey = o;
com.schriftgestaltung.Glyphs.glyph.rightMetricsKey = o;
};
width = 660;
},
{
anchors = (
{
name = bottom;
pos = (305,0);
},
{
name = center;
pos = (305,256);
},
{
name = ogonek;
pos = (547,10);
},
{
name = top;
pos = (305,530);
},
{
name = topright;
pos = (319,531);
}
);
layerId = "10E6B24D-63A8-414A-9CC7-A409B0282D48";
shapes = (
{
closed = 1;
nodes = (
(41,13,l),
(494,545,l),
(561,496,l),
(107,-35,l)
);
},
{
closed = 1;
nodes = (
(422,536,o),
(575,381,o),
(575,263,q),
(575,145,o),
(422,-10,o),
(308,-10,q),
(193,-10,o),
(40,145,o),
(40,263,q),
(40,381,o),
(193,536,o),
(308,536,q)
);
},
{
closed = 1;
nodes = (
(379,84,o),
(471,186,o),
(470,263,q),
(471,341,o),
(379,442,o),
(308,442,q),
(237,442,o),
(144,340,o),
(145,263,q),
(144,186,o),
(237,84,o),
(308,84,q)
);
}
);
userData = {
com.schriftgestaltung.Glyphs.glyph.leftMetricsKey = o;
com.schriftgestaltung.Glyphs.glyph.rightMetricsKey = o;
};
width = 615;
},
{
anchors = (
{
name = bottom;
pos = (305,0);
},
{
name = center;
pos = (305,256);
},
{
name = ogonek;
pos = (547,10);
},
{
name = top;
pos = (305,530);
},
{
name = topright;
pos = (319,531);
}
);
layerId = "00D75E95-6BF0-4E41-A2AB-01FED608A441";
shapes = (
{
closed = 1;
nodes = (
(65,-5,l),
(526,538,l),
(543,523,l),
(81,-19,l)
);
},
{
closed = 1;
nodes = (
(427,529,o),
(575,380,o),
(575,263,q),
(575,144,o),
(427,-10,o),
(308,-10,q),
(190,-10,o),
(40,144,o),
(40,263,q),
(40,380,o),
(190,529,o),
(308,529,q)
);
},
{
closed = 1;
nodes = (
(414,12,o),
(552,153,o),
(553,263,qs),
(552,369,o),
(414,507,o),
(308,507,q),
(201,507,o),
(63,370,o),
(62,263,qs),
(63,153,o),
(201,12,o),
(308,12,q)
);
}
);
userData = {
com.schriftgestaltung.Glyphs.glyph.leftMetricsKey = o;
com.schriftgestaltung.Glyphs.glyph.rightMetricsKey = o;
};
width = 615;
}
);
unicode = 248;
},
{
glyphname = p;
kernLeft = p;
kernRight = b;
lastChange = "2021-02-17 09:17:51 +0000";
layers = (
{
anchors = (
{
name = bottom;
pos = (317,0);
},
{
name = top;
pos = (317,510);
}
);
associatedMasterId = "10E6B24D-63A8-414A-9CC7-A409B0282D48";
layerId = master01;
shapes = (
{
closed = 1;
nodes = (
(347,546,o),
(421,546,q),
(520,546,o),
(649,391,o),
(649,268,q),
(649,147,o),
(518,-9,o),
(416,-9,q),
(348,-9,o),
(242,62,o),
(229,117,q),
(274,131,l),
(274,-220,l),
(70,-220,l),
(70,535,l),
(258,535,l),
(269,417,l),
(228,426,l),
(238,478,o)
);
},
{
closed = 1;
nodes = (
(450,322,o),
(403,381,o),
(360,381,q),
(316,381,o),
(269,322,o),
(269,268,q),
(269,214,o),
(316,156,o),
(360,156,q),
(403,156,o),
(450,214,o),
(450,268,q)
);
}
);
userData = {
com.schriftgestaltung.Glyphs.glyph.leftMetricsKey = n;
com.schriftgestaltung.Glyphs.glyph.rightMetricsKey = o;
};
width = 679;
},
{
anchors = (
{
name = bottom;
pos = (317,0);
},
{
name = top;
pos = (317,510);
}
);
layerId = "10E6B24D-63A8-414A-9CC7-A409B0282D48";
shapes = (
{
closed = 1;
nodes = (
(282,534,o),
(346,534,q),
(452,534,o),
(591,381,o),
(591,263,q),
(591,146,o),
(453,-9,o),
(349,-9,q),
(280,-9,o),
(161,71,o),
(150,117,q),
(176,131,l),
(176,-220,l),
(72,-220,l),
(72,526,l),
(176,526,l),
(176,405,l),
(160,414,l),
(169,459,o)
);
},
{
closed = 1;
nodes = (
(492,339,o),
(402,439,o),
(332,439,q),
(262,439,o),
(171,340,o),
(171,263,q),
(171,187,o),
(262,86,o),
(332,86,q),
(401,86,o),
(492,187,o),
(492,263,q)
);
}
);
userData = {
com.schriftgestaltung.Glyphs.glyph.leftMetricsKey = n;
com.schriftgestaltung.Glyphs.glyph.rightMetricsKey = o;
};
width = 631;
},
{
anchors = (
{
name = bottom;
pos = (317,0);
},
{
name = top;
pos = (317,510);
}
);
layerId = "00D75E95-6BF0-4E41-A2AB-01FED608A441";
shapes = (
{
closed = 1;
nodes = (
(421,530,o),
(565,379,o),
(565,262,q),
(565,144,o),
(418,-10,o),
(315,-10,q),
(235,-10,o),
(103,93,o),
(89,170,q),
(95,167,l),
(95,-230,l),
(73,-230,l),
(73,525,l),
(93,525,l),
(95,348,l),
(86,345,l),
(106,426,o),
(230,530,o),
(311,530,q)
);
},
{
closed = 1;
nodes = (
(543,368,o),
(415,508,o),
(312,508,q),
(220,508,o),
(95,370,o),
(95,260,q),
(95,152,o),
(220,12,o),
(314,12,q),
(415,12,o),
(543,153,o),
(543,262,q)
);
}
);
userData = {
com.schriftgestaltung.Glyphs.glyph.leftMetricsKey = n;
com.schriftgestaltung.Glyphs.glyph.rightMetricsKey = o;
};
width = 605;
}
);
note = p;
unicode = 112;
},
{
color = (151,255,122,255);
glyphname = thorn;
kernRight = b;
lastChange = "2021-02-17 09:17:51 +0000";
layers = (
{
anchors = (
{
name = bottom;
pos = (284,0);
},
{
name = top;
pos = (284,499);
}
);
associatedMasterId = "10E6B24D-63A8-414A-9CC7-A409B0282D48";
layerId = master01;
shapes = (
{
closed = 1;
nodes = (
(347,546,o),
(421,546,q),
(520,546,o),
(649,391,o),
(649,268,q),
(649,147,o),
(518,-9,o),
(416,-9,q),
(348,-9,o),
(242,62,o),
(229,117,q),
(274,131,l),
(274,-220,l),
(70,-220,l),
(70,740,l),
(274,740,l),
(274,417,l),
(228,426,l),
(238,478,o)
);
},
{
closed = 1;
nodes = (
(450,322,o),
(403,381,o),
(360,381,q),
(316,381,o),
(269,322,o),
(269,268,q),
(269,214,o),
(316,156,o),
(360,156,q),
(403,156,o),
(450,214,o),
(450,268,q)
);
}
);
userData = {
com.schriftgestaltung.Glyphs.glyph.leftMetricsKey = p;
com.schriftgestaltung.Glyphs.glyph.rightMetricsKey = p;
};
width = 679;
},
{
anchors = (
{
name = bottom;
pos = (284,0);
},
{
name = top;
pos = (284,499);
}
);
layerId = "10E6B24D-63A8-414A-9CC7-A409B0282D48";
shapes = (
{
closed = 1;
nodes = (
(282,534,o),
(346,534,q),
(452,534,o),
(591,381,o),
(591,263,q),
(591,146,o),
(453,-9,o),
(349,-9,q),
(280,-9,o),
(161,71,o),
(150,117,q),
(176,131,l),
(176,-220,l),
(72,-220,l),
(72,740,l),
(176,740,l),
(176,405,l),
(160,414,l),
(169,459,o)
);
},
{
closed = 1;
nodes = (
(492,339,o),
(402,439,o),
(332,439,q),
(262,439,o),
(171,340,o),
(171,263,q),
(171,187,o),
(262,86,o),
(332,86,q),
(401,86,o),
(492,187,o),
(492,263,q)
);
}
);
userData = {
com.schriftgestaltung.Glyphs.glyph.leftMetricsKey = p;
com.schriftgestaltung.Glyphs.glyph.rightMetricsKey = p;
};
width = 631;
},
{
anchors = (
{
name = bottom;
pos = (284,0);
},
{
name = top;
pos = (284,499);
}
);
layerId = "00D75E95-6BF0-4E41-A2AB-01FED608A441";
shapes = (
{
closed = 1;
nodes = (
(427,530,o),
(575,377,o),
(575,259,q),
(575,142,o),
(431,-10,o),
(323,-10,q),
(236,-10,o),
(110,86,o),
(87,164,q),
(95,164,l),
(95,-230,l),
(73,-230,l),
(73,740,l),
(95,740,l),
(95,352,l),
(87,353,l),
(111,431,o),
(237,530,o),
(324,530,q)
);
},
{
closed = 1;
nodes = (
(553,367,o),
(420,508,o),
(319,508,q),
(221,508,o),
(92,368,o),
(92,260,q),
(92,150,o),
(222,12,o),
(319,12,q),
(422,12,o),
(553,152,o),
(553,259,q)
);
}
);
userData = {
com.schriftgestaltung.Glyphs.glyph.leftMetricsKey = p;
com.schriftgestaltung.Glyphs.glyph.rightMetricsKey = p;
};
width = 615;
}
);
note = thorn;
unicode = 254;
},
{
glyphname = q;
kernLeft = c;
kernRight = q;
lastChange = "2021-02-17 09:17:51 +0000";
layers = (
{
anchors = (
{
name = bottom;
pos = (315,0);
},
{
name = top;
pos = (315,510);
}
);
associatedMasterId = "10E6B24D-63A8-414A-9CC7-A409B0282D48";
layerId = master01;
shapes = (
{
closed = 1;
nodes = (
(609,535,l),
(609,-220,l),
(405,-220,l),
(405,131,l),
(450,117,l),
(437,62,o),
(331,-9,o),
(263,-9,q),
(161,-9,o),
(30,147,o),
(30,268,q),
(30,391,o),
(159,546,o),
(258,546,q),
(332,546,o),
(441,478,o),
(451,426,q),
(410,417,l),
(421,535,l)
);
},
{
closed = 1;
nodes = (
(229,214,o),
(276,156,o),
(319,156,q),
(363,156,o),
(410,214,o),
(410,268,q),
(410,322,o),
(363,381,o),
(319,381,q),
(276,381,o),
(229,322,o),
(229,268,q)
);
}
);
width = 679;
},
{
anchors = (
{
name = bottom;
pos = (315,0);
},
{
name = top;
pos = (315,510);
}
);
layerId = "10E6B24D-63A8-414A-9CC7-A409B0282D48";
shapes = (
{
closed = 1;
nodes = (
(558,526,l),
(558,-220,l),
(455,-220,l),
(455,125,l),
(475,125,l),
(475,78,o),
(357,-10,o),
(288,-10,q),
(182,-10,o),
(40,145,o),
(40,263,q),
(40,381,o),
(180,536,o),
(285,536,q),
(362,536,o),
(485,442,o),
(485,391,q),
(455,389,l),
(455,526,l)
);
},
{
closed = 1;
nodes = (
(139,186,o),
(229,85,o),
(299,85,q),
(369,85,o),
(459,185,o),
(459,263,q),
(459,341,o),
(369,442,o),
(299,442,q),
(229,442,o),
(139,340,o),
(139,263,q)
);
}
);
width = 630;
},
{
anchors = (
{
name = bottom;
pos = (315,0);
},
{
name = top;
pos = (315,510);
}
);
layerId = "00D75E95-6BF0-4E41-A2AB-01FED608A441";
shapes = (
{
closed = 1;
nodes = (
(532,525,l),
(532,-230,l),
(510,-230,l),
(510,172,l),
(519,175,l),
(499,94,o),
(375,-10,o),
(294,-10,q),
(184,-10,o),
(40,141,o),
(40,258,q),
(40,376,o),
(187,530,o),
(290,530,q),
(370,530,o),
(502,427,o),
(516,350,q),
(510,353,l),
(512,525,l)
);
},
{
closed = 1;
nodes = (
(62,152,o),
(190,12,o),
(293,12,q),
(385,12,o),
(510,150,o),
(510,260,q),
(510,368,o),
(385,508,o),
(291,508,q),
(190,508,o),
(62,367,o),
(62,258,q)
);
}
);
width = 611;
}
);
note = q;
unicode = 113;
},
{
glyphname = r;
kernLeft = m;
kernRight = r;
lastChange = "2021-02-17 09:17:51 +0000";
layers = (
{
anchors = (
{
name = bottom;
pos = (179,0);
},
{
name = top;
pos = (270,510);
}
);
associatedMasterId = "10E6B24D-63A8-414A-9CC7-A409B0282D48";
guides = (
{
angle = 90;
name = center;
pos = (168,140);
userData = {
UFO.identifier = IlOdgVURBL;
};
}
);
layerId = master01;
shapes = (
{
closed = 1;
nodes = (
(427,312,l),
(417,319,o),
(374,331,o),
(349,331,q),
(312,331,o),
(273,287,o),
(273,248,q),
(273,0,l),
(70,0,l),
(70,535,l),
(258,535,l),
(270,357,l),
(225,385,l),
(244,454,o),
(350,546,o),
(418,546,qs),
(436,546,o),
(468,541,o),
(483,537,q)
);
}
);
userData = {
com.schriftgestaltung.Glyphs.glyph.leftMetricsKey = n;
};
width = 493;
},
{
anchors = (
{
name = bottom;
pos = (126,0);
},
{
name = top;
pos = (217,510);
}
);
layerId = "10E6B24D-63A8-414A-9CC7-A409B0282D48";
shapes = (
{
closed = 1;
nodes = (
(366,414,l),
(354,419,o),
(325,426,o),
(311,426,qs),
(257,426,o),
(176,347,o),
(176,290,q),
(176,0,l),
(72,0,l),
(72,525,l),
(176,525,l),
(176,360,l),
(166,400,l),
(183,457,o),
(281,536,o),
(336,536,q),
(353,536,o),
(384,530,o),
(393,526,q)
);
}
);
userData = {
com.schriftgestaltung.Glyphs.glyph.leftMetricsKey = n;
};
width = 403;
},
{
anchors = (
{
name = bottom;
pos = (84,1);
},
{
name = top;
pos = (190,511);
}
);
layerId = "00D75E95-6BF0-4E41-A2AB-01FED608A441";
shapes = (
{
closed = 1;
nodes = (
(309,499,l),
(293,504,o),
(264,508,o),
(253,508,q),
(172,508,o),
(92,392,o),
(92,338,q),
(92,0,l),
(70,0,l),
(70,525,l),
(90,525,l),
(91,398,l),
(85,396,l),
(95,445,o),
(183,530,o),
(258,530,q),
(275,530,o),
(304,526,o),
(316,522,q)
);
}
);
userData = {
com.schriftgestaltung.Glyphs.glyph.leftMetricsKey = n;
};
width = 311;
}
);
note = r;
unicode = 114;
},
{
glyphname = s;
kernLeft = s;
kernRight = s;
lastChange = "2021-02-17 09:17:51 +0000";
layers = (
{
anchors = (
{
name = bottom;
pos = (238,0);
},
{
name = top;
pos = (238,530);
}
);
associatedMasterId = "10E6B24D-63A8-414A-9CC7-A409B0282D48";
guides = (
{
angle = 90;
pos = (253.5,0);
userData = {
UFO.identifier = ltrpoh4H29;
};
}
);
layerId = master01;
shapes = (
{
closed = 1;
nodes = (
(119,184,l),
(155.742,150.159,o),
(236.236,129,o),
(270,129,q),
(284,129,o),
(301,142,o),
(301,153,q),
(301,168,o),
(268,182,o),
(202,199,qs),
(122.944,219.014,o),
(24,302.193,o),
(24,372,q),
(24,453.068,o),
(166,546,o),
(253,546,qs),
(326,546,o),
(446,504,o),
(493,468,q),
(390,353,l),
(365,374,o),
(276,410,o),
(245,410,q),
(233,410,o),
(217,397,o),
(217,387,q),
(217,369,o),
(248.852,352.043,o),
(332,328,qs),
(408.85,306.043,o),
(497,236.025,o),
(497,179,qs),
(497,97,o),
(360,-10,o),
(253,-10,qs),
(166.435,-10,o),
(37.373,42.695,o),
(1,83,q)
);
}
);
width = 507;
},
{
anchors = (
{
name = bottom;
pos = (238,0);
},
{
name = top;
pos = (238,530);
}
);
layerId = "10E6B24D-63A8-414A-9CC7-A409B0282D48";
shapes = (
{
closed = 1;
nodes = (
(110,141,l),
(140,106,o),
(211,75,o),
(256,75,q),
(293,75,o),
(340,111,o),
(340,142,q),
(340,168,o),
(302,199,o),
(234,217,q),
(132,244,o),
(53,323,o),
(53,385,q),
(53,451,o),
(162,536,o),
(241,536,q),
(297,536,o),
(402,491,o),
(434,452,q),
(375,387,l),
(346,416,o),
(275,451,o),
(246,451,q),
(203,451,o),
(156,419,o),
(156,388,q),
(157,361,o),
(199,327,o),
(267,310,q),
(366,284,o),
(437,208,o),
(437,146,q),
(437,78,o),
(326,-10,o),
(247,-10,q),
(181,-10,o),
(75,36,o),
(40,81,q)
);
}
);
width = 479;
},
{
anchors = (
{
name = bottom;
pos = (238,0);
},
{
name = top;
pos = (238,530);
}
);
layerId = "00D75E95-6BF0-4E41-A2AB-01FED608A441";
shapes = (
{
closed = 1;
nodes = (
(62,96,l),
(90,59,o),
(186,12,o),
(250,12,q),
(331,12,o),
(403,86,o),
(403,133,q),
(403,182,o),
(320,238,o),
(241,256,qs),
(154.287,275.934,o),
(65,343.605,o),
(65,393,q),
(65,454.976,o),
(160,530,o),
(240,530,q),
(293,530,o),
(386.778,486.092,o),
(422,445,q),
(406,427,l),
(372.834,465.043,o),
(290,508,o),
(240,508,q),
(167,508,o),
(87,443.434,o),
(87,394,q),
(87,354,o),
(167.303,296.93,o),
(245,279,qs),
(336,258,o),
(425,193,o),
(425,133,qs),
(425,68,o),
(331,-10,o),
(248,-10,q),
(182,-10,o),
(74,40,o),
(45,81,q)
);
}
);
width = 479;
}
);
note = s;
unicode = 115;
},
{
color = (151,255,122,255);
glyphname = germandbls;
kernLeft = f;
kernRight = b;
lastChange = "2021-02-17 09:17:51 +0000";
layers = (
{
associatedMasterId = "10E6B24D-63A8-414A-9CC7-A409B0282D48";
layerId = master01;
shapes = (
{
closed = 1;
nodes = (
(40,335,l),
(40,505,l),
(203,505,l),
(203,335,l)
);
},
{
closed = 1;
nodes = (
(113,0,l),
(113,499,l),
(113,604,o),
(248,734,o),
(373,734,q),
(471,734,o),
(612,645,o),
(612,559,q),
(612,505,o),
(550,397,o),
(494,373,q),
(492,432,l),
(579,405,o),
(687,292,o),
(687,203,qs),
(687,112,o),
(557,-10,o),
(457,-10,qs),
(420,-10,o),
(360,10,o),
(337,29,q),
(408,180,l),
(420,172,o),
(437,167,o),
(447,167,q),
(467,167,o),
(490,188,o),
(490,211,q),
(490,244,o),
(442,282,o),
(369,322,q),
(369,422,l),
(400,436,o),
(422,468,o),
(422,495,q),
(422,522,o),
(391,549,o),
(365,549,q),
(338,549,o),
(316,520,o),
(316,495,q),
(316,0,l)
);
}
);
userData = {
com.schriftgestaltung.Glyphs.glyph.leftMetricsKey = f;
com.schriftgestaltung.Glyphs.glyph.rightMetricsKey = s;
};
width = 717;
},
{
layerId = "10E6B24D-63A8-414A-9CC7-A409B0282D48";
shapes = (
{
closed = 1;
nodes = (
(45,404,l),
(45,497,l),
(180,497,l),
(180,404,l)
);
},
{
closed = 1;
nodes = (
(129,0,l),
(129,499,l),
(129,604,o),
(251,734,o),
(354,734,q),
(445,734,o),
(553,645,o),
(553,574,q),
(553,533,o),
(496,460,o),
(449,439,q),
(447,443,l),
(525,418,o),
(622,289,o),
(622,203,qs),
(622,112,o),
(509,-10,o),
(422,-10,qs),
(374,-10,o),
(302,23,o),
(275,57,q),
(327,112,l),
(354,88,o),
(400,68,o),
(424,68,q),
(470,68,o),
(525,136,o),
(525,189,qs),
(525,267,o),
(438,362,o),
(344,385,q),
(344,450,l),
(401,475,o),
(457,532,o),
(457,565,q),
(457,602,o),
(400,644,o),
(350,644,q),
(293,644,o),
(226,566,o),
(226,502,q),
(226,0,l)
);
}
);
userData = {
com.schriftgestaltung.Glyphs.glyph.leftMetricsKey = f;
com.schriftgestaltung.Glyphs.glyph.rightMetricsKey = s;
};
width = 664;
},
{
guides = (
{
pos = (244,432);
},
{
pos = (133,412);
}
);
layerId = "00D75E95-6BF0-4E41-A2AB-01FED608A441";
shapes = (
{
closed = 1;
nodes = (
(40,416,l),
(40,438,l),
(138,438,l),
(138,416,l)
);
},
{
closed = 1;
nodes = (
(126,0,l),
(126,494,ls),
(126,611,o),
(227.65,728,o),
(316,728,q),
(399.191,728,o),
(489,640,o),
(489,577,q),
(489,507.764,o),
(388,420,o),
(318,420,q),
(318,432,l),
(457,388,o),
(562,258,o),
(562,186,q),
(562,89,o),
(462.492,-8.985,o),
(364,-10,q),
(303.075,-9.017,o),
(222.021,38.964,o),
(194,88,q),
(214,100,l),
(242.952,50.083,o),
(317.247,12,o),
(364,12,qs),
(444.378,12,o),
(539,91,o),
(539,188,q),
(539,264,o),
(422.462,380.678,o),
(310,414,q),
(310,437,l),
(381.004,441,o),
(466,518.667,o),
(466,577,q),
(466,631,o),
(387.419,706,o),
(321,706,q),
(237.809,706,o),
(148,601,o),
(148,493,q),
(148,0,l)
);
}
);
userData = {
com.schriftgestaltung.Glyphs.glyph.leftMetricsKey = f;
com.schriftgestaltung.Glyphs.glyph.rightMetricsKey = s;
};
width = 604;
}
);
note = germandbls;
unicode = 223;
},
{
glyphname = t;
kernLeft = t;
kernRight = t;
lastChange = "2021-02-17 09:17:51 +0000";
layers = (
{
anchors = (
{
name = bottom;
pos = (204,0);
},
{
name = center;
pos = (204,256);
},
{
name = top;
pos = (205,646);
},
{
name = topright;
pos = (458,700);
}
);
associatedMasterId = "10E6B24D-63A8-414A-9CC7-A409B0282D48";
guides = (
{
angle = 90;
name = center;
pos = (194,581);
userData = {
UFO.identifier = WtIJ6OYv2w;
};
}
);
layerId = master01;
shapes = (
{
closed = 1;
nodes = (
(301,0,l),
(98,0,l),
(98,670,l),
(301,670,l)
);
},
{
closed = 1;
nodes = (
(389,365,l),
(15,365,l),
(15,535,l),
(389,535,l)
);
}
);
width = 409;
},
{
anchors = (
{
name = bottom;
pos = (182,0);
},
{
name = center;
pos = (182,256);
},
{
name = top;
pos = (183,646);
},
{
name = topright;
pos = (308,548);
}
);
layerId = "10E6B24D-63A8-414A-9CC7-A409B0282D48";
shapes = (
{
closed = 1;
nodes = (
(240,0,l),
(137,0,l),
(137,659,l),
(240,659,l)
);
},
{
closed = 1;
nodes = (
(362,425,l),
(28,425,l),
(28,525,l),
(362,525,l)
);
}
);
width = 384;
},
{
anchors = (
{
name = bottom;
pos = (167,0);
},
{
name = center;
pos = (173,256);
},
{
name = top;
pos = (174,646);
},
{
name = topright;
pos = (351,700);
}
);
layerId = "00D75E95-6BF0-4E41-A2AB-01FED608A441";
shapes = (
{
closed = 1;
nodes = (
(185,0,l),
(163,0,l),
(163,659,l),
(185,659,l)
);
},
{
closed = 1;
nodes = (
(335,503,l),
(20,503,l),
(20,525,l),
(335,525,l)
);
}
);
width = 350;
}
);
note = t;
unicode = 116;
},
{
glyphname = u;
kernLeft = u;
kernRight = u;
lastChange = "2021-02-17 09:17:51 +0000";
layers = (
{
anchors = (
{
name = bottom;
pos = (299,0);
},
{
name = ogonek;
pos = (570,10);
},
{
name = top;
pos = (330,510);
},
{
name = topright;
pos = (504,463);
}
);
associatedMasterId = "10E6B24D-63A8-414A-9CC7-A409B0282D48";
layerId = master01;
shapes = (
{
closed = 1;
nodes = (
(356,154,o),
(394,190,o),
(394,217,q),
(394,535,l),
(597,535,l),
(597,0,l),
(411,0,l),
(399,108,l),
(437,120,l),
(421,63,o),
(315,-11,o),
(249,-11,qs),
(158,-11,o),
(60,101,o),
(60,205,q),
(60,535,l),
(263,535,l),
(263,222,l),
(263,189,o),
(296,154,o),
(326,154,q)
);
}
);
width = 669;
},
{
anchors = (
{
name = bottom;
pos = (299,0);
},
{
name = ogonek;
pos = (530,0);
},
{
name = top;
pos = (299,510);
},
{
name = topright;
pos = (386,532);
}
);
layerId = "10E6B24D-63A8-414A-9CC7-A409B0282D48";
shapes = (
{
closed = 1;
nodes = (
(355,80,o),
(430,152,o),
(430,209,q),
(430,525,l),
(533,525,l),
(533,0,l),
(430,0,l),
(430,110,l),
(448,122,l),
(430,66,o),
(323,-10,o),
(256,-10,qs),
(172,-10,o),
(72,104,o),
(72,201,q),
(72,525,l),
(175,525,l),
(175,229,l),
(175,160,o),
(240,80,o),
(298,80,qs)
);
}
);
width = 605;
},
{
anchors = (
{
name = bottom;
pos = (264,0);
},
{
name = ogonek;
pos = (495,10);
},
{
name = top;
pos = (271,510);
},
{
name = topright;
pos = (484,510);
}
);
layerId = "00D75E95-6BF0-4E41-A2AB-01FED608A441";
shapes = (
{
closed = 1;
nodes = (
(338,12,o),
(444,117,o),
(444,149,q),
(444,525,l),
(466,525,l),
(466,0,l),
(446,0,l),
(444,121,l),
(453,123,l),
(435.482,69.416,o),
(330,-10,o),
(263,-10,q),
(172,-10,o),
(73,88.376,o),
(73,197,q),
(73,525,l),
(95,525,l),
(95,197,l),
(95,99.361,o),
(183,12,o),
(265,12,q)
);
}
);
width = 538;
}
);
note = u;
unicode = 117;
},
{
glyphname = v;
kernLeft = v;
kernRight = v;
lastChange = "2021-02-17 09:17:51 +0000";
layers = (
{
anchors = (
{
name = bottom;
pos = (287,0);
},
{
name = top;
pos = (287,510);
}
);
associatedMasterId = "10E6B24D-63A8-414A-9CC7-A409B0282D48";
guides = (
{
angle = 90;
pos = (315,-119);
userData = {
UFO.identifier = bNWRhTOJvG;
};
}
);
layerId = master01;
shapes = (
{
closed = 1;
nodes = (
(231,535,l),
(342,136,l),
(288,136,l),
(398,535,l),
(624,535,l),
(391,0,l),
(227,0,l),
(5,535,l)
);
}
);
width = 629;
},
{
anchors = (
{
name = bottom;
pos = (287,0);
},
{
name = top;
pos = (287,510);
}
);
layerId = "10E6B24D-63A8-414A-9CC7-A409B0282D48";
shapes = (
{
closed = 1;
nodes = (
(133,525,l),
(293,132,l),
(274,123,l),
(445,525,l),
(551,525,l),
(318,0,l),
(244,0,l),
(22,525,l)
);
}
);
width = 573;
},
{
anchors = (
{
name = bottom;
pos = (245,0);
},
{
name = top;
pos = (245,510);
}
);
layerId = "00D75E95-6BF0-4E41-A2AB-01FED608A441";
shapes = (
{
closed = 1;
nodes = (
(40,525,l),
(240,24,l),
(227,24,l),
(427,525,l),
(452,525,l),
(241,0,l),
(226,0,l),
(15,525,l)
);
}
);
width = 467;
}
);
note = v;
unicode = 118;
},
{
glyphname = w;
kernLeft = w;
kernRight = w;
lastChange = "2021-02-17 09:17:51 +0000";
layers = (
{
anchors = (
{
name = bottom;
pos = (429,0);
},
{
name = top;
pos = (429,505);
}
);
associatedMasterId = "10E6B24D-63A8-414A-9CC7-A409B0282D48";
guides = (
{
angle = 90;
pos = (426,-103);
userData = {
UFO.identifier = OgyboDb46H;
};
}
);
layerId = master01;
shapes = (
{
closed = 1;
nodes = (
(854,535,l),
(671,0,l),
(517,0,l),
(425,248,l),
(429,248,l),
(331,0,l),
(177,0,l),
(5,535,l),
(221,535,l),
(298,226,l),
(278,230,l),
(366,470,l),
(484,470,l),
(582,230,l),
(562,227,l),
(638,535,l)
);
}
);
userData = {
com.schriftgestaltung.Glyphs.glyph.leftMetricsKey = v;
com.schriftgestaltung.Glyphs.glyph.rightMetricsKey = v;
};
width = 859;
},
{
anchors = (
{
name = bottom;
pos = (410,0);
},
{
name = top;
pos = (410,505);
}
);
layerId = "10E6B24D-63A8-414A-9CC7-A409B0282D48";
shapes = (
{
closed = 1;
nodes = (
(778,525,l),
(601,0,l),
(530,0,l),
(384,334,l),
(407,331,l),
(271,0,l),
(201,0,l),
(22,525,l),
(126,526,l),
(254,133,l),
(231,135,l),
(370,442,l),
(432,442,l),
(572,134,l),
(545,132,l),
(674,525,l)
);
}
);
userData = {
com.schriftgestaltung.Glyphs.glyph.leftMetricsKey = v;
com.schriftgestaltung.Glyphs.glyph.rightMetricsKey = v;
};
width = 800;
},
{
anchors = (
{
name = bottom;
pos = (372,0);
},
{
name = top;
pos = (372,505);
}
);
layerId = "00D75E95-6BF0-4E41-A2AB-01FED608A441";
shapes = (
{
closed = 1;
nodes = (
(728,525,l),
(543,0,l),
(529,0,l),
(364,422,l),
(379,422,l),
(214,0,l),
(200,0,l),
(15,525,l),
(39,525,l),
(215,24,l),
(200,24,l),
(364,444,l),
(379,444,l),
(543,24,l),
(528,24,l),
(704,525,l)
);
}
);
userData = {
com.schriftgestaltung.Glyphs.glyph.leftMetricsKey = v;
com.schriftgestaltung.Glyphs.glyph.rightMetricsKey = v;
};
width = 743;
}
);
note = w;
unicode = 119;
},
{
glyphname = x;
kernLeft = x;
kernRight = x;
lastChange = "2021-02-17 09:17:51 +0000";
layers = (
{
anchors = (
{
name = bottom;
pos = (321,0);
},
{
name = top;
pos = (321,510);
}
);
associatedMasterId = "10E6B24D-63A8-414A-9CC7-A409B0282D48";
guides = (
{
angle = 90;
pos = (20,58);
userData = {
UFO.identifier = Wt6Xc91hF7;
};
},
{
angle = 90;
pos = (623,-57);
userData = {
UFO.identifier = xIjz0tRDxR;
};
},
{
pos = (686,273);
userData = {
UFO.identifier = 0jDQvzAmMt;
};
}
);
layerId = master01;
shapes = (
{
closed = 1;
nodes = (
(267,535,l),
(333,413,ls),
(434,273,l),
(619,0,l),
(381,0,l),
(310,134,l),
(209,274,l),
(29,535,l)
);
},
{
closed = 1;
nodes = (
(20,0,l),
(239,319,l),
(344,194,l),
(258,0,l)
);
},
{
closed = 1;
nodes = (
(614,535,l),
(394,214,l),
(289,339,l),
(376,535,l)
);
}
);
width = 639;
},
{
anchors = (
{
name = bottom;
pos = (277,0);
},
{
name = top;
pos = (277,510);
}
);
layerId = "10E6B24D-63A8-414A-9CC7-A409B0282D48";
shapes = (
{
closed = 1;
nodes = (
(145,525,l),
(312,307,l),
(329,285,l),
(547,0,l),
(421,0,l),
(251,221,l),
(236,240,l),
(15,525,l)
);
},
{
closed = 1;
nodes = (
(16,0,l),
(223,270,l),
(279,190,l),
(137,-1,l)
);
},
{
closed = 1;
nodes = (
(529,525,l),
(335,254,l),
(278,326,l),
(407,525,l)
);
}
);
width = 562;
},
{
anchors = (
{
name = bottom;
pos = (238,0);
},
{
name = top;
pos = (238,510);
}
);
layerId = "00D75E95-6BF0-4E41-A2AB-01FED608A441";
shapes = (
{
closed = 1;
nodes = (
(52,525,l),
(251,267,l),
(247,272,l),
(465,0,l),
(435,0,l),
(230,255,l),
(233,252,l),
(22,525,l)
);
},
{
closed = 1;
nodes = (
(10,0,l),
(232,277,l),
(248,262,l),
(40,0,l)
);
},
{
closed = 1;
nodes = (
(452,525,l),
(247,261,l),
(232,277,l),
(422,525,l)
);
}
);
width = 475;
}
);
note = x;
unicode = 120;
},
{
glyphname = y;
kernLeft = y;
kernRight = y;
lastChange = "2021-02-17 09:17:51 +0000";
layers = (
{
anchors = (
{
name = bottom;
pos = (538,0);
},
{
name = top;
pos = (333,510);
}
);
associatedMasterId = "10E6B24D-63A8-414A-9CC7-A409B0282D48";
layerId = master01;
shapes = (
{
closed = 1;
nodes = (
(257,0,l),
(5,535,l),
(231,535,l),
(305,357,ls),
(329,300,o),
(348,214,o),
(348,187,q)
);
},
{
closed = 1;
nodes = (
(121,-230,l),
(254,83,l),
(298,196,l),
(307,218,o),
(316,239,o),
(325,261,q),
(418,535,l),
(644,535,l),
(411,0,l),
(317,-230,l)
);
}
);
width = 649;
},
{
anchors = (
{
name = bottom;
pos = (490,0);
},
{
name = top;
pos = (285,510);
}
);
layerId = "10E6B24D-63A8-414A-9CC7-A409B0282D48";
shapes = (
{
closed = 1;
nodes = (
(265,-63,l),
(5,525,l),
(125,525,l),
(289,139,ls),
(295,126,o),
(315,64,o),
(320,45,q)
);
},
{
closed = 1;
nodes = (
(160,-230,l),
(246,-33,l),
(285,58,l),
(290,71,o),
(302,104,o),
(317,146,q),
(454,525,l),
(576,525,l),
(360,0,l),
(271,-230,l)
);
}
);
width = 581;
},
{
anchors = (
{
name = bottom;
pos = (457,0);
},
{
name = top;
pos = (262,510);
}
);
layerId = "00D75E95-6BF0-4E41-A2AB-01FED608A441";
shapes = (
{
closed = 1;
nodes = (
(257,-8,l),
(15,525,l),
(40,525,l),
(237,90,ls),
(241,82,o),
(263,32,o),
(268,22,q)
);
},
{
closed = 1;
nodes = (
(157,-230,l),
(237,-29,l),
(255,16,l),
(257,20,o),
(259,24,o),
(261,28,q),
(461,525,l),
(486,525,l),
(269,-13,l),
(182,-230,l)
);
}
);
width = 501;
}
);
note = y;
unicode = 121;
},
{
glyphname = z;
kernLeft = z;
kernRight = z;
lastChange = "2021-02-17 09:17:51 +0000";
layers = (
{
anchors = (
{
name = bottom;
pos = (288,0);
},
{
name = top;
pos = (296,510);
}
);
associatedMasterId = "10E6B24D-63A8-414A-9CC7-A409B0282D48";
layerId = master01;
shapes = (
{
closed = 1;
nodes = (
(543,160,l),
(543,0,l),
(50,0,l),
(50,96,l),
(341,458,l),
(341,375,l),
(50,375,l),
(50,535,l),
(533,535,l),
(533,431,l),
(266,84,l),
(262,160,l)
);
}
);
width = 599;
},
{
anchors = (
{
name = bottom;
pos = (240,0);
},
{
name = top;
pos = (248,510);
}
);
layerId = "10E6B24D-63A8-414A-9CC7-A409B0282D48";
shapes = (
{
closed = 1;
nodes = (
(439,89,l),
(439,0,l),
(50,0,l),
(50,86,l),
(321,448,l),
(321,436,l),
(50,436,l),
(50,525,l),
(433,525,l),
(433,441,l),
(166,84,l),
(162,89,l)
);
}
);
width = 484;
},
{
anchors = (
{
name = bottom;
pos = (217,0);
},
{
name = top;
pos = (204,510);
}
);
layerId = "00D75E95-6BF0-4E41-A2AB-01FED608A441";
shapes = (
{
closed = 1;
nodes = (
(394,22,l),
(394,0,l),
(35,0,l),
(35,26,l),
(361,521,l),
(359,503,l),
(35,503,l),
(35,525,l),
(373,525,l),
(373,497,l),
(51,10,l),
(47,22,l)
);
}
);
width = 429;
}
);
note = z;
unicode = 122;
},
{
color = (136,231,255,255);
glyphname = a.ss01;
kernLeft = c;
kernRight = a;
lastChange = "2021-02-17 09:17:51 +0000";
layers = (
{
anchors = (
{
name = bottom;
pos = (277,-13);
},
{
name = ogonek;
pos = (506,10);
},
{
name = top;
pos = (309,530);
}
);
associatedMasterId = "10E6B24D-63A8-414A-9CC7-A409B0282D48";
layerId = master01;
shapes = (
{
closed = 1;
nodes = (
(406,546,o),
(536,454,o),
(536,352,q),
(536,0,l),
(335,0,l),
(335,315,l),
(335,355,o),
(302,382,o),
(265,382,q),
(231,382,o),
(176,358,o),
(148,327,q),
(33,440,l),
(82,485,o),
(215,546,o),
(299,546,q)
);
},
{
closed = 1;
nodes = (
(442,309,l),
(433,197,l),
(283,197,ls),
(256,197,o),
(227,178,o),
(227,161,q),
(227,147,o),
(252,128,o),
(272,128,q),
(301,128,o),
(348,154,o),
(362,180,q),
(392,107,l),
(361,56,o),
(263,-10,o),
(208,-10,q),
(132,-10,o),
(30,77,o),
(30,149,q),
(30,228,o),
(149,309,o),
(266,309,q)
);
}
);
width = 591;
},
{
anchors = (
{
name = bottom;
pos = (277,-13);
},
{
name = ogonek;
pos = (466,10);
},
{
name = top;
pos = (279,530);
}
);
layerId = "10E6B24D-63A8-414A-9CC7-A409B0282D48";
shapes = (
{
closed = 1;
nodes = (
(217,536,o),
(280,536,q),
(370,536,o),
(476,446,o),
(476,364,q),
(476,0,l),
(383,0,l),
(383,342,l),
(383,386,o),
(320,441,o),
(272,441,q),
(228,441,o),
(157,405,o),
(128,368,q),
(61,435,l),
(108,486,o)
);
},
{
closed = 1;
nodes = (
(430,319,l),
(421,237,l),
(271,237,ls),
(210,237,o),
(145,192,o),
(145,151,q),
(145,118,o),
(193,78,o),
(230,78,q),
(284,78,o),
(375,133,o),
(396,174,q),
(420,107,l),
(388,55,o),
(284,-10,o),
(226,-10,q),
(150,-10,o),
(48,77,o),
(48,149,q),
(48,233,o),
(167,319,o),
(284,319,q)
);
}
);
width = 534;
},
{
anchors = (
{
name = bottom;
pos = (260,-13);
},
{
name = ogonek;
pos = (494,10);
},
{
name = top;
pos = (262,530);
}
);
guides = (
{
pos = (488,297);
},
{
pos = (474,275);
},
{
angle = 270;
name = center;
pos = (268.5,0);
}
);
layerId = "00D75E95-6BF0-4E41-A2AB-01FED608A441";
shapes = (
{
closed = 1;
nodes = (
(362,530,o),
(464,443,o),
(464,364,q),
(464,0,l),
(442,0,l),
(442,367,l),
(442,431,o),
(353,508,o),
(271,508,q),
(214.594,508,o),
(116,459,o),
(81,414,q),
(65,430,l),
(105,479,o),
(209.603,530,o),
(272,530,q)
);
},
{
closed = 1;
nodes = (
(450,287,l),
(450,265,l),
(240,265,l),
(155,265,o),
(62,205,o),
(62,149,q),
(62,88,o),
(155,12,o),
(219,12,q),
(293,12,o),
(414,92,o),
(447,157,q),
(460,146,l),
(424,77,o),
(298,-10,o),
(218,-10,q),
(142,-10,o),
(40,77,o),
(40,149,q),
(40,215,o),
(144,287,o),
(246,287,q)
);
}
);
width = 537;
}
);
note = a;
},
{
glyphname = g.ss01;
lastChange = "2021-02-17 09:17:51 +0000";
layers = (
{
anchors = (
{
name = top;
pos = (318,525);
}
);
associatedMasterId = "10E6B24D-63A8-414A-9CC7-A409B0282D48";
guides = (
{
angle = 90;
pos = (35,269);
userData = {
UFO.identifier = 3Gj2tJUCBy;
};
}
);
layerId = master01;
shapes = (
{
closed = 1;
nodes = (
(75,441,o),
(215,546,o),
(314,546,q),
(335,546,o),
(376,540,o),
(424,527,q),
(365,535,l),
(618,535,l),
(618,402,l),
(514,402,l),
(537,431,l),
(546,394,o),
(548,376,o),
(548,367,q),
(548,290,o),
(410,181,o),
(311,181,qs),
(290,181,l),
(275,181,o),
(257,168,o),
(257,155,q),
(257,143,o),
(274,130,o),
(290,130,q),
(329,130,ls),
(464,130,o),
(618,43,o),
(618,-50,qs),
(618,-136,o),
(464,-230,o),
(329,-230,qs),
(187,-230,o),
(40,-136,o),
(40,-50,qs),
(40,-4,o),
(82,63,o),
(145,100,q),
(144,68,l),
(99,99,o),
(76,133,o),
(76,152,q),
(76,178,o),
(115,219,o),
(175,242,q),
(171,213,l),
(114,256,o),
(75,327,o),
(75,367,q)
);
},
{
closed = 1;
nodes = (
(289,411,o),
(255,382,o),
(255,362,q),
(255,339,o),
(289,309,o),
(314,309,qs),
(339,309,o),
(373,338,o),
(373,362,q),
(373,382,o),
(339,411,o),
(314,411,q)
);
},
{
closed = 1;
nodes = (
(367,-93,o),
(413,-68,o),
(413,-50,qs),
(413,-30,o),
(367,-7,o),
(328,-7,qs),
(290,-7,o),
(245,-30,o),
(245,-50,qs),
(245,-68,o),
(290,-93,o),
(328,-93,qs)
);
}
);
width = 638;
},
{
anchors = (
{
name = top;
pos = (256,525);
}
);
background = {
shapes = (
{
closed = 1;
nodes = (
(213,441,o),
(154,387,o),
(154,348,q),
(154,306,o),
(213,252,o),
(256,252,qs),
(299,252,o),
(358,305,o),
(358,348,q),
(358,387,o),
(299,441,o),
(256,441,q)
);
},
{
closed = 1;
nodes = (
(317,521,l),
(507,521,l),
(507,437,l),
(317,437,l)
);
},
{
closed = 1;
nodes = (
(51,424,o),
(171,531,o),
(256,531,q),
(341,531,o),
(461,424,o),
(461,348,q),
(461,271,o),
(341,162,o),
(256,162,q),
(171,162,o),
(51,271,o),
(51,348,q)
);
},
{
closed = 1;
nodes = (
(137,18,o),
(39,82,o),
(39,129,q),
(39,172,o),
(132,231,o),
(196,231,q),
(251,231,l),
(251,162,l),
(195,162,l),
(174,162,o),
(150,143,o),
(150,128,q),
(150,110,o),
(174,90,o),
(195,90,q),
(264,90,l),
(264,19,l),
(197,18,l)
);
},
{
closed = 1;
nodes = (
(331,-150,o),
(405,-108,o),
(405,-75,qs),
(405,-41,o),
(331,0,o),
(268,0,qs),
(208,0,o),
(133,-41,o),
(133,-75,qs),
(133,-108,o),
(208,-150,o),
(268,-150,qs)
);
},
{
closed = 1;
nodes = (
(152,-240,o),
(30,-146,o),
(30,-75,qs),
(30,1,o),
(166,90,o),
(269,90,qs),
(381,90,o),
(508,1,o),
(508,-75,qs),
(508,-146,o),
(381,-240,o),
(269,-240,qs)
);
}
);
};
layerId = "10E6B24D-63A8-414A-9CC7-A409B0282D48";
shapes = (
{
closed = 1;
nodes = (
(51,424,o),
(171,531,o),
(256,531,q),
(274,531,o),
(308,526,o),
(351,512,q),
(303,521,l),
(507,521,l),
(507,437,l),
(406,437,l),
(421,463,l),
(448,417,o),
(461,372,o),
(461,348,q),
(461,271,o),
(341,162,o),
(256,162,qs),
(195,162,l),
(174,162,o),
(150,143,o),
(150,128,q),
(150,110,o),
(174,90,o),
(195,90,q),
(269,90,ls),
(381,90,o),
(508,1,o),
(508,-75,qs),
(508,-146,o),
(381,-240,o),
(269,-240,qs),
(152,-240,o),
(30,-146,o),
(30,-75,qs),
(30,-37,o),
(65,23,o),
(120,62,q),
(122,30,l),
(71,60,o),
(39,103,o),
(39,129,q),
(39,157,o),
(79,202,o),
(140,226,q),
(134,195,l),
(84,240,o),
(51,309,o),
(51,348,q)
);
},
{
closed = 1;
nodes = (
(213,441,o),
(154,387,o),
(154,348,q),
(154,306,o),
(213,252,o),
(256,252,qs),
(299,252,o),
(358,305,o),
(358,348,q),
(358,387,o),
(299,441,o),
(256,441,q)
);
},
{
closed = 1;
nodes = (
(331,-150,o),
(405,-108,o),
(405,-75,qs),
(405,-41,o),
(331,0,o),
(268,0,qs),
(208,0,o),
(133,-41,o),
(133,-75,qs),
(133,-108,o),
(208,-150,o),
(268,-150,qs)
);
}
);
width = 538;
},
{
anchors = (
{
name = top;
pos = (284,525);
}
);
background = {
shapes = (
{
closed = 1;
nodes = (
(220,481,o),
(138,412,o),
(138,362,q),
(138,311,o),
(220,243,o),
(280,243,qs),
(340,243,o),
(422,309,o),
(422,362,q),
(422,411,o),
(340,481,o),
(280,481,q)
);
},
{
closed = 1;
nodes = (
(347,520,l),
(521,520,l),
(521,472,l),
(347,472,l)
);
},
{
closed = 1;
nodes = (
(85,432,o),
(199,531,o),
(280,531,q),
(361,531,o),
(475,432,o),
(475,362,q),
(475,292,o),
(361,193,o),
(280,193,q),
(199,193,o),
(85,292,o),
(85,362,q)
);
},
{
closed = 1;
nodes = (
(151,28,o),
(88,86,o),
(88,128,q),
(88,172,o),
(151,230,o),
(195,230,q),
(280,225,l),
(280,193,l),
(201,193,l),
(174,193,o),
(139,155,o),
(139,129,q),
(139,98,o),
(173,65,o),
(202,65,q),
(293,66,l),
(293,29,l),
(196,28,l)
);
},
{
closed = 1;
nodes = (
(368,-180,o),
(464,-121,o),
(464,-77,qs),
(464,-29,o),
(368,26,o),
(287,26,qs),
(208,26,o),
(112,-29,o),
(112,-77,qs),
(112,-121,o),
(208,-180,o),
(287,-180,qs)
);
},
{
closed = 1;
nodes = (
(176,-230,o),
(59,-142,o),
(59,-77,qs),
(59,-6,o),
(189,76,o),
(288,76,qs),
(395,76,o),
(517,-6,o),
(517,-77,qs),
(517,-142,o),
(395,-230,o),
(288,-230,qs)
);
}
);
};
guides = (
{
pos = (940,531);
},
{
angle = 270;
name = center;
pos = (274,350);
}
);
layerId = "00D75E95-6BF0-4E41-A2AB-01FED608A441";
shapes = (
{
closed = 1;
nodes = (
(85,429,o),
(199,531,o),
(280,531,q),
(295,531,o),
(341,524,o),
(377,511,q),
(318,520,l),
(521,520,l),
(521,498,l),
(364,498,l),
(370,516,l),
(441,465,o),
(475,395,o),
(475,357,q),
(475,280,o),
(368,180,o),
(280,180,qs),
(183,180,l),
(150,180,o),
(114,150,o),
(114,130,q),
(114,105,o),
(151,79,o),
(183,79,q),
(288,79,ls),
(395,79,o),
(517,-4,o),
(517,-76,qs),
(517,-142,o),
(395,-231,o),
(288,-231,qs),
(176,-231,o),
(59,-142,o),
(59,-76,qs),
(59,-26,o),
(126,49,o),
(201,72,q),
(201,56,l),
(135.997,58,o),
(91,96.671,o),
(91,129,q),
(91,159,o),
(135,200,o),
(195,201,q),
(217,187,l),
(142,217,o),
(85,306,o),
(85,357,q)
);
},
{
closed = 1;
nodes = (
(207,509,o),
(108,421,o),
(108,357,q),
(108,290,o),
(207,202,o),
(280,202,qs),
(353,202,o),
(452,287,o),
(452,357,q),
(452,420,o),
(353,509,o),
(280,509,q)
);
},
{
closed = 1;
nodes = (
(382,-209,o),
(494,-133,o),
(494,-76,qs),
(494,-14,o),
(382,57,o),
(287,57,qs),
(194,57,o),
(82,-14,o),
(82,-76,qs),
(82,-133,o),
(194,-209,o),
(287,-209,qs)
);
}
);
width = 580;
}
);
},
{
color = (136,231,255,255);
glyphname = ordfeminine;
lastChange = "2021-02-17 09:17:51 +0000";
layers = (
{
associatedMasterId = "10E6B24D-63A8-414A-9CC7-A409B0282D48";
guides = (
{
pos = (250,624);
userData = {
UFO.identifier = YvAH4A0TT9;
};
},
{
pos = (228,488);
userData = {
UFO.identifier = wDwVpSAAsd;
};
}
);
layerId = master01;
shapes = (
{
closed = 1;
nodes = (
(201,390,o),
(137,390,q),
(83,390,o),
(20,485,o),
(20,562,q),
(20,631,o),
(92,722,o),
(149,722,q),
(209,722,o),
(262,660,o),
(262,602,q),
(237,648,l),
(237,715,l),
(370,715,l),
(370,401,l),
(237,401,l),
(237,474,l),
(262,502,l),
(262,459,o)
);
},
{
closed = 1;
nodes = (
(151,531,o),
(174,498,o),
(196,498,q),
(216,498,o),
(241,531,o),
(241,558,q),
(241,584,o),
(217,614,o),
(195,614,q),
(176,614,o),
(151,582,o),
(151,559,q)
);
}
);
width = 410;
},
{
layerId = "10E6B24D-63A8-414A-9CC7-A409B0282D48";
shapes = (
{
closed = 1;
nodes = (
(189,391,o),
(143,391,q),
(84,391,o),
(15,485,o),
(15,562,q),
(15,631,o),
(93,721,o),
(155,721,q),
(204,721,o),
(257,654,o),
(257,592,q),
(242,648,l),
(242,715,l),
(335,715,l),
(335,401,l),
(242,401,l),
(242,474,l),
(257,512,l),
(257,467,o)
);
},
{
closed = 1;
nodes = (
(108,514,o),
(142,458,o),
(172,458,q),
(205,458,o),
(246,511,o),
(246,555,q),
(246,601,o),
(206,654,o),
(171,654,q),
(145,654,o),
(108,600,o),
(108,562,q)
);
}
);
width = 365;
},
{
layerId = "00D75E95-6BF0-4E41-A2AB-01FED608A441";
shapes = (
{
closed = 1;
nodes = (
(114,402,o),
(30,493.26,o),
(30,561,qs),
(30,628.765,o),
(114,721,o),
(176,721,qs),
(219,721,o),
(287.134,677.587,o),
(299,641,q),
(290,644,l),
(291,716,l),
(310,716,l),
(310,403,l),
(290,403,l),
(290,478,l),
(299,484,l),
(287.131,446.416,o),
(219,402,o),
(176,402,qs)
);
},
{
closed = 1;
nodes = (
(50,502.228,o),
(121,422,o),
(175,422,q),
(225.431,422,o),
(292,484,o),
(292,561,q),
(292,639,o),
(224.422,701,o),
(175,701,q),
(121,701,o),
(50,620.733,o),
(50,561,q)
);
}
);
width = 365;
}
);
note = ordfeminine;
unicode = 170;
},
{
glyphname = ordmasculine;
lastChange = "2021-02-17 09:17:51 +0000";
layers = (
{
associatedMasterId = "10E6B24D-63A8-414A-9CC7-A409B0282D48";
layerId = master01;
shapes = (
{
closed = 1;
nodes = (
(291,721,o),
(394,625,o),
(394,556,q),
(394,486,o),
(293,393,o),
(216,393,q),
(140,393,o),
(40,485,o),
(40,556,q),
(40,626,o),
(140,721,o),
(216,721,q)
);
},
{
closed = 1;
nodes = (
(236,488,o),
(260,528,o),
(260,559,q),
(260,590,o),
(237,624,o),
(215,624,q),
(196,624,o),
(170,586,o),
(170,559,q),
(170,526,o),
(194,488,o),
(215,488,q)
);
}
);
width = 434;
},
{
layerId = "10E6B24D-63A8-414A-9CC7-A409B0282D48";
shapes = (
{
closed = 1;
nodes = (
(243,710,o),
(334,617,o),
(334,549,q),
(334,482,o),
(244,392,o),
(176,392,q),
(109,392,o),
(20,481,o),
(20,549,q),
(20,618,o),
(109,710,o),
(176,710,q)
);
},
{
closed = 1;
nodes = (
(207,463,o),
(245,511,o),
(245,549,q),
(245,589,o),
(207,639,o),
(176,639,q),
(145,639,o),
(108,589,o),
(108,549,q),
(108,511,o),
(146,463,o),
(176,463,q)
);
}
);
width = 354;
},
{
layerId = "00D75E95-6BF0-4E41-A2AB-01FED608A441";
shapes = (
{
closed = 1;
nodes = (
(240,731,o),
(320,633,o),
(320,561,qs),
(320,489,o),
(240,392,o),
(180,392,qs),
(121,392,o),
(40,489,o),
(40,561,qs),
(40,633,o),
(121,731,o),
(180,731,qs)
);
},
{
closed = 1;
nodes = (
(231,412,o),
(300,498,o),
(300,561,q),
(300,625,o),
(230,711,o),
(179,711,q),
(128,711,o),
(60,625,o),
(60,561,q),
(60,498,o),
(128,412,o),
(179,412,q)
);
}
);
width = 360;
}
);
note = ordmasculine;
unicode = 186;
},
{
glyphname = pi;
lastChange = "2021-02-17 09:17:51 +0000";
layers = (
{
associatedMasterId = "10E6B24D-63A8-414A-9CC7-A409B0282D48";
layerId = master01;
shapes = (
{
closed = 1;
nodes = (
(99,0,l),
(99,485,l),
(116,365,l),
(25,365,l),
(25,535,l),
(659,535,l),
(659,365,l),
(576,365,l),
(585,447,l),
(585,0,l),
(391,0,l),
(391,469,l),
(401,365,l),
(280,365,l),
(293,447,l),
(293,0,l)
);
}
);
width = 669;
},
{
layerId = "10E6B24D-63A8-414A-9CC7-A409B0282D48";
shapes = (
{
closed = 1;
nodes = (
(114,0,l),
(114,476,l),
(131,425,l),
(40,425,l),
(40,526,l),
(574,526,l),
(574,425,l),
(491,425,l),
(500,438,l),
(500,0,l),
(409,0,l),
(409,460,l),
(419,425,l),
(192,425,l),
(205,438,l),
(205,0,l)
);
}
);
width = 614;
},
{
layerId = "00D75E95-6BF0-4E41-A2AB-01FED608A441";
shapes = (
{
closed = 1;
nodes = (
(114,0,l),
(114,502,l),
(123,495,l),
(40,495,l),
(40,517,l),
(574,517,l),
(574,495,l),
(493,495,l),
(500,502,l),
(500,0,l),
(478,0,l),
(478,502,l),
(484,495,l),
(127,495,l),
(136,502,l),
(136,0,l)
);
}
);
width = 614;
}
);
note = pi;
unicode = 960;
},
{
glyphname = zero;
kernLeft = zero;
kernRight = zero;
lastChange = "2021-02-17 09:17:51 +0000";
layers = (
{
associatedMasterId = "10E6B24D-63A8-414A-9CC7-A409B0282D48";
layerId = master01;
shapes = (
{
closed = 1;
nodes = (
(690,177,o),
(520,-10,o),
(362,-10,q),
(204,-10,o),
(35,177,o),
(35,350,q),
(35,523,o),
(204,710,o),
(362,710,q),
(520,710,o),
(690,523,o),
(690,350,q)
);
},
{
closed = 1;
nodes = (
(239,262,o),
(303,168,o),
(362,168,q),
(421,168,o),
(485,262,o),
(485,350,q),
(485,443,o),
(421,542,o),
(362,542,q),
(303,542,o),
(239,443,o),
(239,350,q)
);
}
);
width = 725;
},
{
layerId = "10E6B24D-63A8-414A-9CC7-A409B0282D48";
shapes = (
{
closed = 1;
nodes = (
(561,184,o),
(423,-10,o),
(303,-10,q),
(183,-10,o),
(46,184,o),
(46,350,q),
(46,516,o),
(183,710,o),
(303,710,q),
(423,710,o),
(561,516,o),
(561,350,q)
);
},
{
closed = 1;
nodes = (
(150,225,o),
(230,88,o),
(303,88,q),
(376,88,o),
(456,225,o),
(456,350,q),
(456,475,o),
(376,612,o),
(303,612,q),
(230,612,o),
(150,475,o),
(150,350,q)
);
}
);
width = 607;
},
{
layerId = "00D75E95-6BF0-4E41-A2AB-01FED608A441";
shapes = (
{
closed = 1;
nodes = (
(568,174,o),
(436,-10,o),
(310,-10,q),
(184,-10,o),
(52,174,o),
(52,350,q),
(52,526,o),
(184,710,o),
(310,710,q),
(436,710,o),
(568,526,o),
(568,350,q)
);
},
{
closed = 1;
nodes = (
(75,187,o),
(197,12,o),
(310,12,q),
(424,12,o),
(545,187,o),
(545,350,q),
(545,513,o),
(424,688,o),
(310,688,q),
(197,688,o),
(75,513,o),
(75,350,q)
);
}
);
width = 620;
}
);
unicode = 48;
},
{
glyphname = one;
lastChange = "2021-02-17 09:17:51 +0000";
layers = (
{
associatedMasterId = "10E6B24D-63A8-414A-9CC7-A409B0282D48";
layerId = master01;
shapes = (
{
closed = 1;
nodes = (
(207,49,l),
(207,617,l),
(244,489,l),
(85,421,l),
(56,615,l),
(264,710,l),
(416,710,l),
(416,49,l)
);
},
{
closed = 1;
nodes = (
(560,0,l),
(66,0,l),
(66,184,l),
(560,184,l)
);
}
);
width = 607;
},
{
layerId = "10E6B24D-63A8-414A-9CC7-A409B0282D48";
shapes = (
{
closed = 1;
nodes = (
(217,49,l),
(217,617,l),
(254,589,l),
(116,516,l),
(87,610,l),
(274,710,l),
(326,710,l),
(326,49,l)
);
},
{
closed = 1;
nodes = (
(440,0,l),
(106,0,l),
(106,104,l),
(440,104,l)
);
}
);
width = 500;
},
{
layerId = "00D75E95-6BF0-4E41-A2AB-01FED608A441";
shapes = (
{
closed = 1;
nodes = (
(179,8,l),
(179,678,l),
(184,678,l),
(45,585,l),
(39,605,l),
(191,710,l),
(201,710,l),
(201,8,l)
);
},
{
closed = 1;
nodes = (
(319,0,l),
(62,0,l),
(62,22,l),
(319,22,l)
);
}
);
width = 379;
}
);
unicode = 49;
},
{
glyphname = two;
lastChange = "2021-02-17 09:17:51 +0000";
layers = (
{
associatedMasterId = "10E6B24D-63A8-414A-9CC7-A409B0282D48";
layerId = master01;
shapes = (
{
closed = 1;
nodes = (
(556,184,l),
(556,0,l),
(34,0,l),
(0,82,l),
(197,292,ls),
(232,330,o),
(322,442,o),
(322,478,q),
(322,493,o),
(295.417,520,o),
(264,520,q),
(236,520,o),
(192,483,o),
(165,436,q),
(8,516,l),
(43,603,o),
(194,721,o),
(284,720,q),
(380,719,o),
(518,603,o),
(518,509,q),
(518,459,o),
(458.71,333,o),
(381,247,q),
(222,74,l),
(202,184,l)
);
}
);
width = 548;
},
{
layerId = "10E6B24D-63A8-414A-9CC7-A409B0282D48";
shapes = (
{
closed = 1;
nodes = (
(516,104,l),
(516,0,l),
(93,0,l),
(60,82,l),
(274,323,ls),
(340,397,o),
(383,475,o),
(383,509,q),
(383,557,o),
(327,610,o),
(278,610,q),
(235,610,o),
(153,535,o),
(134,473,q),
(51,525,l),
(76,612,o),
(205,710,o),
(291,710,qs),
(380,710,o),
(494,603,o),
(494,517,qs),
(494,459,o),
(426,330,o),
(351,247,q),
(192,74,l),
(172,104,l)
);
}
);
width = 548;
},
{
layerId = "00D75E95-6BF0-4E41-A2AB-01FED608A441";
shapes = (
{
closed = 1;
nodes = (
(506,22,l),
(506,0,l),
(78,0,l),
(72,13,l),
(362,323,ls),
(393,356,o),
(471,470,o),
(471,535,q),
(471,600,o),
(364.137,688,o),
(283,688,q),
(223.422,688,o),
(105.952,612.835,o),
(77,514,q),
(56,524,l),
(84.907,621.685,o),
(206.313,710,o),
(285,710,q),
(373.156,710,o),
(494,612,o),
(494,536,q),
(494,470.11,o),
(424,356,o),
(385,314,qs),
(94,4,l),
(94,22,l)
);
}
);
width = 548;
}
);
unicode = 50;
},
{
glyphname = three;
lastChange = "2021-02-17 09:17:51 +0000";
layers = (
{
associatedMasterId = "10E6B24D-63A8-414A-9CC7-A409B0282D48";
layerId = master01;
shapes = (
{
closed = 1;
nodes = (
(176,253,l),
(205,204,o),
(278,165,o),
(318,165,qs),
(352,165,o),
(402,205,o),
(402,239,q),
(402,276,o),
(351.706,314,o),
(307,314,q),
(287.981,314,o),
(236.014,299.97,o),
(211,287,q),
(168,400,l),
(304,546,l),
(369,525,l),
(82,535,l),
(82,710,l),
(534,710,l),
(573,632,l),
(339,389,l),
(289,452,l),
(297,456,o),
(334,463,o),
(355,463,q),
(451,463,o),
(597,332,o),
(597,237,q),
(597,131,o),
(433,-10,o),
(314,-10,q),
(221,-10,o),
(80,63,o),
(25,156,q)
);
}
);
width = 637;
},
{
layerId = "10E6B24D-63A8-414A-9CC7-A409B0282D48";
shapes = (
{
closed = 1;
nodes = (
(104,191,l),
(141,135,o),
(216,85,o),
(259,85,qs),
(312,85,o),
(390,162,o),
(390,221,q),
(390,280,o),
(327,344,o),
(271,344,qs),
(246,344,o),
(187,329,o),
(150,314,q),
(120,393,l),
(336,631,l),
(357,600,l),
(59,600,l),
(59,700,l),
(460,700,l),
(480,660,l),
(251,406,l),
(226,432,l),
(234,436,o),
(271,443,o),
(283,443,q),
(371,443,o),
(494,318,o),
(494,227,q),
(494,125,o),
(353,-10,o),
(251,-10,q),
(177,-10,o),
(68,58,o),
(20,138,q)
);
}
);
width = 529;
},
{
layerId = "00D75E95-6BF0-4E41-A2AB-01FED608A441";
shapes = (
{
closed = 1;
nodes = (
(40,150,l),
(90,68,o),
(202,12,o),
(266,12,q),
(354,12,o),
(470,136,o),
(470,222,qs),
(470,308,o),
(359,423,o),
(280,423,q),
(248,423,o),
(179,404,o),
(141,361,q),
(127,383,l),
(444,687,l),
(444,678,l),
(89,678,l),
(89,700,l),
(452,700,l),
(465,676,l),
(175,400,l),
(165,406,l),
(191,425,o),
(242,445,o),
(280,445,q),
(373,445,o),
(493,320,o),
(493,222,qs),
(493,126,o),
(362,-10,o),
(264,-10,q),
(190,-10,o),
(68,57,o),
(20,138,q)
);
}
);
width = 529;
}
);
unicode = 51;
},
{
glyphname = four;
lastChange = "2021-02-17 09:17:51 +0000";
layers = (
{
associatedMasterId = "10E6B24D-63A8-414A-9CC7-A409B0282D48";
background = {
shapes = (
{
closed = 1;
nodes = (
(322,0,l),
(322,564,l),
(427,558,l),
(197,277,l),
(143,319,l),
(598,319,l),
(598,170,l),
(53,170,l),
(-10,288,l),
(333,700,l),
(526,700,l),
(526,0,l)
);
}
);
};
layerId = master01;
shapes = (
{
closed = 1;
nodes = (
(347,0,l),
(347,568,l),
(487,568,l),
(217,237,l),
(178,280,l),
(663,280,l),
(663,110,l),
(96,110,l),
(10,272,l),
(378,710,l),
(556,710,l),
(556,0,l)
);
}
);
width = 693;
},
{
layerId = "10E6B24D-63A8-414A-9CC7-A409B0282D48";
shapes = (
{
closed = 1;
nodes = (
(352,0,l),
(352,564,l),
(377,558,l),
(147,277,l),
(143,289,l),
(578,289,l),
(578,190,l),
(76,190,l),
(30,280,l),
(373,700,l),
(456,700,l),
(456,0,l)
);
}
);
width = 620;
},
{
layerId = "00D75E95-6BF0-4E41-A2AB-01FED608A441";
shapes = (
{
closed = 1;
nodes = (
(434,0,l),
(434,681,l),
(448,681,l),
(57,204,l),
(54,212,l),
(578,212,l),
(578,190,l),
(46,190,l),
(35,212,l),
(436,700,l),
(456,700,l),
(456,0,l)
);
}
);
width = 620;
}
);
unicode = 52;
},
{
glyphname = five;
lastChange = "2021-02-17 09:17:51 +0000";
layers = (
{
associatedMasterId = "10E6B24D-63A8-414A-9CC7-A409B0282D48";
layerId = master01;
shapes = (
{
closed = 1;
nodes = (
(572,134,o),
(416,-7,o),
(301,-7,q),
(214,-7,o),
(73,57,o),
(26,118,q),
(141,243,l),
(177,203,o),
(247,173,o),
(291,173,q),
(330,173,o),
(377,217,o),
(377,250,q),
(377,284,o),
(327,329,o),
(287,329,q),
(248,329,o),
(188,307,o),
(150,282,q),
(66,392,l),
(111,710,l),
(531,710,l),
(531,535,l),
(201,535,l),
(262,619,l),
(229,397,l),
(144,411,l),
(182,442,o),
(280,483,o),
(332,483,q),
(435,483,o),
(572,346,o),
(572,238,qs)
);
}
);
width = 617;
},
{
layerId = "10E6B24D-63A8-414A-9CC7-A409B0282D48";
shapes = (
{
closed = 1;
nodes = (
(508,134,o),
(364,-7,o),
(257,-7,q),
(188,-7,o),
(76,56,o),
(39,115,q),
(99,182,l),
(146,130,o),
(216,92,o),
(257,92,q),
(319,92,o),
(403,171,o),
(403,228,q),
(403,288,o),
(323,368,o),
(265,368,q),
(237,368,o),
(183,355,o),
(125,326,q),
(68,403,l),
(109,700,l),
(487,700,l),
(487,600,l),
(177,600,l),
(198,619,l),
(165,397,l),
(140,426,l),
(155,441,o),
(244,468,o),
(284,468,q),
(380,468,o),
(508,339,o),
(508,238,qs)
);
}
);
width = 568;
},
{
layerId = "00D75E95-6BF0-4E41-A2AB-01FED608A441";
shapes = (
{
closed = 1;
nodes = (
(508,132.123,o),
(364,-10,o),
(257,-10,q),
(188,-10,o),
(77,55,o),
(39,115,q),
(58,133,l),
(93,73,o),
(202,12,o),
(258,12,q),
(354,12,o),
(485,144.091,o),
(485,239,q),
(485,322.045,o),
(370,442,o),
(281,442,q),
(227,442,o),
(116,396,o),
(78,361,q),
(65,377,l),
(111,700,l),
(487,700,l),
(487,678,l),
(116,678,l),
(131,690,l),
(87,379,l),
(77,387,l),
(120.255,422.208,o),
(223.429,464,o),
(282,464,q),
(378.149,464,o),
(508,337.207,o),
(508,237,q)
);
}
);
width = 568;
}
);
unicode = 53;
},
{
glyphname = six;
lastChange = "2021-02-17 09:17:51 +0000";
layers = (
{
associatedMasterId = "10E6B24D-63A8-414A-9CC7-A409B0282D48";
layerId = master01;
shapes = (
{
closed = 1;
nodes = (
(576,149,o),
(419,0,o),
(302,0,q),
(190,0,o),
(30,152,o),
(30,258,q),
(30,344,o),
(90,465,o),
(134,538,qs),
(237,710,l),
(433,710,l),
(437,700,l),
(282,464,ls),
(250,415,o),
(214.863,327.12,o),
(179,260,q),
(141,303,l),
(148,382,o),
(293,489,o),
(355,489,q),
(445,489,o),
(576,353,o),
(576,260,qs)
);
},
{
closed = 1;
nodes = (
(217,218,o),
(267,170,o),
(306,170,q),
(345,170,o),
(395,217,o),
(395,255,qs),
(395,288,o),
(343,339,o),
(306,339,qs),
(267,339,o),
(217,290,o),
(217,255,qs)
);
}
);
width = 596;
},
{
layerId = "10E6B24D-63A8-414A-9CC7-A409B0282D48";
shapes = (
{
closed = 1;
nodes = (
(522,148,o),
(388,0,o),
(283,0,q),
(179,0,o),
(40,140,o),
(40,247,qs),
(40,301,o),
(101,461,o),
(159,558,q),
(250,712,l),
(355,712,l),
(359,702,l),
(249,517,ls),
(204,441,o),
(144,309,o),
(132,260,q),
(108,363,l),
(146,425,o),
(247,489,o),
(308,489,qs),
(395,489,o),
(522,353,o),
(522,260,qs)
);
},
{
closed = 1;
nodes = (
(144,185,o),
(222,100,o),
(283,100,q),
(341,100,o),
(418,182,o),
(418,247,qs),
(418,303,o),
(340,389,o),
(285,389,qs),
(223,389,o),
(144,307,o),
(144,248,qs)
);
}
);
width = 557;
},
{
layerId = "00D75E95-6BF0-4E41-A2AB-01FED608A441";
shapes = (
{
closed = 1;
nodes = (
(523,125,o),
(391,-10,o),
(295,-10,qs),
(201,-10,o),
(68,126,o),
(68,233,q),
(66,290,o),
(108,426,o),
(156,501,q),
(288,700,l),
(310,700,l),
(312,695,l),
(183,501,ls),
(141.98,439.311,o),
(93,330,o),
(93,303,q),
(87,306,l),
(122.03,382.064,o),
(230.691,455,o),
(295,455,qs),
(391,455,o),
(523,321,o),
(523,222,qs)
);
},
{
closed = 1;
nodes = (
(92,133,o),
(211,12,o),
(298,12,qs),
(382,12,o),
(500,134,o),
(500,223,qs),
(500,311,o),
(382,433,o),
(298,433,qs),
(211,433,o),
(92,310,o),
(92,221,qs)
);
}
);
width = 605;
}
);
unicode = 54;
},
{
glyphname = seven;
lastChange = "2021-02-17 09:17:51 +0000";
layers = (
{
associatedMasterId = "10E6B24D-63A8-414A-9CC7-A409B0282D48";
layerId = master01;
shapes = (
{
closed = 1;
nodes = (
(64,0,l),
(336,642,l),
(410,526,l),
(35,526,l),
(35,710,l),
(509,710,l),
(526,620,l),
(274,0,l)
);
}
);
width = 561;
},
{
layerId = "10E6B24D-63A8-414A-9CC7-A409B0282D48";
shapes = (
{
closed = 1;
nodes = (
(112,0,l),
(402,632,l),
(414,600,l),
(60,600,l),
(60,700,l),
(493,700,l),
(507,631,l),
(228,0,l)
);
}
);
width = 542;
},
{
layerId = "00D75E95-6BF0-4E41-A2AB-01FED608A441";
shapes = (
{
closed = 1;
nodes = (
(98,0,l),
(406,693,l),
(414,678,l),
(0,678,l),
(0,700,l),
(408,700,l),
(424,680,l),
(123.002,0,l)
);
}
);
width = 466;
}
);
unicode = 55;
},
{
glyphname = eight;
lastChange = "2021-02-17 09:17:51 +0000";
layers = (
{
associatedMasterId = "10E6B24D-63A8-414A-9CC7-A409B0282D48";
layerId = master01;
shapes = (
{
closed = 1;
nodes = (
(555,471.408,o),
(487.045,386.609,o),
(422,360,q),
(409,411,l),
(485.25,397.957,o),
(583,301.121,o),
(583,209,qs),
(583,116,o),
(422,-3,o),
(306,-3,q),
(191,-3,o),
(30,117,o),
(30,209,qs),
(30,299.817,o),
(120.583,396.911,o),
(205,415,q),
(189,360,l),
(128.825,383.675,o),
(57,471.408,o),
(57,529,qs),
(57,614,o),
(203,720,o),
(306,720,q),
(409,720,o),
(555,614,o),
(555,529,qs)
);
},
{
closed = 1;
nodes = (
(277,581,o),
(240,545,o),
(240,518,q),
(240,491,o),
(277,457,o),
(306,457,qs),
(335,457,o),
(372,491,o),
(372,518,q),
(372,545,o),
(335,581,o),
(306,581,q)
);
},
{
closed = 1;
nodes = (
(231,195,o),
(275,156,o),
(306,156,q),
(338,156,o),
(381,194,o),
(381,225,q),
(381,255,o),
(339,294,o),
(306,294,qs),
(275,294,o),
(231,255,o),
(231,225,q)
);
}
);
width = 613;
},
{
layerId = "10E6B24D-63A8-414A-9CC7-A409B0282D48";
shapes = (
{
closed = 1;
nodes = (
(508,460,o),
(450,386,o),
(395,364,q),
(392,381,l),
(452,357,o),
(526,257,o),
(526,200,qs),
(526,115,o),
(388,-3,o),
(289,-3,q),
(191,-3,o),
(53,116,o),
(53,200,qs),
(53,262,o),
(122,356,o),
(188,385,q),
(182,364,l),
(130,384,o),
(70,460,o),
(70,509,qs),
(70,588,o),
(198,700,o),
(289,700,q),
(380,700,o),
(508,588,o),
(508,509,qs)
);
},
{
closed = 1;
nodes = (
(241,600,o),
(177,546,o),
(177,506,q),
(177,466,o),
(241,414,o),
(289,414,qs),
(337,414,o),
(401,466,o),
(401,506,q),
(401,546,o),
(337,600,o),
(289,600,q)
);
},
{
closed = 1;
nodes = (
(160,159,o),
(234,97,o),
(289,97,q),
(345,97,o),
(419,158,o),
(419,204,q),
(419,253,o),
(345,318,o),
(289,318,qs),
(234,318,o),
(160,253,o),
(160,204,q)
);
}
);
width = 579;
},
{
layerId = "00D75E95-6BF0-4E41-A2AB-01FED608A441";
shapes = (
{
closed = 1;
nodes = (
(495,477.35,o),
(416.013,386.002,o),
(347,374,q),
(351,386,l),
(427.977,367.006,o),
(526,266.619,o),
(526,193,q),
(526,109,o),
(389,-3,o),
(290,-3,q),
(192.415,-3,o),
(55,110,o),
(55,193,q),
(55,265.624,o),
(147.021,367.005,o),
(229,386,q),
(233,374,l),
(164.992,383.001,o),
(86,477.35,o),
(86,530,q),
(86,610,o),
(205,710,o),
(290,710,q),
(376,710,o),
(495,610,o),
(495,530,q)
);
},
{
closed = 1;
nodes = (
(212,688,o),
(109,600,o),
(109,537,q),
(109,473,o),
(212,388,o),
(290,388,qs),
(369,388,o),
(472,471,o),
(472,537,q),
(472,600,o),
(369,688,o),
(290,688,q)
);
},
{
closed = 1;
nodes = (
(78,124,o),
(203,19,o),
(290,19,q),
(378,19,o),
(503,123,o),
(503,191,q),
(503,269,o),
(382,368,o),
(290,368,qs),
(199,368,o),
(78,269,o),
(78,191,q)
);
}
);
width = 580;
}
);
unicode = 56;
},
{
glyphname = nine;
lastChange = "2021-02-17 09:17:51 +0000";
layers = (
{
associatedMasterId = "10E6B24D-63A8-414A-9CC7-A409B0282D48";
layerId = master01;
shapes = (
{
closed = 1;
nodes = (
(30,567,o),
(186.72,720,o),
(304,720,q),
(416.122,720,o),
(576,573,o),
(576,472,qs),
(576,385,o),
(519,243,o),
(482,174,qs),
(389,0,l),
(193,0,l),
(189,10,l),
(417,452,l),
(465,409,l),
(457.995,329.94,o),
(305.897,223,o),
(241,223,q),
(155,223,o),
(30,363,o),
(30,456,qs)
);
},
{
closed = 1;
nodes = (
(379,504,o),
(332.215,552,o),
(295,552,q),
(258.191,552,o),
(211,505,o),
(211,467,qs),
(211,434,o),
(260.079,383,o),
(295,383,qs),
(332.215,383,o),
(379,432,o),
(379,467,qs)
);
}
);
width = 596;
},
{
layerId = "10E6B24D-63A8-414A-9CC7-A409B0282D48";
shapes = (
{
closed = 1;
nodes = (
(30,569,o),
(170,712,o),
(274,712,q),
(374,712,o),
(516,575,o),
(516,478,qs),
(516,428,o),
(473,293,o),
(417,174,q),
(334,0,l),
(228,0,l),
(224,10,l),
(432,452,l),
(435,369,l),
(400,310,o),
(297,243,o),
(241,243,q),
(155,243,o),
(30,373,o),
(30,462,qs)
);
},
{
closed = 1;
nodes = (
(400,533,o),
(325,612,o),
(266,612,q),
(212,612,o),
(141,536,o),
(141,475,qs),
(141,423,o),
(213,343,o),
(264,343,qs),
(323,343,o),
(400,419,o),
(400,474,qs)
);
}
);
width = 551;
},
{
layerId = "00D75E95-6BF0-4E41-A2AB-01FED608A441";
shapes = (
{
closed = 1;
nodes = (
(47,575,o),
(179,710,o),
(275,710,qs),
(369.416,710,o),
(502,579.037,o),
(502,476,q),
(502,406.75,o),
(441.926,268.787,o),
(403,199,qs),
(292,0,l),
(270,0,l),
(268,5,l),
(478,384,l),
(481,387,l),
(443,314,o),
(339,245,o),
(275,245,qs),
(179,245,o),
(47,379,o),
(47,478,qs)
);
},
{
closed = 1;
nodes = (
(478,567,o),
(359,688,o),
(272,688,qs),
(188,688,o),
(70,566,o),
(70,477,qs),
(70,389,o),
(188,267,o),
(272,267,qs),
(359,267,o),
(478,390,o),
(478,479,qs)
);
}
);
width = 548;
}
);
unicode = 57;
},
{
glyphname = zero.dnom;
lastChange = "2021-02-17 09:17:51 +0000";
layers = (
{
associatedMasterId = "10E6B24D-63A8-414A-9CC7-A409B0282D48";
layerId = master01;
shapes = (
{
closed = 1;
nodes = (
(404,104,o),
(301,-10,o),
(223,-10,q),
(144,-10,o),
(40,104,o),
(40,189,q),
(40,277,o),
(141,389,o),
(223,389,q),
(304,389,o),
(404,277,o),
(404,189,q)
);
},
{
closed = 1;
nodes = (
(172,155,o),
(198,113,o),
(223,113,q),
(247,113,o),
(272,155,o),
(272,189,q),
(272,224,o),
(247,266,o),
(223,266,q),
(199,266,o),
(172,224,o),
(172,189,q)
);
}
);
width = 444;
},
{
layerId = "10E6B24D-63A8-414A-9CC7-A409B0282D48";
shapes = (
{
closed = 1;
nodes = (
(334,95,o),
(248,-10,o),
(183,-10,q),
(117,-10,o),
(30,95,o),
(30,174,q),
(30,255,o),
(115,359,o),
(183,359,q),
(250,359,o),
(334,255,o),
(334,174,q)
);
},
{
closed = 1;
nodes = (
(112,124,o),
(150,64,o),
(183,64,q),
(215,64,o),
(252,124,o),
(252,174,q),
(252,224,o),
(215,285,o),
(183,285,q),
(151,285,o),
(112,224,o),
(112,174,q)
);
}
);
width = 364;
},
{
layerId = "00D75E95-6BF0-4E41-A2AB-01FED608A441";
shapes = (
{
closed = 1;
nodes = (
(334,95,o),
(249,-10,o),
(183,-10,q),
(116,-10,o),
(30,95,o),
(30,174,q),
(30,255,o),
(115,359,o),
(183,359,q),
(250,359,o),
(334,255,o),
(334,174,q)
);
},
{
closed = 1;
nodes = (
(53,101,o),
(125,12,o),
(183,12,q),
(240,12,o),
(311,103,o),
(311,174,q),
(311,247,o),
(242.465,337,o),
(183,337,q),
(123.543,337,o),
(53,248,o),
(53,174,q)
);
}
);
width = 364;
}
);
},
{
glyphname = one.dnom;
lastChange = "2021-02-17 09:17:51 +0000";
layers = (
{
associatedMasterId = "10E6B24D-63A8-414A-9CC7-A409B0282D48";
layerId = master01;
shapes = (
{
closed = 1;
nodes = (
(251,0,l),
(212,0,o),
(147,0,o),
(108,0,q),
(108,305,l),
(134,247,l),
(64,205,l),
(10,301,l),
(142,379,l),
(251,379,l)
);
}
);
width = 298;
},
{
layerId = "10E6B24D-63A8-414A-9CC7-A409B0282D48";
shapes = (
{
closed = 1;
nodes = (
(201,-2,l),
(182,-2,o),
(145,-2,o),
(126,-2,q),
(126,272,l),
(132,254,l),
(82,222,l),
(47,288,l),
(145,346,l),
(201,346,l)
);
}
);
width = 281;
},
{
layerId = "00D75E95-6BF0-4E41-A2AB-01FED608A441";
shapes = (
{
closed = 1;
nodes = (
(182,1,l),
(177,1,o),
(165,1,o),
(160,1,q),
(160,320,l),
(166,320,l),
(66,264,l),
(56,281,l),
(168,346,l),
(182,346,l)
);
}
);
width = 277;
}
);
},
{
glyphname = two.dnom;
lastChange = "2021-02-17 09:17:51 +0000";
layers = (
{
associatedMasterId = "10E6B24D-63A8-414A-9CC7-A409B0282D48";
guides = (
{
pos = (-93,389);
userData = {
UFO.identifier = HZgzCqMU7U;
};
}
);
layerId = master01;
shapes = (
{
closed = 1;
nodes = (
(57,0,l),
(40,93,l),
(145,164,ls),
(159,174,o),
(184,195,o),
(199,210,qs),
(208.211,219.211,o),
(216,238.237,o),
(216,247,q),
(216,255.333,o),
(200.963,272,o),
(187,272,q),
(176.379,272,o),
(150.356,249.543,o),
(131,220,q),
(35,288,l),
(73,339,o),
(150.6,389,o),
(205,389,q),
(269,389,o),
(345,319,o),
(345,273,q),
(345,199,o),
(250,120,o),
(194,92,qs),
(150,70,l),
(150,107,l),
(358,107,l),
(358,0,l)
);
}
);
width = 378;
},
{
layerId = "10E6B24D-63A8-414A-9CC7-A409B0282D48";
shapes = (
{
closed = 1;
nodes = (
(65,0,l),
(56,71,l),
(133,148,ls),
(139,154,o),
(171,185,o),
(179,194,qs),
(195,211,o),
(209,237,o),
(209,249,q),
(209,267,o),
(187,289,o),
(169,289,q),
(154,289,o),
(118,265,o),
(94,238,q),
(42,275,l),
(65,314,o),
(137,361,o),
(176,361,q),
(230,361,o),
(293,299,o),
(293,251,q),
(293,229,o),
(264,181,o),
(205,123,q),
(138,58,l),
(142,67,l),
(296,67,l),
(296,0,l)
);
}
);
width = 346;
},
{
layerId = "00D75E95-6BF0-4E41-A2AB-01FED608A441";
shapes = (
{
closed = 1;
nodes = (
(75,0,l),
(72,26,l),
(146,111,ls),
(165.875,133.829,o),
(196,166,o),
(207,179,qs),
(232.206,208.239,o),
(260,255,o),
(260,276,q),
(260,305,o),
(216.588,339,o),
(188,339,q),
(159,339,o),
(112.943,308.904,o),
(93,275,q),
(74,288,l),
(91.935,319.884,o),
(150,361,o),
(188,361,q),
(227.253,361,o),
(282,314,o),
(282,277,q),
(282,235,o),
(215.822,154.742,o),
(157,89,qs),
(89,13,l),
(90,22,l),
(295,22,l),
(295,0,l)
);
}
);
width = 346;
}
);
},
{
glyphname = three.dnom;
lastChange = "2021-02-17 09:17:51 +0000";
layers = (
{
associatedMasterId = "10E6B24D-63A8-414A-9CC7-A409B0282D48";
layerId = master01;
shapes = (
{
closed = 1;
nodes = (
(326,58,o),
(240,-10,o),
(186,-10,q),
(134,-10,o),
(65,5,o),
(20,24,q),
(74,119,l),
(90,111,o),
(128,101,o),
(148,101,q),
(167,101,o),
(191,117,o),
(191,129,q),
(191,140,o),
(169,154,o),
(148,154,q),
(134,154,o),
(107,149,o),
(92,146,q),
(67,210,l),
(240,317,l),
(240,272,l),
(52,272,l),
(52,379,l),
(294,379,l),
(306,281,l),
(171,192,l),
(171,198,l),
(185,207,o),
(215,216,o),
(225,216,q),
(265,216,o),
(326,159,o),
(326,113,q)
);
}
);
width = 366;
},
{
layerId = "10E6B24D-63A8-414A-9CC7-A409B0282D48";
shapes = (
{
closed = 1;
nodes = (
(297,58,o),
(221,-10,o),
(165,-10,q),
(137,-10,o),
(78,9,o),
(57,24,q),
(90,79,l),
(109,67,o),
(142,56,o),
(159,56,q),
(187,56,o),
(222,85,o),
(222,110,q),
(222,130,o),
(191,155,o),
(165,155,q),
(157,155,o),
(140,152,o),
(109,143,q),
(88,200,l),
(190,288,l),
(209,282,l),
(79,282,l),
(79,350,l),
(265,350,l),
(272,284,l),
(173,202,l),
(160,209,l),
(165,212,o),
(181,216,o),
(186,216,q),
(238,216,o),
(297,159,o),
(297,111,q)
);
}
);
width = 342;
},
{
layerId = "00D75E95-6BF0-4E41-A2AB-01FED608A441";
shapes = (
{
closed = 1;
nodes = (
(297,57,o),
(226,-10,o),
(174,-10,q),
(146,-10,o),
(87,9,o),
(66,24,q),
(78,42,l),
(109,23,o),
(151,12,o),
(172,12,q),
(217,12,o),
(275,63,o),
(275,107,q),
(275,146,o),
(219,194,o),
(181,194,q),
(156.544,194,o),
(123.82,184.159,o),
(97,169,q),
(92,184,l),
(249,334,l),
(254,329,l),
(80,329,l),
(80,350,l),
(266,350,l),
(270,326,l),
(124,187,l),
(107,187,l),
(134.403,205.268,o),
(166.436,215,o),
(183,215,q),
(229.821,215,o),
(297,155,o),
(297,108,q)
);
}
);
width = 342;
}
);
},
{
glyphname = four.dnom;
lastChange = "2021-02-17 09:17:51 +0000";
layers = (
{
associatedMasterId = "10E6B24D-63A8-414A-9CC7-A409B0282D48";
layerId = master01;
shapes = (
{
closed = 1;
nodes = (
(181,0,l),
(181,85,l),
(211,138,l),
(211,305,l),
(254,287,l),
(102,110,l),
(72,167,l),
(392,167,l),
(392,60,l),
(32,60,l),
(10,149,l),
(200,379,l),
(336,379,l),
(336,0,l)
);
}
);
width = 422;
},
{
layerId = "10E6B24D-63A8-414A-9CC7-A409B0282D48";
shapes = (
{
closed = 1;
nodes = (
(204,-2,l),
(204,104,l),
(204,122,l),
(204,290,l),
(236,276,l),
(110,130,l),
(113,149,l),
(340,149,l),
(340,81,l),
(62,81,l),
(45,150,l),
(213,356,l),
(279,356,l),
(279,-2,l)
);
}
);
width = 390;
},
{
layerId = "00D75E95-6BF0-4E41-A2AB-01FED608A441";
shapes = (
{
closed = 1;
nodes = (
(257,0,l),
(257,90,l),
(257,102,l),
(257,344,l),
(269,334,l),
(83,94,l),
(83,107,l),
(340,107,l),
(340,85,l),
(61,85,l),
(58,99,l),
(257,356,l),
(279,356,l),
(279,0,l)
);
}
);
width = 390;
}
);
},
{
glyphname = five.dnom;
lastChange = "2021-02-17 09:17:51 +0000";
layers = (
{
associatedMasterId = "10E6B24D-63A8-414A-9CC7-A409B0282D48";
guides = (
{
pos = (606,379);
userData = {
UFO.identifier = aetedMwSRa;
};
}
);
layerId = master01;
shapes = (
{
closed = 1;
nodes = (
(336,64,o),
(239.451,-10,o),
(162,-10,q),
(127.576,-10,o),
(45.179,13.116,o),
(20,32,q),
(77,124,l),
(98,114,o),
(141.839,103,o),
(167,103,q),
(185.457,103,o),
(205,120,o),
(205,134,q),
(205,147,o),
(183.421,164,o),
(164,164,q),
(145.722,164,o),
(106.459,156.075,o),
(88,145,q),
(34,196,ls),
(63,379,l),
(316,379,l),
(316,272,l),
(122,272,l),
(179,331,l),
(142,186,l),
(116,208,l),
(130.459,223.981,o),
(170.796,234,o),
(199,234,q),
(256,234,o),
(336,170.71,o),
(336,125,q)
);
}
);
width = 376;
},
{
layerId = "10E6B24D-63A8-414A-9CC7-A409B0282D48";
shapes = (
{
closed = 1;
nodes = (
(306,62,o),
(222,-9,o),
(155,-9,q),
(130,-9,o),
(70,13,o),
(50,28,q),
(87,86,l),
(102,73,o),
(139,59,o),
(159,59,q),
(189,59,o),
(226,89,o),
(226,114,q),
(226,136,o),
(194,166,o),
(168,166,q),
(151,166,o),
(123,158,o),
(98,142,q),
(63,182,l),
(86,345,l),
(289,345,l),
(289,276,l),
(125,276,l),
(152,297,l),
(137,172,l),
(106,189,l),
(122,212,o),
(167,235,o),
(199,235,q),
(244,235,o),
(306,169,o),
(306,121,q)
);
}
);
width = 358;
},
{
layerId = "00D75E95-6BF0-4E41-A2AB-01FED608A441";
shapes = (
{
closed = 1;
nodes = (
(306,57,o),
(229,-10,o),
(167,-10,q),
(142,-10,o),
(84.986,11.506,o),
(65,28,q),
(77,48,l),
(100,29,o),
(145,12,o),
(170,12,q),
(222,12,o),
(284,66,o),
(284,112,q),
(284,157,o),
(225,209,o),
(177,209,q),
(149.693,209,o),
(109,194,o),
(88,171,q),
(66,174.5,l),
(90.5,345,l),
(289,345,l),
(289,323,l),
(95,323,l),
(111,332,l),
(89,190,l),
(79,190,l),
(93,208,o),
(146.029,231,o),
(181,231,q),
(237,231,o),
(306,163.263,o),
(306,114,q)
);
}
);
width = 355;
}
);
},
{
glyphname = six.dnom;
lastChange = "2021-02-17 09:17:51 +0000";
layers = (
{
associatedMasterId = "10E6B24D-63A8-414A-9CC7-A409B0282D48";
layerId = master01;
shapes = (
{
closed = 1;
nodes = (
(367,60,o),
(280,-11,o),
(209,-11,q),
(133,-11,o),
(36,85,o),
(36,173,q),
(36,265,o),
(137,389,o),
(231,389,q),
(267,389,o),
(336,372,o),
(364,351,q),
(312,264,l),
(295,276,o),
(253,285,o),
(235,285,q),
(202,285,o),
(166,234,o),
(164,188,q),
(94,117,l),
(113,176,o),
(187,244,o),
(232,244,q),
(291,244,o),
(367,174,o),
(367,119,q)
);
},
{
closed = 1;
nodes = (
(173,106,o),
(195,85,o),
(212,85,q),
(228,85,o),
(251,106,o),
(251,122,q),
(251,136,o),
(229,158,o),
(213,158,q),
(196,158,o),
(173,137,o),
(173,122,q)
);
}
);
width = 403;
},
{
layerId = "10E6B24D-63A8-414A-9CC7-A409B0282D48";
shapes = (
{
closed = 1;
nodes = (
(303,63,o),
(227,-11,o),
(172,-11,q),
(114,-11,o),
(40,76,o),
(40,139,q),
(40,232,o),
(132,358,o),
(199,358,q),
(222,358,o),
(271,339,o),
(284,326,q),
(256,269,l),
(243,278,o),
(218,285,o),
(202,285,q),
(170,285,o),
(129,228,o),
(126,178,q),
(74,117,l),
(90,167,o),
(152,223,o),
(191,223,q),
(240,223,o),
(303,163,o),
(303,118,q)
);
},
{
closed = 1;
nodes = (
(119,84,o),
(149,52,o),
(172,52,q),
(193,52,o),
(224,84,o),
(224,107,q),
(224,129,o),
(194,161,o),
(173,161,q),
(150,161,o),
(119,130,o),
(119,108,q)
);
}
);
width = 343;
},
{
layerId = "00D75E95-6BF0-4E41-A2AB-01FED608A441";
shapes = (
{
closed = 1;
nodes = (
(289,58,o),
(221,-10,o),
(172,-10,qs),
(118,-10,o),
(52,62,o),
(52,130,q),
(52,233,o),
(114,358,o),
(186,358,q),
(209,358,o),
(250,345,o),
(271,330,q),
(261,311,l),
(245,322,o),
(206,336,o),
(183,336,q),
(129,336,o),
(77,240,o),
(73,151,q),
(64,140,l),
(76,181,o),
(133,225,o),
(172,225,qs),
(221,225,o),
(289,157,o),
(289,108,qs)
);
},
{
closed = 1;
nodes = (
(76,67,o),
(131,11,o),
(171,11,qs),
(211,11,o),
(268,67,o),
(268,107,qs),
(268,147,o),
(211,204,o),
(171,204,qs),
(131,204,o),
(76,147,o),
(76,107,qs)
);
}
);
width = 343;
}
);
},
{
glyphname = seven.dnom;
lastChange = "2021-02-17 09:17:51 +0000";
layers = (
{
associatedMasterId = "10E6B24D-63A8-414A-9CC7-A409B0282D48";
guides = (
{
pos = (-19,379);
userData = {
UFO.identifier = Z3d3jRlvsP;
};
}
);
layerId = master01;
shapes = (
{
closed = 1;
nodes = (
(44,0,l),
(44,9,l),
(179,307,l),
(227,256,l),
(28,256,l),
(28,379,l),
(279,379,l),
(323,302,l),
(190,0,l)
);
}
);
width = 333;
},
{
layerId = "10E6B24D-63A8-414A-9CC7-A409B0282D48";
shapes = (
{
closed = 1;
nodes = (
(84,0,l),
(84,9,l),
(220,307,l),
(232,276,l),
(53,276,l),
(53,344,l),
(269,344,l),
(296,294,l),
(159,0,l)
);
}
);
width = 326;
},
{
layerId = "00D75E95-6BF0-4E41-A2AB-01FED608A441";
shapes = (
{
closed = 1;
nodes = (
(112,0,l),
(109,9,l),
(268,335.499,l),
(269,322,l),
(62,322,l),
(62,344,l),
(279.5,344,l),
(289,330,l),
(129,0,l)
);
}
);
width = 326;
}
);
},
{
glyphname = eight.dnom;
lastChange = "2021-02-17 09:17:51 +0000";
layers = (
{
associatedMasterId = "10E6B24D-63A8-414A-9CC7-A409B0282D48";
guides = (
{
pos = (-127,389);
userData = {
UFO.identifier = q4W0KM370V;
};
},
{
angle = 90;
pos = (189,123);
userData = {
UFO.identifier = T1ahNqRqDT;
};
}
);
layerId = master01;
shapes = (
{
closed = 1;
nodes = (
(367,58,o),
(271,-11,o),
(204,-11,q),
(137,-11,o),
(40,58,o),
(40,106,q),
(40,147,o),
(87,197,o),
(132,205,q),
(129,183,l),
(93,196,o),
(51,242,o),
(51,278,q),
(51,324,o),
(138,389,o),
(204,389,q),
(270,389,o),
(358,324,o),
(358,278,q),
(357,242,o),
(317,198,o),
(279,183,q),
(278,205,l),
(318,199,o),
(367,147,o),
(367,106,q)
);
},
{
closed = 1;
nodes = (
(165,256,o),
(189,235,o),
(205,235,q),
(222,235,o),
(245,256,o),
(245,271,q),
(245,288,o),
(222,310,o),
(205,310,q),
(188,310,o),
(165,288,o),
(165,271,q)
);
},
{
closed = 1;
nodes = (
(159,100,o),
(185,76,o),
(204,76,q),
(222,76,o),
(249,100,o),
(249,118,q),
(249,134,o),
(223,159,o),
(205,159,q),
(186,159,o),
(159,135,o),
(159,118,q)
);
}
);
width = 407;
},
{
layerId = "10E6B24D-63A8-414A-9CC7-A409B0282D48";
shapes = (
{
closed = 1;
nodes = (
(309,53,o),
(231,-11,o),
(177,-11,q),
(122,-11,o),
(44,53,o),
(44,97,q),
(44,125,o),
(83,172,o),
(120,188,q),
(117,177,l),
(88,187,o),
(54,228,o),
(54,255,q),
(54,298,o),
(125,358,o),
(177,358,q),
(228,358,o),
(300,298,o),
(300,255,q),
(300,230,o),
(267,189,o),
(237,177,q),
(236,188,l),
(269,174,o),
(309,125,o),
(309,97,q)
);
},
{
closed = 1;
nodes = (
(129,236,o),
(157,213,o),
(177,213,q),
(197,213,o),
(225,236,o),
(225,253,q),
(225,270,o),
(197,294,o),
(177,294,q),
(156,294,o),
(129,271,o),
(129,253,q)
);
},
{
closed = 1;
nodes = (
(121,82,o),
(154,52,o),
(177,52,q),
(200,52,o),
(233,82,o),
(233,104,q),
(233,124,o),
(200,151,o),
(177,151,q),
(153,151,o),
(121,124,o),
(121,104,q)
);
}
);
width = 353;
},
{
layerId = "00D75E95-6BF0-4E41-A2AB-01FED608A441";
shapes = (
{
closed = 1;
nodes = (
(288,50.083,o),
(221,-10,o),
(176,-10,q),
(129,-10,o),
(62,50,o),
(62,93,q),
(62,122.684,o),
(96.057,172.024,o),
(131,187,q),
(134,177,l),
(104.086,191.957,o),
(70,234,o),
(70,264,q),
(70,303,o),
(130,358,o),
(176,358,q),
(218,358,o),
(279,303,o),
(279,264,q),
(279,237,o),
(244.517,193.052,o),
(217,177,q),
(222,187,l),
(251.95,174.022,o),
(288,122.244,o),
(288,93,q)
);
},
{
closed = 1;
nodes = (
(92,233,o),
(141,192,o),
(176,192,q),
(209,192,o),
(257,233,o),
(257,263,q),
(257,294,o),
(208,336,o),
(176,336,q),
(140,336,o),
(92,296,o),
(92,263,q)
);
},
{
closed = 1;
nodes = (
(84,59,o),
(138,12,o),
(176,12,q),
(211,12,o),
(266,59.059,o),
(266,92,q),
(266,125.067,o),
(213,172,o),
(176,172,q),
(134,172,o),
(84,125,o),
(84,92,q)
);
}
);
width = 353;
}
);
},
{
glyphname = nine.dnom;
lastChange = "2021-02-17 09:17:51 +0000";
layers = (
{
associatedMasterId = "10E6B24D-63A8-414A-9CC7-A409B0282D48";
layerId = master01;
shapes = (
{
closed = 1;
nodes = (
(363,113,o),
(262,-11,o),
(168,-11,q),
(132,-11,o),
(63,6,o),
(35,27,q),
(87,114,l),
(104,102,o),
(146,93,o),
(164,93,q),
(197,93,o),
(233,144,o),
(235,190,q),
(305,261,l),
(286,202,o),
(212,134,o),
(167,134,q),
(108,134,o),
(32,204,o),
(32,259,q),
(32,318,o),
(125,389,o),
(200,389,q),
(272,389,o),
(363,293,o),
(363,205,q)
);
},
{
closed = 1;
nodes = (
(148,242,o),
(170,220,o),
(186,220,q),
(203,220,o),
(226,241,o),
(226,256,q),
(226,272,o),
(204,293,o),
(187,293,q),
(171,293,o),
(148,272,o),
(148,256,q)
);
}
);
width = 393;
},
{
layerId = "10E6B24D-63A8-414A-9CC7-A409B0282D48";
shapes = (
{
closed = 1;
nodes = (
(298,110,o),
(216,-12,o),
(150,-12,q),
(127,-12,o),
(72,14,o),
(61,28,q),
(94,82,l),
(107,73,o),
(134,62,o),
(145,62,qs),
(178,62,o),
(210,112,o),
(212,168,q),
(263,229,l),
(248,180,o),
(185,123,o),
(146,123,q),
(97,123,o),
(35,183,o),
(35,228,q),
(35,284,o),
(110,358,o),
(165,358,q),
(223,358,o),
(298,271,o),
(298,207,q)
);
},
{
closed = 1;
nodes = (
(114,217,o),
(143,185,o),
(164,185,q),
(188,185,o),
(219,216,o),
(219,238,q),
(219,262,o),
(189,294,o),
(166,294,q),
(144,294,o),
(114,262,o),
(114,239,q)
);
}
);
width = 333;
},
{
layerId = "00D75E95-6BF0-4E41-A2AB-01FED608A441";
shapes = (
{
closed = 1;
nodes = (
(285,115,o),
(223,-10,o),
(151,-10,q),
(128,-10,o),
(87,3,o),
(66,18,q),
(76,37,l),
(92,26,o),
(131,12,o),
(154,12,q),
(207,12,o),
(260,108,o),
(264,197,q),
(273,208,l),
(261,167,o),
(204,123,o),
(165,123,qs),
(116,123,o),
(48,191,o),
(48,240,qs),
(48,290,o),
(116,358,o),
(165,358,qs),
(219,358,o),
(285,286,o),
(285,218,q)
);
},
{
closed = 1;
nodes = (
(69,201,o),
(126,144,o),
(166,144,qs),
(206,144,o),
(261,201,o),
(261,241,qs),
(261,281,o),
(206,337,o),
(166,337,qs),
(126,337,o),
(69,281,o),
(69,241,qs)
);
}
);
width = 333;
}
);
},
{
glyphname = fraction;
lastChange = "2021-02-17 09:17:51 +0000";
layers = (
{
associatedMasterId = "10E6B24D-63A8-414A-9CC7-A409B0282D48";
layerId = master01;
shapes = (
{
closed = 1;
nodes = (
(-20,0,l),
(243,393,l),
(443,700,l),
(626,700,l),
(363,307,l),
(158,0,l)
);
}
);
width = 606;
},
{
layerId = "10E6B24D-63A8-414A-9CC7-A409B0282D48";
shapes = (
{
closed = 1;
nodes = (
(20,0,l),
(241,335,l),
(483,700,l),
(586,700,l),
(323,307,l),
(118,0,l)
);
}
);
width = 606;
},
{
layerId = "00D75E95-6BF0-4E41-A2AB-01FED608A441";
shapes = (
{
closed = 1;
nodes = (
(52,0,l),
(311,388,l),
(520,700,l),
(547,700,l),
(331,377,l),
(79,0,l)
);
}
);
width = 606;
}
);
note = fraction;
unicode = 8260;
},
{
glyphname = .notdef;
lastChange = "2021-02-17 09:17:51 +0000";
layers = (
{
associatedMasterId = "10E6B24D-63A8-414A-9CC7-A409B0282D48";
layerId = master01;
shapes = (
{
closed = 1;
nodes = (
(40,665,ls),
(40,682,o),
(58,700,o),
(75,700,q),
(509,700,ls),
(526,700,o),
(544,682,o),
(544,665,q),
(544,35,ls),
(544,18,o),
(526,0,o),
(509,0,q),
(75,0,ls),
(58,0,o),
(40,18,o),
(40,35,q)
);
},
{
closed = 1;
nodes = (
(95,670,ls),
(92,670,o),
(90,666,o),
(92,664,q),
(508,65,l),
(510,62,o),
(514,63,o),
(514,67,q),
(514,665,ls),
(514,667,o),
(511,670,o),
(509,670,q)
);
},
{
closed = 1;
nodes = (
(70,35,ls),
(70,33,o),
(73,30,o),
(75,30,q),
(488,30,ls),
(491,30,o),
(493,34,o),
(491,36,q),
(76,635,l),
(74,638,o),
(70,637,o),
(70,633,q)
);
}
);
width = 584;
},
{
layerId = "10E6B24D-63A8-414A-9CC7-A409B0282D48";
shapes = (
{
closed = 1;
nodes = (
(40,665,ls),
(40,682,o),
(58,700,o),
(75,700,q),
(509,700,ls),
(526,700,o),
(544,682,o),
(544,665,q),
(544,35,ls),
(544,18,o),
(526,0,o),
(509,0,q),
(75,0,ls),
(58,0,o),
(40,18,o),
(40,35,q)
);
},
{
closed = 1;
nodes = (
(95,670,ls),
(92,670,o),
(90,666,o),
(92,664,q),
(508,65,l),
(510,62,o),
(514,63,o),
(514,67,q),
(514,665,ls),
(514,667,o),
(511,670,o),
(509,670,q)
);
},
{
closed = 1;
nodes = (
(70,35,ls),
(70,33,o),
(73,30,o),
(75,30,q),
(488,30,ls),
(491,30,o),
(493,34,o),
(491,36,q),
(76,635,l),
(74,638,o),
(70,637,o),
(70,633,q)
);
}
);
width = 584;
},
{
layerId = "00D75E95-6BF0-4E41-A2AB-01FED608A441";
shapes = (
{
closed = 1;
nodes = (
(40,665,ls),
(40,682,o),
(58,700,o),
(75,700,q),
(509,700,ls),
(526,700,o),
(544,682,o),
(544,665,q),
(544,35,ls),
(544,18,o),
(526,0,o),
(509,0,q),
(75,0,ls),
(58,0,o),
(40,18,o),
(40,35,q)
);
},
{
closed = 1;
nodes = (
(84,678,ls),
(81,678,o),
(79,674,o),
(81,672,q),
(516,47,l),
(518,44,o),
(522,45,o),
(522,49,q),
(522,673,ls),
(522,675,o),
(519,678,o),
(517,678,q)
);
},
{
closed = 1;
nodes = (
(62,27,ls),
(62,25,o),
(65,22,o),
(67,22,q),
(499,22,ls),
(502,22,o),
(504,26,o),
(502,28,q),
(68,652,l),
(66,655,o),
(62,654,o),
(62,650,q)
);
}
);
width = 584;
}
);
note = .notdef;
},
{
color = (136,231,255,255);
glyphname = period;
kernLeft = period;
kernRight = period;
lastChange = "2021-02-17 09:17:51 +0000";
layers = (
{
associatedMasterId = "10E6B24D-63A8-414A-9CC7-A409B0282D48";
layerId = master01;
shapes = (
{
closed = 1;
nodes = (
(238,45,o),
(183,-11,o),
(139,-11,qs),
(92,-11,o),
(40,41,o),
(40,89,q),
(40,133,o),
(95,189,o),
(139,189,q),
(186,189,o),
(238,137,o),
(238,89,q)
);
}
);
width = 278;
},
{
layerId = "10E6B24D-63A8-414A-9CC7-A409B0282D48";
shapes = (
{
closed = 1;
nodes = (
(183,31,o),
(145,-11,o),
(114,-11,qs),
(81,-11,o),
(45,28,o),
(45,64,qs),
(45,97,o),
(83,139,o),
(114,139,qs),
(147,139,o),
(183,100,o),
(183,64,qs)
);
}
);
width = 228;
},
{
layerId = "00D75E95-6BF0-4E41-A2AB-01FED608A441";
shapes = (
{
closed = 1;
nodes = (
(144,13,o),
(128,-5,o),
(114,-5,qs),
(100,-5,o),
(84,11,o),
(84,26,qs),
(84,40,o),
(100,57,o),
(114,57,qs),
(128,57,o),
(144,41,o),
(144,26,qs)
);
}
);
width = 228;
}
);
note = period;
unicode = 46;
},
{
color = (136,231,255,255);
glyphname = comma;
kernLeft = comma;
kernRight = period;
lastChange = "2021-02-17 09:17:51 +0000";
layers = (
{
associatedMasterId = "10E6B24D-63A8-414A-9CC7-A409B0282D48";
layerId = master01;
shapes = (
{
closed = 1;
nodes = (
(197,140,o),
(262,65,o),
(262,5,qs),
(262,-66,o),
(161,-194,o),
(82,-215,q),
(30,-151,l),
(74,-134,o),
(126,-76,o),
(126,-56,qs),
(126,-47,o),
(117,-26,o),
(98,-15,qs),
(73,1,o),
(53,38,o),
(53,62,q),
(53,98,o),
(107,140,o),
(149,140,q)
);
}
);
width = 302;
},
{
layerId = "10E6B24D-63A8-414A-9CC7-A409B0282D48";
shapes = (
{
closed = 1;
nodes = (
(170,117,o),
(221,54,o),
(221,4,qs),
(221,-55,o),
(145,-157,o),
(88,-179,q),
(50,-133,l),
(85,-113,o),
(129,-61,o),
(129,-42,qs),
(129,-32,o),
(119,-13,o),
(103,4,qs),
(83,23,o),
(71,49,o),
(71,64,q),
(71,88,o),
(105,117,o),
(132,117,q)
);
}
);
width = 267;
},
{
layerId = "00D75E95-6BF0-4E41-A2AB-01FED608A441";
shapes = (
{
closed = 1;
nodes = (
(126,54,o),
(150,23,o),
(150,-7,q),
(150,-41,o),
(121,-89,o),
(86,-122,q),
(77,-110,l),
(96,-89,o),
(122,-49,o),
(122,-36,q),
(122,-20,o),
(107,-8,o),
(93,-3,qs),
(85,0,o),
(74,15,o),
(74,26,q),
(74,38,o),
(89,54,o),
(104,54,q)
);
}
);
width = 216;
}
);
note = comma;
unicode = 44;
},
{
glyphname = exclam;
lastChange = "2021-02-17 09:17:51 +0000";
layers = (
{
associatedMasterId = "10E6B24D-63A8-414A-9CC7-A409B0282D48";
layerId = master01;
shapes = (
{
closed = 1;
nodes = (
(117,266,l),
(103,355,o),
(75,546,o),
(75,635,qs),
(75,720,l),
(289,720,l),
(289,635,ls),
(289,547,o),
(261,354,o),
(247,266,q)
);
},
{
closed = 1;
nodes = (
(282,45,o),
(227,-11,o),
(183,-11,qs),
(136,-11,o),
(84,41,o),
(84,89,q),
(84,133,o),
(139,189,o),
(183,189,q),
(230,189,o),
(282,137,o),
(282,89,q)
);
}
);
width = 364;
},
{
layerId = "10E6B24D-63A8-414A-9CC7-A409B0282D48";
shapes = (
{
closed = 1;
nodes = (
(87,241,l),
(76,335,o),
(63,542,o),
(63,630,q),
(63,700,l),
(171,700,l),
(171,630,ls),
(171,537,o),
(158,328,o),
(147,241,q)
);
},
{
closed = 1;
nodes = (
(183,31,o),
(145,-11,o),
(114,-11,qs),
(81,-11,o),
(45,28,o),
(45,64,qs),
(45,97,o),
(83,139,o),
(114,139,qs),
(147,139,o),
(183,100,o),
(183,64,qs)
);
}
);
width = 236;
},
{
layerId = "00D75E95-6BF0-4E41-A2AB-01FED608A441";
shapes = (
{
closed = 1;
nodes = (
(124,241,l),
(120,335,o),
(121,537,o),
(121,630,q),
(121,700,l),
(143,700,l),
(143,630,ls),
(143,537,o),
(144,335,o),
(140,241,q)
);
},
{
closed = 1;
nodes = (
(160,13,o),
(144,-8,o),
(129,-8,qs),
(114,-8,o),
(98,11,o),
(98,28,qs),
(98,44,o),
(115,64,o),
(129,64,q),
(145,64,o),
(160,45,o),
(160,28,qs)
);
}
);
width = 254;
}
);
note = exclam;
unicode = 33;
},
{
color = (136,231,255,255);
glyphname = question;
lastChange = "2021-02-17 09:17:51 +0000";
layers = (
{
associatedMasterId = "10E6B24D-63A8-414A-9CC7-A409B0282D48";
layerId = master01;
shapes = (
{
closed = 1;
nodes = (
(160,385,l),
(244,407,o),
(321,457,o),
(321,497,q),
(321,516,o),
(298,535,o),
(281,535,q),
(247,535,o),
(189,495,o),
(160,440,q),
(25,570,l),
(72,642,o),
(201,720,o),
(272,720,qs),
(374,720,o),
(514,600,o),
(514,511,qs),
(514,430,o),
(389,286,o),
(293,258,q),
(293,258,l),
(293,258,l),
(196,258,l)
);
},
{
closed = 1;
nodes = (
(358,45,o),
(303,-11,o),
(259,-11,qs),
(212,-11,o),
(160,41,o),
(160,89,q),
(160,133,o),
(215,189,o),
(259,189,q),
(306,189,o),
(358,137,o),
(358,89,q)
);
}
);
width = 554;
},
{
layerId = "10E6B24D-63A8-414A-9CC7-A409B0282D48";
shapes = (
{
closed = 1;
nodes = (
(167,352,l),
(265,378,o),
(358,455,o),
(358,511,qs),
(358,555,o),
(290,612,o),
(239,612,qs),
(199,612,o),
(124,557,o),
(97,507,q),
(22,570,l),
(65,636,o),
(184,709,o),
(249,709,qs),
(343,709,o),
(471,595,o),
(471,511,qs),
(471,441,o),
(356,321,o),
(270,295,q),
(290,314,l),
(270,211,l),
(193,211,l)
);
},
{
closed = 1;
nodes = (
(296,31,o),
(258,-11,o),
(227,-11,qs),
(194,-11,o),
(158,28,o),
(158,64,qs),
(158,97,o),
(196,139,o),
(227,139,qs),
(260,139,o),
(296,100,o),
(296,64,qs)
);
}
);
width = 511;
},
{
guides = (
{
angle = 270;
pos = (447,609);
},
{
pos = (352,710);
}
);
layerId = "00D75E95-6BF0-4E41-A2AB-01FED608A441";
shapes = (
{
closed = 1;
nodes = (
(184,315,l),
(277,337,o),
(375,448,o),
(375,522,q),
(375,587,o),
(282,688,o),
(201,688,q),
(143,688,o),
(44,624,o),
(18,547,q),
(0,559,l),
(23,632,o),
(131,710,o),
(200,710,q),
(288,710,o),
(398,601,o),
(398,522,q),
(398,439,o),
(285,315,o),
(190,296,q),
(208,306,l),
(206,146,l),
(186,146,l)
);
},
{
closed = 1;
nodes = (
(226,8,o),
(213,-10,o),
(200,-10,qs),
(187,-10,o),
(174,6,o),
(174,20,qs),
(174,33,o),
(188,50,o),
(200,50,q),
(214,50,o),
(226,34,o),
(226,20,qs)
);
}
);
width = 438;
}
);
note = question;
unicode = 63;
},
